%TF.GenerationSoftware,KiCad,Pcbnew,9.0.7*%
%TF.CreationDate,2026-04-03T13:03:57+02:00*%
%TF.ProjectId,Untitled,556e7469-746c-4656-942e-6b696361645f,rev?*%
%TF.SameCoordinates,Original*%
%TF.FileFunction,Drillmap*%
%TF.FilePolarity,Positive*%
%FSLAX45Y45*%
G04 Gerber Fmt 4.5, Leading zero omitted, Abs format (unit mm)*
G04 Created by KiCad (PCBNEW 9.0.7) date 2026-04-03 13:03:57*
%MOMM*%
%LPD*%
G01*
G04 APERTURE LIST*
%ADD10C,0.100000*%
%ADD11C,0.050000*%
%ADD12C,0.200000*%
%ADD13C,0.250000*%
G04 APERTURE END LIST*
D10*
X4420000Y-3800000D02*
G75*
G02*
X4180000Y-3800000I-120000J0D01*
G01*
X4180000Y-3800000D02*
G75*
G02*
X4420000Y-3800000I120000J0D01*
G01*
X11220000Y-7900000D02*
G75*
G02*
X10980000Y-7900000I-120000J0D01*
G01*
X10980000Y-7900000D02*
G75*
G02*
X11220000Y-7900000I120000J0D01*
G01*
X4420000Y-9600000D02*
G75*
G02*
X4180000Y-9600000I-120000J0D01*
G01*
X4180000Y-9600000D02*
G75*
G02*
X4420000Y-9600000I120000J0D01*
G01*
D11*
X4300000Y-3500000D02*
X12500000Y-3500000D01*
X12800000Y-3800000D02*
X12800000Y-9600000D01*
D10*
X12620000Y-3800000D02*
G75*
G02*
X12380000Y-3800000I-120000J0D01*
G01*
X12380000Y-3800000D02*
G75*
G02*
X12620000Y-3800000I120000J0D01*
G01*
X7720000Y-7300000D02*
G75*
G02*
X7480000Y-7300000I-120000J0D01*
G01*
X7480000Y-7300000D02*
G75*
G02*
X7720000Y-7300000I120000J0D01*
G01*
D11*
X12800000Y-9600000D02*
G75*
G02*
X12500000Y-9900000I-300000J0D01*
G01*
X4000000Y-3800000D02*
G75*
G02*
X4300000Y-3500000I300000J0D01*
G01*
X4000000Y-9600000D02*
X4000000Y-3800000D01*
X4300000Y-9900000D02*
G75*
G02*
X4000000Y-9600000I0J300000D01*
G01*
D10*
X12520000Y-8800000D02*
G75*
G02*
X12280000Y-8800000I-120000J0D01*
G01*
X12280000Y-8800000D02*
G75*
G02*
X12520000Y-8800000I120000J0D01*
G01*
D11*
X12500000Y-3500000D02*
G75*
G02*
X12800000Y-3800000I0J-300000D01*
G01*
X12500000Y-9900000D02*
X4300000Y-9900000D01*
D12*
D10*
X7029870Y-8400250D02*
X7059870Y-8430250D01*
X7059870Y-8400250D02*
X7029870Y-8430250D01*
X7835000Y-5335000D02*
X7865000Y-5365000D01*
X7865000Y-5335000D02*
X7835000Y-5365000D01*
X6718000Y-7750000D02*
G75*
G02*
X6658000Y-7750000I-30000J0D01*
G01*
X6658000Y-7750000D02*
G75*
G02*
X6718000Y-7750000I30000J0D01*
G01*
X7780000Y-7750000D02*
G75*
G02*
X7720000Y-7750000I-30000J0D01*
G01*
X7720000Y-7750000D02*
G75*
G02*
X7780000Y-7750000I30000J0D01*
G01*
X6180000Y-7903900D02*
X6180000Y-7980100D01*
X6141900Y-7942000D02*
X6218100Y-7942000D01*
X6180000Y-8919900D02*
X6180000Y-8996100D01*
X6141900Y-8958000D02*
X6218100Y-8958000D01*
X6434000Y-7903900D02*
X6434000Y-7980100D01*
X6395900Y-7942000D02*
X6472100Y-7942000D01*
X6434000Y-8919900D02*
X6434000Y-8996100D01*
X6395900Y-8958000D02*
X6472100Y-8958000D01*
X6688000Y-7903900D02*
X6688000Y-7980100D01*
X6649900Y-7942000D02*
X6726100Y-7942000D01*
X6688000Y-8919900D02*
X6688000Y-8996100D01*
X6649900Y-8958000D02*
X6726100Y-8958000D01*
X6942000Y-7903900D02*
X6942000Y-7980100D01*
X6903900Y-7942000D02*
X6980100Y-7942000D01*
X6942000Y-8919900D02*
X6942000Y-8996100D01*
X6903900Y-8958000D02*
X6980100Y-8958000D01*
X7196000Y-7903900D02*
X7196000Y-7980100D01*
X7157900Y-7942000D02*
X7234100Y-7942000D01*
X7196000Y-8919900D02*
X7196000Y-8996100D01*
X7157900Y-8958000D02*
X7234100Y-8958000D01*
X7450000Y-7903900D02*
X7450000Y-7980100D01*
X7411900Y-7942000D02*
X7488100Y-7942000D01*
X7450000Y-8919900D02*
X7450000Y-8996100D01*
X7411900Y-8958000D02*
X7488100Y-8958000D01*
X5033588Y-7275588D02*
X5033588Y-7208412D01*
X4966412Y-7208412D01*
X4966412Y-7275588D01*
X5033588Y-7275588D01*
X5033588Y-7525588D02*
X5033588Y-7458412D01*
X4966412Y-7458412D01*
X4966412Y-7525588D01*
X5033588Y-7525588D01*
X5033588Y-7775588D02*
X5033588Y-7708412D01*
X4966412Y-7708412D01*
X4966412Y-7775588D01*
X5033588Y-7775588D01*
X5033588Y-8025588D02*
X5033588Y-7958412D01*
X4966412Y-7958412D01*
X4966412Y-8025588D01*
X5033588Y-8025588D01*
X5133588Y-8675588D02*
X5133588Y-8608412D01*
X5066412Y-8608412D01*
X5066412Y-8675588D01*
X5133588Y-8675588D01*
X5133588Y-8925588D02*
X5133588Y-8858412D01*
X5066412Y-8858412D01*
X5066412Y-8925588D01*
X5133588Y-8925588D01*
X5133588Y-9175588D02*
X5133588Y-9108412D01*
X5066412Y-9108412D01*
X5066412Y-9175588D01*
X5133588Y-9175588D01*
X6608588Y-6636088D02*
X6608588Y-6568912D01*
X6541412Y-6568912D01*
X6541412Y-6636088D01*
X6608588Y-6636088D01*
X6858588Y-6636088D02*
X6858588Y-6568912D01*
X6791412Y-6568912D01*
X6791412Y-6636088D01*
X6858588Y-6636088D01*
X7108588Y-6636088D02*
X7108588Y-6568912D01*
X7041412Y-6568912D01*
X7041412Y-6636088D01*
X7108588Y-6636088D01*
X7358588Y-6636088D02*
X7358588Y-6568912D01*
X7291412Y-6568912D01*
X7291412Y-6636088D01*
X7358588Y-6636088D01*
X8283588Y-6533588D02*
X8283588Y-6466412D01*
X8216412Y-6466412D01*
X8216412Y-6533588D01*
X8283588Y-6533588D01*
X8533588Y-6533588D02*
X8533588Y-6466412D01*
X8466412Y-6466412D01*
X8466412Y-6533588D01*
X8533588Y-6533588D01*
X8683588Y-7783588D02*
X8683588Y-7716412D01*
X8616412Y-7716412D01*
X8616412Y-7783588D01*
X8683588Y-7783588D01*
X8683588Y-8033588D02*
X8683588Y-7966412D01*
X8616412Y-7966412D01*
X8616412Y-8033588D01*
X8683588Y-8033588D01*
X8683588Y-8283588D02*
X8683588Y-8216412D01*
X8616412Y-8216412D01*
X8616412Y-8283588D01*
X8683588Y-8283588D01*
X8683588Y-8533588D02*
X8683588Y-8466412D01*
X8616412Y-8466412D01*
X8616412Y-8533588D01*
X8683588Y-8533588D01*
X8783588Y-6533588D02*
X8783588Y-6466412D01*
X8716412Y-6466412D01*
X8716412Y-6533588D01*
X8783588Y-6533588D01*
X9033588Y-6533588D02*
X9033588Y-6466412D01*
X8966412Y-6466412D01*
X8966412Y-6533588D01*
X9033588Y-6533588D01*
X9283588Y-6533588D02*
X9283588Y-6466412D01*
X9216412Y-6466412D01*
X9216412Y-6533588D01*
X9283588Y-6533588D01*
X10233588Y-7133588D02*
X10233588Y-7066412D01*
X10166412Y-7066412D01*
X10166412Y-7133588D01*
X10233588Y-7133588D01*
X10483588Y-7133588D02*
X10483588Y-7066412D01*
X10416412Y-7066412D01*
X10416412Y-7133588D01*
X10483588Y-7133588D01*
X10733588Y-7133588D02*
X10733588Y-7066412D01*
X10666412Y-7066412D01*
X10666412Y-7133588D01*
X10733588Y-7133588D01*
X11583588Y-7133588D02*
X11583588Y-7066412D01*
X11516412Y-7066412D01*
X11516412Y-7133588D01*
X11583588Y-7133588D01*
X11833588Y-7133588D02*
X11833588Y-7066412D01*
X11766412Y-7066412D01*
X11766412Y-7133588D01*
X11833588Y-7133588D01*
X12083588Y-7133588D02*
X12083588Y-7066412D01*
X12016412Y-7066412D01*
X12016412Y-7133588D01*
X12083588Y-7133588D01*
X5015000Y-5762000D02*
X5065000Y-5712000D01*
X5015000Y-5662000D01*
X4965000Y-5712000D01*
X5015000Y-5762000D01*
X5269000Y-5762000D02*
X5319000Y-5712000D01*
X5269000Y-5662000D01*
X5219000Y-5712000D01*
X5269000Y-5762000D01*
X5470000Y-4365000D02*
X5520000Y-4315000D01*
X5470000Y-4265000D01*
X5420000Y-4315000D01*
X5470000Y-4365000D01*
X5523000Y-5762000D02*
X5573000Y-5712000D01*
X5523000Y-5662000D01*
X5473000Y-5712000D01*
X5523000Y-5762000D01*
X5777000Y-5762000D02*
X5827000Y-5712000D01*
X5777000Y-5662000D01*
X5727000Y-5712000D01*
X5777000Y-5762000D01*
X5820000Y-4365000D02*
X5870000Y-4315000D01*
X5820000Y-4265000D01*
X5770000Y-4315000D01*
X5820000Y-4365000D01*
X6031000Y-5762000D02*
X6081000Y-5712000D01*
X6031000Y-5662000D01*
X5981000Y-5712000D01*
X6031000Y-5762000D01*
X6285000Y-5762000D02*
X6335000Y-5712000D01*
X6285000Y-5662000D01*
X6235000Y-5712000D01*
X6285000Y-5762000D01*
X7730000Y-5762000D02*
X7780000Y-5712000D01*
X7730000Y-5662000D01*
X7680000Y-5712000D01*
X7730000Y-5762000D01*
X7984000Y-5762000D02*
X8034000Y-5712000D01*
X7984000Y-5662000D01*
X7934000Y-5712000D01*
X7984000Y-5762000D01*
X8185000Y-4365000D02*
X8235000Y-4315000D01*
X8185000Y-4265000D01*
X8135000Y-4315000D01*
X8185000Y-4365000D01*
X8238000Y-5762000D02*
X8288000Y-5712000D01*
X8238000Y-5662000D01*
X8188000Y-5712000D01*
X8238000Y-5762000D01*
X8492000Y-5762000D02*
X8542000Y-5712000D01*
X8492000Y-5662000D01*
X8442000Y-5712000D01*
X8492000Y-5762000D01*
X8535000Y-4365000D02*
X8585000Y-4315000D01*
X8535000Y-4265000D01*
X8485000Y-4315000D01*
X8535000Y-4365000D01*
X8746000Y-5762000D02*
X8796000Y-5712000D01*
X8746000Y-5662000D01*
X8696000Y-5712000D01*
X8746000Y-5762000D01*
X9000000Y-5762000D02*
X9050000Y-5712000D01*
X9000000Y-5662000D01*
X8950000Y-5712000D01*
X9000000Y-5762000D01*
X10042000Y-5800000D02*
X10092000Y-5750000D01*
X10042000Y-5700000D01*
X9992000Y-5750000D01*
X10042000Y-5800000D01*
X10296000Y-5800000D02*
X10346000Y-5750000D01*
X10296000Y-5700000D01*
X10246000Y-5750000D01*
X10296000Y-5800000D01*
X10550000Y-5800000D02*
X10600000Y-5750000D01*
X10550000Y-5700000D01*
X10500000Y-5750000D01*
X10550000Y-5800000D01*
X10804000Y-5800000D02*
X10854000Y-5750000D01*
X10804000Y-5700000D01*
X10754000Y-5750000D01*
X10804000Y-5800000D01*
X11058000Y-5800000D02*
X11108000Y-5750000D01*
X11058000Y-5700000D01*
X11008000Y-5750000D01*
X11058000Y-5800000D01*
X11312000Y-5800000D02*
X11362000Y-5750000D01*
X11312000Y-5700000D01*
X11262000Y-5750000D01*
X11312000Y-5800000D01*
X11566000Y-5800000D02*
X11616000Y-5750000D01*
X11566000Y-5700000D01*
X11516000Y-5750000D01*
X11566000Y-5800000D01*
X11820000Y-5800000D02*
X11870000Y-5750000D01*
X11820000Y-5700000D01*
X11770000Y-5750000D01*
X11820000Y-5800000D01*
X12074000Y-5800000D02*
X12124000Y-5750000D01*
X12074000Y-5700000D01*
X12024000Y-5750000D01*
X12074000Y-5800000D01*
X12328000Y-5800000D02*
X12378000Y-5750000D01*
X12328000Y-5700000D01*
X12278000Y-5750000D01*
X12328000Y-5800000D01*
D13*
X4509000Y-4063000D02*
X4759000Y-4313000D01*
X4759000Y-4063000D02*
X4509000Y-4313000D01*
X4759000Y-4188000D02*
G75*
G02*
X4509000Y-4188000I-125000J0D01*
G01*
X4509000Y-4188000D02*
G75*
G02*
X4759000Y-4188000I125000J0D01*
G01*
X4509000Y-5587000D02*
X4759000Y-5837000D01*
X4759000Y-5587000D02*
X4509000Y-5837000D01*
X4759000Y-5712000D02*
G75*
G02*
X4509000Y-5712000I-125000J0D01*
G01*
X4509000Y-5712000D02*
G75*
G02*
X4759000Y-5712000I125000J0D01*
G01*
X6541000Y-4063000D02*
X6791000Y-4313000D01*
X6791000Y-4063000D02*
X6541000Y-4313000D01*
X6791000Y-4188000D02*
G75*
G02*
X6541000Y-4188000I-125000J0D01*
G01*
X6541000Y-4188000D02*
G75*
G02*
X6791000Y-4188000I125000J0D01*
G01*
X6541000Y-5587000D02*
X6791000Y-5837000D01*
X6791000Y-5587000D02*
X6541000Y-5837000D01*
X6791000Y-5712000D02*
G75*
G02*
X6541000Y-5712000I-125000J0D01*
G01*
X6541000Y-5712000D02*
G75*
G02*
X6791000Y-5712000I125000J0D01*
G01*
X7224000Y-4063000D02*
X7474000Y-4313000D01*
X7474000Y-4063000D02*
X7224000Y-4313000D01*
X7474000Y-4188000D02*
G75*
G02*
X7224000Y-4188000I-125000J0D01*
G01*
X7224000Y-4188000D02*
G75*
G02*
X7474000Y-4188000I125000J0D01*
G01*
X7224000Y-5587000D02*
X7474000Y-5837000D01*
X7474000Y-5587000D02*
X7224000Y-5837000D01*
X7474000Y-5712000D02*
G75*
G02*
X7224000Y-5712000I-125000J0D01*
G01*
X7224000Y-5712000D02*
G75*
G02*
X7474000Y-5712000I125000J0D01*
G01*
X9256000Y-4063000D02*
X9506000Y-4313000D01*
X9506000Y-4063000D02*
X9256000Y-4313000D01*
X9506000Y-4188000D02*
G75*
G02*
X9256000Y-4188000I-125000J0D01*
G01*
X9256000Y-4188000D02*
G75*
G02*
X9506000Y-4188000I125000J0D01*
G01*
X9256000Y-5587000D02*
X9506000Y-5837000D01*
X9506000Y-5587000D02*
X9256000Y-5837000D01*
X9506000Y-5712000D02*
G75*
G02*
X9256000Y-5712000I-125000J0D01*
G01*
X9256000Y-5712000D02*
G75*
G02*
X9506000Y-5712000I125000J0D01*
G01*
X9917000Y-4355000D02*
X10167000Y-4605000D01*
X10167000Y-4355000D02*
X9917000Y-4605000D01*
X10167000Y-4480000D02*
G75*
G02*
X9917000Y-4480000I-125000J0D01*
G01*
X9917000Y-4480000D02*
G75*
G02*
X10167000Y-4480000I125000J0D01*
G01*
X12203000Y-4355000D02*
X12453000Y-4605000D01*
X12453000Y-4355000D02*
X12203000Y-4605000D01*
X12453000Y-4480000D02*
G75*
G02*
X12203000Y-4480000I-125000J0D01*
G01*
X12203000Y-4480000D02*
G75*
G02*
X12453000Y-4480000I125000J0D01*
G01*
D12*
X4258277Y-10213984D02*
X4258277Y-10013984D01*
X4258277Y-10013984D02*
X4305896Y-10013984D01*
X4305896Y-10013984D02*
X4334467Y-10023508D01*
X4334467Y-10023508D02*
X4353515Y-10042555D01*
X4353515Y-10042555D02*
X4363039Y-10061603D01*
X4363039Y-10061603D02*
X4372563Y-10099698D01*
X4372563Y-10099698D02*
X4372563Y-10128270D01*
X4372563Y-10128270D02*
X4363039Y-10166365D01*
X4363039Y-10166365D02*
X4353515Y-10185412D01*
X4353515Y-10185412D02*
X4334467Y-10204460D01*
X4334467Y-10204460D02*
X4305896Y-10213984D01*
X4305896Y-10213984D02*
X4258277Y-10213984D01*
X4458277Y-10213984D02*
X4458277Y-10080650D01*
X4458277Y-10118746D02*
X4467801Y-10099698D01*
X4467801Y-10099698D02*
X4477324Y-10090174D01*
X4477324Y-10090174D02*
X4496372Y-10080650D01*
X4496372Y-10080650D02*
X4515420Y-10080650D01*
X4582086Y-10213984D02*
X4582086Y-10080650D01*
X4582086Y-10013984D02*
X4572563Y-10023508D01*
X4572563Y-10023508D02*
X4582086Y-10033031D01*
X4582086Y-10033031D02*
X4591610Y-10023508D01*
X4591610Y-10023508D02*
X4582086Y-10013984D01*
X4582086Y-10013984D02*
X4582086Y-10033031D01*
X4705896Y-10213984D02*
X4686848Y-10204460D01*
X4686848Y-10204460D02*
X4677324Y-10185412D01*
X4677324Y-10185412D02*
X4677324Y-10013984D01*
X4810658Y-10213984D02*
X4791610Y-10204460D01*
X4791610Y-10204460D02*
X4782086Y-10185412D01*
X4782086Y-10185412D02*
X4782086Y-10013984D01*
X5039229Y-10213984D02*
X5039229Y-10013984D01*
X5039229Y-10013984D02*
X5105896Y-10156841D01*
X5105896Y-10156841D02*
X5172563Y-10013984D01*
X5172563Y-10013984D02*
X5172563Y-10213984D01*
X5353515Y-10213984D02*
X5353515Y-10109222D01*
X5353515Y-10109222D02*
X5343991Y-10090174D01*
X5343991Y-10090174D02*
X5324944Y-10080650D01*
X5324944Y-10080650D02*
X5286848Y-10080650D01*
X5286848Y-10080650D02*
X5267801Y-10090174D01*
X5353515Y-10204460D02*
X5334467Y-10213984D01*
X5334467Y-10213984D02*
X5286848Y-10213984D01*
X5286848Y-10213984D02*
X5267801Y-10204460D01*
X5267801Y-10204460D02*
X5258277Y-10185412D01*
X5258277Y-10185412D02*
X5258277Y-10166365D01*
X5258277Y-10166365D02*
X5267801Y-10147317D01*
X5267801Y-10147317D02*
X5286848Y-10137793D01*
X5286848Y-10137793D02*
X5334467Y-10137793D01*
X5334467Y-10137793D02*
X5353515Y-10128270D01*
X5448753Y-10080650D02*
X5448753Y-10280650D01*
X5448753Y-10090174D02*
X5467801Y-10080650D01*
X5467801Y-10080650D02*
X5505896Y-10080650D01*
X5505896Y-10080650D02*
X5524944Y-10090174D01*
X5524944Y-10090174D02*
X5534467Y-10099698D01*
X5534467Y-10099698D02*
X5543991Y-10118746D01*
X5543991Y-10118746D02*
X5543991Y-10175889D01*
X5543991Y-10175889D02*
X5534467Y-10194936D01*
X5534467Y-10194936D02*
X5524944Y-10204460D01*
X5524944Y-10204460D02*
X5505896Y-10213984D01*
X5505896Y-10213984D02*
X5467801Y-10213984D01*
X5467801Y-10213984D02*
X5448753Y-10204460D01*
X5629705Y-10194936D02*
X5639229Y-10204460D01*
X5639229Y-10204460D02*
X5629705Y-10213984D01*
X5629705Y-10213984D02*
X5620182Y-10204460D01*
X5620182Y-10204460D02*
X5629705Y-10194936D01*
X5629705Y-10194936D02*
X5629705Y-10213984D01*
X5629705Y-10090174D02*
X5639229Y-10099698D01*
X5639229Y-10099698D02*
X5629705Y-10109222D01*
X5629705Y-10109222D02*
X5620182Y-10099698D01*
X5620182Y-10099698D02*
X5629705Y-10090174D01*
X5629705Y-10090174D02*
X5629705Y-10109222D01*
D10*
X3967500Y-10527500D02*
X3997500Y-10557500D01*
X3997500Y-10527500D02*
X3967500Y-10557500D01*
D12*
X4296372Y-10433984D02*
X4315420Y-10433984D01*
X4315420Y-10433984D02*
X4334467Y-10443508D01*
X4334467Y-10443508D02*
X4343991Y-10453031D01*
X4343991Y-10453031D02*
X4353515Y-10472079D01*
X4353515Y-10472079D02*
X4363039Y-10510174D01*
X4363039Y-10510174D02*
X4363039Y-10557793D01*
X4363039Y-10557793D02*
X4353515Y-10595889D01*
X4353515Y-10595889D02*
X4343991Y-10614936D01*
X4343991Y-10614936D02*
X4334467Y-10624460D01*
X4334467Y-10624460D02*
X4315420Y-10633984D01*
X4315420Y-10633984D02*
X4296372Y-10633984D01*
X4296372Y-10633984D02*
X4277324Y-10624460D01*
X4277324Y-10624460D02*
X4267801Y-10614936D01*
X4267801Y-10614936D02*
X4258277Y-10595889D01*
X4258277Y-10595889D02*
X4248753Y-10557793D01*
X4248753Y-10557793D02*
X4248753Y-10510174D01*
X4248753Y-10510174D02*
X4258277Y-10472079D01*
X4258277Y-10472079D02*
X4267801Y-10453031D01*
X4267801Y-10453031D02*
X4277324Y-10443508D01*
X4277324Y-10443508D02*
X4296372Y-10433984D01*
X4448753Y-10614936D02*
X4458277Y-10624460D01*
X4458277Y-10624460D02*
X4448753Y-10633984D01*
X4448753Y-10633984D02*
X4439229Y-10624460D01*
X4439229Y-10624460D02*
X4448753Y-10614936D01*
X4448753Y-10614936D02*
X4448753Y-10633984D01*
X4524944Y-10433984D02*
X4648753Y-10433984D01*
X4648753Y-10433984D02*
X4582086Y-10510174D01*
X4582086Y-10510174D02*
X4610658Y-10510174D01*
X4610658Y-10510174D02*
X4629705Y-10519698D01*
X4629705Y-10519698D02*
X4639229Y-10529222D01*
X4639229Y-10529222D02*
X4648753Y-10548270D01*
X4648753Y-10548270D02*
X4648753Y-10595889D01*
X4648753Y-10595889D02*
X4639229Y-10614936D01*
X4639229Y-10614936D02*
X4629705Y-10624460D01*
X4629705Y-10624460D02*
X4610658Y-10633984D01*
X4610658Y-10633984D02*
X4553515Y-10633984D01*
X4553515Y-10633984D02*
X4534467Y-10624460D01*
X4534467Y-10624460D02*
X4524944Y-10614936D01*
X4772563Y-10433984D02*
X4791610Y-10433984D01*
X4791610Y-10433984D02*
X4810658Y-10443508D01*
X4810658Y-10443508D02*
X4820182Y-10453031D01*
X4820182Y-10453031D02*
X4829705Y-10472079D01*
X4829705Y-10472079D02*
X4839229Y-10510174D01*
X4839229Y-10510174D02*
X4839229Y-10557793D01*
X4839229Y-10557793D02*
X4829705Y-10595889D01*
X4829705Y-10595889D02*
X4820182Y-10614936D01*
X4820182Y-10614936D02*
X4810658Y-10624460D01*
X4810658Y-10624460D02*
X4791610Y-10633984D01*
X4791610Y-10633984D02*
X4772563Y-10633984D01*
X4772563Y-10633984D02*
X4753515Y-10624460D01*
X4753515Y-10624460D02*
X4743991Y-10614936D01*
X4743991Y-10614936D02*
X4734467Y-10595889D01*
X4734467Y-10595889D02*
X4724944Y-10557793D01*
X4724944Y-10557793D02*
X4724944Y-10510174D01*
X4724944Y-10510174D02*
X4734467Y-10472079D01*
X4734467Y-10472079D02*
X4743991Y-10453031D01*
X4743991Y-10453031D02*
X4753515Y-10443508D01*
X4753515Y-10443508D02*
X4772563Y-10433984D01*
X4963039Y-10433984D02*
X4982086Y-10433984D01*
X4982086Y-10433984D02*
X5001134Y-10443508D01*
X5001134Y-10443508D02*
X5010658Y-10453031D01*
X5010658Y-10453031D02*
X5020182Y-10472079D01*
X5020182Y-10472079D02*
X5029705Y-10510174D01*
X5029705Y-10510174D02*
X5029705Y-10557793D01*
X5029705Y-10557793D02*
X5020182Y-10595889D01*
X5020182Y-10595889D02*
X5010658Y-10614936D01*
X5010658Y-10614936D02*
X5001134Y-10624460D01*
X5001134Y-10624460D02*
X4982086Y-10633984D01*
X4982086Y-10633984D02*
X4963039Y-10633984D01*
X4963039Y-10633984D02*
X4943991Y-10624460D01*
X4943991Y-10624460D02*
X4934467Y-10614936D01*
X4934467Y-10614936D02*
X4924944Y-10595889D01*
X4924944Y-10595889D02*
X4915420Y-10557793D01*
X4915420Y-10557793D02*
X4915420Y-10510174D01*
X4915420Y-10510174D02*
X4924944Y-10472079D01*
X4924944Y-10472079D02*
X4934467Y-10453031D01*
X4934467Y-10453031D02*
X4943991Y-10443508D01*
X4943991Y-10443508D02*
X4963039Y-10433984D01*
X5115420Y-10633984D02*
X5115420Y-10500650D01*
X5115420Y-10519698D02*
X5124944Y-10510174D01*
X5124944Y-10510174D02*
X5143991Y-10500650D01*
X5143991Y-10500650D02*
X5172563Y-10500650D01*
X5172563Y-10500650D02*
X5191610Y-10510174D01*
X5191610Y-10510174D02*
X5201134Y-10529222D01*
X5201134Y-10529222D02*
X5201134Y-10633984D01*
X5201134Y-10529222D02*
X5210658Y-10510174D01*
X5210658Y-10510174D02*
X5229705Y-10500650D01*
X5229705Y-10500650D02*
X5258277Y-10500650D01*
X5258277Y-10500650D02*
X5277325Y-10510174D01*
X5277325Y-10510174D02*
X5286848Y-10529222D01*
X5286848Y-10529222D02*
X5286848Y-10633984D01*
X5382086Y-10633984D02*
X5382086Y-10500650D01*
X5382086Y-10519698D02*
X5391610Y-10510174D01*
X5391610Y-10510174D02*
X5410658Y-10500650D01*
X5410658Y-10500650D02*
X5439229Y-10500650D01*
X5439229Y-10500650D02*
X5458277Y-10510174D01*
X5458277Y-10510174D02*
X5467801Y-10529222D01*
X5467801Y-10529222D02*
X5467801Y-10633984D01*
X5467801Y-10529222D02*
X5477325Y-10510174D01*
X5477325Y-10510174D02*
X5496372Y-10500650D01*
X5496372Y-10500650D02*
X5524944Y-10500650D01*
X5524944Y-10500650D02*
X5543991Y-10510174D01*
X5543991Y-10510174D02*
X5553515Y-10529222D01*
X5553515Y-10529222D02*
X5553515Y-10633984D01*
X5943991Y-10424460D02*
X5772563Y-10681603D01*
X6201134Y-10433984D02*
X6220182Y-10433984D01*
X6220182Y-10433984D02*
X6239229Y-10443508D01*
X6239229Y-10443508D02*
X6248753Y-10453031D01*
X6248753Y-10453031D02*
X6258277Y-10472079D01*
X6258277Y-10472079D02*
X6267801Y-10510174D01*
X6267801Y-10510174D02*
X6267801Y-10557793D01*
X6267801Y-10557793D02*
X6258277Y-10595889D01*
X6258277Y-10595889D02*
X6248753Y-10614936D01*
X6248753Y-10614936D02*
X6239229Y-10624460D01*
X6239229Y-10624460D02*
X6220182Y-10633984D01*
X6220182Y-10633984D02*
X6201134Y-10633984D01*
X6201134Y-10633984D02*
X6182086Y-10624460D01*
X6182086Y-10624460D02*
X6172563Y-10614936D01*
X6172563Y-10614936D02*
X6163039Y-10595889D01*
X6163039Y-10595889D02*
X6153515Y-10557793D01*
X6153515Y-10557793D02*
X6153515Y-10510174D01*
X6153515Y-10510174D02*
X6163039Y-10472079D01*
X6163039Y-10472079D02*
X6172563Y-10453031D01*
X6172563Y-10453031D02*
X6182086Y-10443508D01*
X6182086Y-10443508D02*
X6201134Y-10433984D01*
X6353515Y-10614936D02*
X6363039Y-10624460D01*
X6363039Y-10624460D02*
X6353515Y-10633984D01*
X6353515Y-10633984D02*
X6343991Y-10624460D01*
X6343991Y-10624460D02*
X6353515Y-10614936D01*
X6353515Y-10614936D02*
X6353515Y-10633984D01*
X6486848Y-10433984D02*
X6505896Y-10433984D01*
X6505896Y-10433984D02*
X6524944Y-10443508D01*
X6524944Y-10443508D02*
X6534467Y-10453031D01*
X6534467Y-10453031D02*
X6543991Y-10472079D01*
X6543991Y-10472079D02*
X6553515Y-10510174D01*
X6553515Y-10510174D02*
X6553515Y-10557793D01*
X6553515Y-10557793D02*
X6543991Y-10595889D01*
X6543991Y-10595889D02*
X6534467Y-10614936D01*
X6534467Y-10614936D02*
X6524944Y-10624460D01*
X6524944Y-10624460D02*
X6505896Y-10633984D01*
X6505896Y-10633984D02*
X6486848Y-10633984D01*
X6486848Y-10633984D02*
X6467801Y-10624460D01*
X6467801Y-10624460D02*
X6458277Y-10614936D01*
X6458277Y-10614936D02*
X6448753Y-10595889D01*
X6448753Y-10595889D02*
X6439229Y-10557793D01*
X6439229Y-10557793D02*
X6439229Y-10510174D01*
X6439229Y-10510174D02*
X6448753Y-10472079D01*
X6448753Y-10472079D02*
X6458277Y-10453031D01*
X6458277Y-10453031D02*
X6467801Y-10443508D01*
X6467801Y-10443508D02*
X6486848Y-10433984D01*
X6743991Y-10633984D02*
X6629706Y-10633984D01*
X6686848Y-10633984D02*
X6686848Y-10433984D01*
X6686848Y-10433984D02*
X6667801Y-10462555D01*
X6667801Y-10462555D02*
X6648753Y-10481603D01*
X6648753Y-10481603D02*
X6629706Y-10491127D01*
X6934467Y-10633984D02*
X6820182Y-10633984D01*
X6877325Y-10633984D02*
X6877325Y-10433984D01*
X6877325Y-10433984D02*
X6858277Y-10462555D01*
X6858277Y-10462555D02*
X6839229Y-10481603D01*
X6839229Y-10481603D02*
X6820182Y-10491127D01*
X7048753Y-10519698D02*
X7029706Y-10510174D01*
X7029706Y-10510174D02*
X7020182Y-10500650D01*
X7020182Y-10500650D02*
X7010658Y-10481603D01*
X7010658Y-10481603D02*
X7010658Y-10472079D01*
X7010658Y-10472079D02*
X7020182Y-10453031D01*
X7020182Y-10453031D02*
X7029706Y-10443508D01*
X7029706Y-10443508D02*
X7048753Y-10433984D01*
X7048753Y-10433984D02*
X7086848Y-10433984D01*
X7086848Y-10433984D02*
X7105896Y-10443508D01*
X7105896Y-10443508D02*
X7115420Y-10453031D01*
X7115420Y-10453031D02*
X7124944Y-10472079D01*
X7124944Y-10472079D02*
X7124944Y-10481603D01*
X7124944Y-10481603D02*
X7115420Y-10500650D01*
X7115420Y-10500650D02*
X7105896Y-10510174D01*
X7105896Y-10510174D02*
X7086848Y-10519698D01*
X7086848Y-10519698D02*
X7048753Y-10519698D01*
X7048753Y-10519698D02*
X7029706Y-10529222D01*
X7029706Y-10529222D02*
X7020182Y-10538746D01*
X7020182Y-10538746D02*
X7010658Y-10557793D01*
X7010658Y-10557793D02*
X7010658Y-10595889D01*
X7010658Y-10595889D02*
X7020182Y-10614936D01*
X7020182Y-10614936D02*
X7029706Y-10624460D01*
X7029706Y-10624460D02*
X7048753Y-10633984D01*
X7048753Y-10633984D02*
X7086848Y-10633984D01*
X7086848Y-10633984D02*
X7105896Y-10624460D01*
X7105896Y-10624460D02*
X7115420Y-10614936D01*
X7115420Y-10614936D02*
X7124944Y-10595889D01*
X7124944Y-10595889D02*
X7124944Y-10557793D01*
X7124944Y-10557793D02*
X7115420Y-10538746D01*
X7115420Y-10538746D02*
X7105896Y-10529222D01*
X7105896Y-10529222D02*
X7086848Y-10519698D01*
X7201134Y-10433984D02*
X7201134Y-10472079D01*
X7277325Y-10433984D02*
X7277325Y-10472079D01*
X7572563Y-10710174D02*
X7563039Y-10700650D01*
X7563039Y-10700650D02*
X7543991Y-10672079D01*
X7543991Y-10672079D02*
X7534468Y-10653031D01*
X7534468Y-10653031D02*
X7524944Y-10624460D01*
X7524944Y-10624460D02*
X7515420Y-10576841D01*
X7515420Y-10576841D02*
X7515420Y-10538746D01*
X7515420Y-10538746D02*
X7524944Y-10491127D01*
X7524944Y-10491127D02*
X7534468Y-10462555D01*
X7534468Y-10462555D02*
X7543991Y-10443508D01*
X7543991Y-10443508D02*
X7563039Y-10414936D01*
X7563039Y-10414936D02*
X7572563Y-10405412D01*
X7639229Y-10453031D02*
X7648753Y-10443508D01*
X7648753Y-10443508D02*
X7667801Y-10433984D01*
X7667801Y-10433984D02*
X7715420Y-10433984D01*
X7715420Y-10433984D02*
X7734468Y-10443508D01*
X7734468Y-10443508D02*
X7743991Y-10453031D01*
X7743991Y-10453031D02*
X7753515Y-10472079D01*
X7753515Y-10472079D02*
X7753515Y-10491127D01*
X7753515Y-10491127D02*
X7743991Y-10519698D01*
X7743991Y-10519698D02*
X7629706Y-10633984D01*
X7629706Y-10633984D02*
X7753515Y-10633984D01*
X7991610Y-10633984D02*
X7991610Y-10433984D01*
X8077325Y-10633984D02*
X8077325Y-10529222D01*
X8077325Y-10529222D02*
X8067801Y-10510174D01*
X8067801Y-10510174D02*
X8048753Y-10500650D01*
X8048753Y-10500650D02*
X8020182Y-10500650D01*
X8020182Y-10500650D02*
X8001134Y-10510174D01*
X8001134Y-10510174D02*
X7991610Y-10519698D01*
X8201134Y-10633984D02*
X8182087Y-10624460D01*
X8182087Y-10624460D02*
X8172563Y-10614936D01*
X8172563Y-10614936D02*
X8163039Y-10595889D01*
X8163039Y-10595889D02*
X8163039Y-10538746D01*
X8163039Y-10538746D02*
X8172563Y-10519698D01*
X8172563Y-10519698D02*
X8182087Y-10510174D01*
X8182087Y-10510174D02*
X8201134Y-10500650D01*
X8201134Y-10500650D02*
X8229706Y-10500650D01*
X8229706Y-10500650D02*
X8248753Y-10510174D01*
X8248753Y-10510174D02*
X8258277Y-10519698D01*
X8258277Y-10519698D02*
X8267801Y-10538746D01*
X8267801Y-10538746D02*
X8267801Y-10595889D01*
X8267801Y-10595889D02*
X8258277Y-10614936D01*
X8258277Y-10614936D02*
X8248753Y-10624460D01*
X8248753Y-10624460D02*
X8229706Y-10633984D01*
X8229706Y-10633984D02*
X8201134Y-10633984D01*
X8382087Y-10633984D02*
X8363039Y-10624460D01*
X8363039Y-10624460D02*
X8353515Y-10605412D01*
X8353515Y-10605412D02*
X8353515Y-10433984D01*
X8534468Y-10624460D02*
X8515420Y-10633984D01*
X8515420Y-10633984D02*
X8477325Y-10633984D01*
X8477325Y-10633984D02*
X8458277Y-10624460D01*
X8458277Y-10624460D02*
X8448753Y-10605412D01*
X8448753Y-10605412D02*
X8448753Y-10529222D01*
X8448753Y-10529222D02*
X8458277Y-10510174D01*
X8458277Y-10510174D02*
X8477325Y-10500650D01*
X8477325Y-10500650D02*
X8515420Y-10500650D01*
X8515420Y-10500650D02*
X8534468Y-10510174D01*
X8534468Y-10510174D02*
X8543992Y-10529222D01*
X8543992Y-10529222D02*
X8543992Y-10548270D01*
X8543992Y-10548270D02*
X8448753Y-10567317D01*
X8620182Y-10624460D02*
X8639230Y-10633984D01*
X8639230Y-10633984D02*
X8677325Y-10633984D01*
X8677325Y-10633984D02*
X8696373Y-10624460D01*
X8696373Y-10624460D02*
X8705896Y-10605412D01*
X8705896Y-10605412D02*
X8705896Y-10595889D01*
X8705896Y-10595889D02*
X8696373Y-10576841D01*
X8696373Y-10576841D02*
X8677325Y-10567317D01*
X8677325Y-10567317D02*
X8648753Y-10567317D01*
X8648753Y-10567317D02*
X8629706Y-10557793D01*
X8629706Y-10557793D02*
X8620182Y-10538746D01*
X8620182Y-10538746D02*
X8620182Y-10529222D01*
X8620182Y-10529222D02*
X8629706Y-10510174D01*
X8629706Y-10510174D02*
X8648753Y-10500650D01*
X8648753Y-10500650D02*
X8677325Y-10500650D01*
X8677325Y-10500650D02*
X8696373Y-10510174D01*
X8772563Y-10710174D02*
X8782087Y-10700650D01*
X8782087Y-10700650D02*
X8801134Y-10672079D01*
X8801134Y-10672079D02*
X8810658Y-10653031D01*
X8810658Y-10653031D02*
X8820182Y-10624460D01*
X8820182Y-10624460D02*
X8829706Y-10576841D01*
X8829706Y-10576841D02*
X8829706Y-10538746D01*
X8829706Y-10538746D02*
X8820182Y-10491127D01*
X8820182Y-10491127D02*
X8810658Y-10462555D01*
X8810658Y-10462555D02*
X8801134Y-10443508D01*
X8801134Y-10443508D02*
X8782087Y-10414936D01*
X8782087Y-10414936D02*
X8772563Y-10405412D01*
D10*
X3997500Y-10806500D02*
G75*
G02*
X3937500Y-10806500I-30000J0D01*
G01*
X3937500Y-10806500D02*
G75*
G02*
X3997500Y-10806500I30000J0D01*
G01*
D12*
X4296372Y-10697984D02*
X4315420Y-10697984D01*
X4315420Y-10697984D02*
X4334467Y-10707508D01*
X4334467Y-10707508D02*
X4343991Y-10717031D01*
X4343991Y-10717031D02*
X4353515Y-10736079D01*
X4353515Y-10736079D02*
X4363039Y-10774174D01*
X4363039Y-10774174D02*
X4363039Y-10821793D01*
X4363039Y-10821793D02*
X4353515Y-10859889D01*
X4353515Y-10859889D02*
X4343991Y-10878936D01*
X4343991Y-10878936D02*
X4334467Y-10888460D01*
X4334467Y-10888460D02*
X4315420Y-10897984D01*
X4315420Y-10897984D02*
X4296372Y-10897984D01*
X4296372Y-10897984D02*
X4277324Y-10888460D01*
X4277324Y-10888460D02*
X4267801Y-10878936D01*
X4267801Y-10878936D02*
X4258277Y-10859889D01*
X4258277Y-10859889D02*
X4248753Y-10821793D01*
X4248753Y-10821793D02*
X4248753Y-10774174D01*
X4248753Y-10774174D02*
X4258277Y-10736079D01*
X4258277Y-10736079D02*
X4267801Y-10717031D01*
X4267801Y-10717031D02*
X4277324Y-10707508D01*
X4277324Y-10707508D02*
X4296372Y-10697984D01*
X4448753Y-10878936D02*
X4458277Y-10888460D01*
X4458277Y-10888460D02*
X4448753Y-10897984D01*
X4448753Y-10897984D02*
X4439229Y-10888460D01*
X4439229Y-10888460D02*
X4448753Y-10878936D01*
X4448753Y-10878936D02*
X4448753Y-10897984D01*
X4629705Y-10697984D02*
X4591610Y-10697984D01*
X4591610Y-10697984D02*
X4572563Y-10707508D01*
X4572563Y-10707508D02*
X4563039Y-10717031D01*
X4563039Y-10717031D02*
X4543991Y-10745603D01*
X4543991Y-10745603D02*
X4534467Y-10783698D01*
X4534467Y-10783698D02*
X4534467Y-10859889D01*
X4534467Y-10859889D02*
X4543991Y-10878936D01*
X4543991Y-10878936D02*
X4553515Y-10888460D01*
X4553515Y-10888460D02*
X4572563Y-10897984D01*
X4572563Y-10897984D02*
X4610658Y-10897984D01*
X4610658Y-10897984D02*
X4629705Y-10888460D01*
X4629705Y-10888460D02*
X4639229Y-10878936D01*
X4639229Y-10878936D02*
X4648753Y-10859889D01*
X4648753Y-10859889D02*
X4648753Y-10812270D01*
X4648753Y-10812270D02*
X4639229Y-10793222D01*
X4639229Y-10793222D02*
X4629705Y-10783698D01*
X4629705Y-10783698D02*
X4610658Y-10774174D01*
X4610658Y-10774174D02*
X4572563Y-10774174D01*
X4572563Y-10774174D02*
X4553515Y-10783698D01*
X4553515Y-10783698D02*
X4543991Y-10793222D01*
X4543991Y-10793222D02*
X4534467Y-10812270D01*
X4772563Y-10697984D02*
X4791610Y-10697984D01*
X4791610Y-10697984D02*
X4810658Y-10707508D01*
X4810658Y-10707508D02*
X4820182Y-10717031D01*
X4820182Y-10717031D02*
X4829705Y-10736079D01*
X4829705Y-10736079D02*
X4839229Y-10774174D01*
X4839229Y-10774174D02*
X4839229Y-10821793D01*
X4839229Y-10821793D02*
X4829705Y-10859889D01*
X4829705Y-10859889D02*
X4820182Y-10878936D01*
X4820182Y-10878936D02*
X4810658Y-10888460D01*
X4810658Y-10888460D02*
X4791610Y-10897984D01*
X4791610Y-10897984D02*
X4772563Y-10897984D01*
X4772563Y-10897984D02*
X4753515Y-10888460D01*
X4753515Y-10888460D02*
X4743991Y-10878936D01*
X4743991Y-10878936D02*
X4734467Y-10859889D01*
X4734467Y-10859889D02*
X4724944Y-10821793D01*
X4724944Y-10821793D02*
X4724944Y-10774174D01*
X4724944Y-10774174D02*
X4734467Y-10736079D01*
X4734467Y-10736079D02*
X4743991Y-10717031D01*
X4743991Y-10717031D02*
X4753515Y-10707508D01*
X4753515Y-10707508D02*
X4772563Y-10697984D01*
X4963039Y-10697984D02*
X4982086Y-10697984D01*
X4982086Y-10697984D02*
X5001134Y-10707508D01*
X5001134Y-10707508D02*
X5010658Y-10717031D01*
X5010658Y-10717031D02*
X5020182Y-10736079D01*
X5020182Y-10736079D02*
X5029705Y-10774174D01*
X5029705Y-10774174D02*
X5029705Y-10821793D01*
X5029705Y-10821793D02*
X5020182Y-10859889D01*
X5020182Y-10859889D02*
X5010658Y-10878936D01*
X5010658Y-10878936D02*
X5001134Y-10888460D01*
X5001134Y-10888460D02*
X4982086Y-10897984D01*
X4982086Y-10897984D02*
X4963039Y-10897984D01*
X4963039Y-10897984D02*
X4943991Y-10888460D01*
X4943991Y-10888460D02*
X4934467Y-10878936D01*
X4934467Y-10878936D02*
X4924944Y-10859889D01*
X4924944Y-10859889D02*
X4915420Y-10821793D01*
X4915420Y-10821793D02*
X4915420Y-10774174D01*
X4915420Y-10774174D02*
X4924944Y-10736079D01*
X4924944Y-10736079D02*
X4934467Y-10717031D01*
X4934467Y-10717031D02*
X4943991Y-10707508D01*
X4943991Y-10707508D02*
X4963039Y-10697984D01*
X5115420Y-10897984D02*
X5115420Y-10764650D01*
X5115420Y-10783698D02*
X5124944Y-10774174D01*
X5124944Y-10774174D02*
X5143991Y-10764650D01*
X5143991Y-10764650D02*
X5172563Y-10764650D01*
X5172563Y-10764650D02*
X5191610Y-10774174D01*
X5191610Y-10774174D02*
X5201134Y-10793222D01*
X5201134Y-10793222D02*
X5201134Y-10897984D01*
X5201134Y-10793222D02*
X5210658Y-10774174D01*
X5210658Y-10774174D02*
X5229705Y-10764650D01*
X5229705Y-10764650D02*
X5258277Y-10764650D01*
X5258277Y-10764650D02*
X5277325Y-10774174D01*
X5277325Y-10774174D02*
X5286848Y-10793222D01*
X5286848Y-10793222D02*
X5286848Y-10897984D01*
X5382086Y-10897984D02*
X5382086Y-10764650D01*
X5382086Y-10783698D02*
X5391610Y-10774174D01*
X5391610Y-10774174D02*
X5410658Y-10764650D01*
X5410658Y-10764650D02*
X5439229Y-10764650D01*
X5439229Y-10764650D02*
X5458277Y-10774174D01*
X5458277Y-10774174D02*
X5467801Y-10793222D01*
X5467801Y-10793222D02*
X5467801Y-10897984D01*
X5467801Y-10793222D02*
X5477325Y-10774174D01*
X5477325Y-10774174D02*
X5496372Y-10764650D01*
X5496372Y-10764650D02*
X5524944Y-10764650D01*
X5524944Y-10764650D02*
X5543991Y-10774174D01*
X5543991Y-10774174D02*
X5553515Y-10793222D01*
X5553515Y-10793222D02*
X5553515Y-10897984D01*
X5943991Y-10688460D02*
X5772563Y-10945603D01*
X6201134Y-10697984D02*
X6220182Y-10697984D01*
X6220182Y-10697984D02*
X6239229Y-10707508D01*
X6239229Y-10707508D02*
X6248753Y-10717031D01*
X6248753Y-10717031D02*
X6258277Y-10736079D01*
X6258277Y-10736079D02*
X6267801Y-10774174D01*
X6267801Y-10774174D02*
X6267801Y-10821793D01*
X6267801Y-10821793D02*
X6258277Y-10859889D01*
X6258277Y-10859889D02*
X6248753Y-10878936D01*
X6248753Y-10878936D02*
X6239229Y-10888460D01*
X6239229Y-10888460D02*
X6220182Y-10897984D01*
X6220182Y-10897984D02*
X6201134Y-10897984D01*
X6201134Y-10897984D02*
X6182086Y-10888460D01*
X6182086Y-10888460D02*
X6172563Y-10878936D01*
X6172563Y-10878936D02*
X6163039Y-10859889D01*
X6163039Y-10859889D02*
X6153515Y-10821793D01*
X6153515Y-10821793D02*
X6153515Y-10774174D01*
X6153515Y-10774174D02*
X6163039Y-10736079D01*
X6163039Y-10736079D02*
X6172563Y-10717031D01*
X6172563Y-10717031D02*
X6182086Y-10707508D01*
X6182086Y-10707508D02*
X6201134Y-10697984D01*
X6353515Y-10878936D02*
X6363039Y-10888460D01*
X6363039Y-10888460D02*
X6353515Y-10897984D01*
X6353515Y-10897984D02*
X6343991Y-10888460D01*
X6343991Y-10888460D02*
X6353515Y-10878936D01*
X6353515Y-10878936D02*
X6353515Y-10897984D01*
X6486848Y-10697984D02*
X6505896Y-10697984D01*
X6505896Y-10697984D02*
X6524944Y-10707508D01*
X6524944Y-10707508D02*
X6534467Y-10717031D01*
X6534467Y-10717031D02*
X6543991Y-10736079D01*
X6543991Y-10736079D02*
X6553515Y-10774174D01*
X6553515Y-10774174D02*
X6553515Y-10821793D01*
X6553515Y-10821793D02*
X6543991Y-10859889D01*
X6543991Y-10859889D02*
X6534467Y-10878936D01*
X6534467Y-10878936D02*
X6524944Y-10888460D01*
X6524944Y-10888460D02*
X6505896Y-10897984D01*
X6505896Y-10897984D02*
X6486848Y-10897984D01*
X6486848Y-10897984D02*
X6467801Y-10888460D01*
X6467801Y-10888460D02*
X6458277Y-10878936D01*
X6458277Y-10878936D02*
X6448753Y-10859889D01*
X6448753Y-10859889D02*
X6439229Y-10821793D01*
X6439229Y-10821793D02*
X6439229Y-10774174D01*
X6439229Y-10774174D02*
X6448753Y-10736079D01*
X6448753Y-10736079D02*
X6458277Y-10717031D01*
X6458277Y-10717031D02*
X6467801Y-10707508D01*
X6467801Y-10707508D02*
X6486848Y-10697984D01*
X6629706Y-10717031D02*
X6639229Y-10707508D01*
X6639229Y-10707508D02*
X6658277Y-10697984D01*
X6658277Y-10697984D02*
X6705896Y-10697984D01*
X6705896Y-10697984D02*
X6724944Y-10707508D01*
X6724944Y-10707508D02*
X6734467Y-10717031D01*
X6734467Y-10717031D02*
X6743991Y-10736079D01*
X6743991Y-10736079D02*
X6743991Y-10755127D01*
X6743991Y-10755127D02*
X6734467Y-10783698D01*
X6734467Y-10783698D02*
X6620182Y-10897984D01*
X6620182Y-10897984D02*
X6743991Y-10897984D01*
X6810658Y-10697984D02*
X6934467Y-10697984D01*
X6934467Y-10697984D02*
X6867801Y-10774174D01*
X6867801Y-10774174D02*
X6896372Y-10774174D01*
X6896372Y-10774174D02*
X6915420Y-10783698D01*
X6915420Y-10783698D02*
X6924944Y-10793222D01*
X6924944Y-10793222D02*
X6934467Y-10812270D01*
X6934467Y-10812270D02*
X6934467Y-10859889D01*
X6934467Y-10859889D02*
X6924944Y-10878936D01*
X6924944Y-10878936D02*
X6915420Y-10888460D01*
X6915420Y-10888460D02*
X6896372Y-10897984D01*
X6896372Y-10897984D02*
X6839229Y-10897984D01*
X6839229Y-10897984D02*
X6820182Y-10888460D01*
X6820182Y-10888460D02*
X6810658Y-10878936D01*
X7105896Y-10697984D02*
X7067801Y-10697984D01*
X7067801Y-10697984D02*
X7048753Y-10707508D01*
X7048753Y-10707508D02*
X7039229Y-10717031D01*
X7039229Y-10717031D02*
X7020182Y-10745603D01*
X7020182Y-10745603D02*
X7010658Y-10783698D01*
X7010658Y-10783698D02*
X7010658Y-10859889D01*
X7010658Y-10859889D02*
X7020182Y-10878936D01*
X7020182Y-10878936D02*
X7029706Y-10888460D01*
X7029706Y-10888460D02*
X7048753Y-10897984D01*
X7048753Y-10897984D02*
X7086848Y-10897984D01*
X7086848Y-10897984D02*
X7105896Y-10888460D01*
X7105896Y-10888460D02*
X7115420Y-10878936D01*
X7115420Y-10878936D02*
X7124944Y-10859889D01*
X7124944Y-10859889D02*
X7124944Y-10812270D01*
X7124944Y-10812270D02*
X7115420Y-10793222D01*
X7115420Y-10793222D02*
X7105896Y-10783698D01*
X7105896Y-10783698D02*
X7086848Y-10774174D01*
X7086848Y-10774174D02*
X7048753Y-10774174D01*
X7048753Y-10774174D02*
X7029706Y-10783698D01*
X7029706Y-10783698D02*
X7020182Y-10793222D01*
X7020182Y-10793222D02*
X7010658Y-10812270D01*
X7201134Y-10697984D02*
X7201134Y-10736079D01*
X7277325Y-10697984D02*
X7277325Y-10736079D01*
X7572563Y-10974174D02*
X7563039Y-10964650D01*
X7563039Y-10964650D02*
X7543991Y-10936079D01*
X7543991Y-10936079D02*
X7534468Y-10917031D01*
X7534468Y-10917031D02*
X7524944Y-10888460D01*
X7524944Y-10888460D02*
X7515420Y-10840841D01*
X7515420Y-10840841D02*
X7515420Y-10802746D01*
X7515420Y-10802746D02*
X7524944Y-10755127D01*
X7524944Y-10755127D02*
X7534468Y-10726555D01*
X7534468Y-10726555D02*
X7543991Y-10707508D01*
X7543991Y-10707508D02*
X7563039Y-10678936D01*
X7563039Y-10678936D02*
X7572563Y-10669412D01*
X7639229Y-10717031D02*
X7648753Y-10707508D01*
X7648753Y-10707508D02*
X7667801Y-10697984D01*
X7667801Y-10697984D02*
X7715420Y-10697984D01*
X7715420Y-10697984D02*
X7734468Y-10707508D01*
X7734468Y-10707508D02*
X7743991Y-10717031D01*
X7743991Y-10717031D02*
X7753515Y-10736079D01*
X7753515Y-10736079D02*
X7753515Y-10755127D01*
X7753515Y-10755127D02*
X7743991Y-10783698D01*
X7743991Y-10783698D02*
X7629706Y-10897984D01*
X7629706Y-10897984D02*
X7753515Y-10897984D01*
X7991610Y-10897984D02*
X7991610Y-10697984D01*
X8077325Y-10897984D02*
X8077325Y-10793222D01*
X8077325Y-10793222D02*
X8067801Y-10774174D01*
X8067801Y-10774174D02*
X8048753Y-10764650D01*
X8048753Y-10764650D02*
X8020182Y-10764650D01*
X8020182Y-10764650D02*
X8001134Y-10774174D01*
X8001134Y-10774174D02*
X7991610Y-10783698D01*
X8201134Y-10897984D02*
X8182087Y-10888460D01*
X8182087Y-10888460D02*
X8172563Y-10878936D01*
X8172563Y-10878936D02*
X8163039Y-10859889D01*
X8163039Y-10859889D02*
X8163039Y-10802746D01*
X8163039Y-10802746D02*
X8172563Y-10783698D01*
X8172563Y-10783698D02*
X8182087Y-10774174D01*
X8182087Y-10774174D02*
X8201134Y-10764650D01*
X8201134Y-10764650D02*
X8229706Y-10764650D01*
X8229706Y-10764650D02*
X8248753Y-10774174D01*
X8248753Y-10774174D02*
X8258277Y-10783698D01*
X8258277Y-10783698D02*
X8267801Y-10802746D01*
X8267801Y-10802746D02*
X8267801Y-10859889D01*
X8267801Y-10859889D02*
X8258277Y-10878936D01*
X8258277Y-10878936D02*
X8248753Y-10888460D01*
X8248753Y-10888460D02*
X8229706Y-10897984D01*
X8229706Y-10897984D02*
X8201134Y-10897984D01*
X8382087Y-10897984D02*
X8363039Y-10888460D01*
X8363039Y-10888460D02*
X8353515Y-10869412D01*
X8353515Y-10869412D02*
X8353515Y-10697984D01*
X8534468Y-10888460D02*
X8515420Y-10897984D01*
X8515420Y-10897984D02*
X8477325Y-10897984D01*
X8477325Y-10897984D02*
X8458277Y-10888460D01*
X8458277Y-10888460D02*
X8448753Y-10869412D01*
X8448753Y-10869412D02*
X8448753Y-10793222D01*
X8448753Y-10793222D02*
X8458277Y-10774174D01*
X8458277Y-10774174D02*
X8477325Y-10764650D01*
X8477325Y-10764650D02*
X8515420Y-10764650D01*
X8515420Y-10764650D02*
X8534468Y-10774174D01*
X8534468Y-10774174D02*
X8543992Y-10793222D01*
X8543992Y-10793222D02*
X8543992Y-10812270D01*
X8543992Y-10812270D02*
X8448753Y-10831317D01*
X8620182Y-10888460D02*
X8639230Y-10897984D01*
X8639230Y-10897984D02*
X8677325Y-10897984D01*
X8677325Y-10897984D02*
X8696373Y-10888460D01*
X8696373Y-10888460D02*
X8705896Y-10869412D01*
X8705896Y-10869412D02*
X8705896Y-10859889D01*
X8705896Y-10859889D02*
X8696373Y-10840841D01*
X8696373Y-10840841D02*
X8677325Y-10831317D01*
X8677325Y-10831317D02*
X8648753Y-10831317D01*
X8648753Y-10831317D02*
X8629706Y-10821793D01*
X8629706Y-10821793D02*
X8620182Y-10802746D01*
X8620182Y-10802746D02*
X8620182Y-10793222D01*
X8620182Y-10793222D02*
X8629706Y-10774174D01*
X8629706Y-10774174D02*
X8648753Y-10764650D01*
X8648753Y-10764650D02*
X8677325Y-10764650D01*
X8677325Y-10764650D02*
X8696373Y-10774174D01*
X8772563Y-10974174D02*
X8782087Y-10964650D01*
X8782087Y-10964650D02*
X8801134Y-10936079D01*
X8801134Y-10936079D02*
X8810658Y-10917031D01*
X8810658Y-10917031D02*
X8820182Y-10888460D01*
X8820182Y-10888460D02*
X8829706Y-10840841D01*
X8829706Y-10840841D02*
X8829706Y-10802746D01*
X8829706Y-10802746D02*
X8820182Y-10755127D01*
X8820182Y-10755127D02*
X8810658Y-10726555D01*
X8810658Y-10726555D02*
X8801134Y-10707508D01*
X8801134Y-10707508D02*
X8782087Y-10678936D01*
X8782087Y-10678936D02*
X8772563Y-10669412D01*
D10*
X3959400Y-11032400D02*
X3959400Y-11108600D01*
X3921300Y-11070500D02*
X3997500Y-11070500D01*
D12*
X4296372Y-10961984D02*
X4315420Y-10961984D01*
X4315420Y-10961984D02*
X4334467Y-10971508D01*
X4334467Y-10971508D02*
X4343991Y-10981031D01*
X4343991Y-10981031D02*
X4353515Y-11000079D01*
X4353515Y-11000079D02*
X4363039Y-11038174D01*
X4363039Y-11038174D02*
X4363039Y-11085793D01*
X4363039Y-11085793D02*
X4353515Y-11123889D01*
X4353515Y-11123889D02*
X4343991Y-11142936D01*
X4343991Y-11142936D02*
X4334467Y-11152460D01*
X4334467Y-11152460D02*
X4315420Y-11161984D01*
X4315420Y-11161984D02*
X4296372Y-11161984D01*
X4296372Y-11161984D02*
X4277324Y-11152460D01*
X4277324Y-11152460D02*
X4267801Y-11142936D01*
X4267801Y-11142936D02*
X4258277Y-11123889D01*
X4258277Y-11123889D02*
X4248753Y-11085793D01*
X4248753Y-11085793D02*
X4248753Y-11038174D01*
X4248753Y-11038174D02*
X4258277Y-11000079D01*
X4258277Y-11000079D02*
X4267801Y-10981031D01*
X4267801Y-10981031D02*
X4277324Y-10971508D01*
X4277324Y-10971508D02*
X4296372Y-10961984D01*
X4448753Y-11142936D02*
X4458277Y-11152460D01*
X4458277Y-11152460D02*
X4448753Y-11161984D01*
X4448753Y-11161984D02*
X4439229Y-11152460D01*
X4439229Y-11152460D02*
X4448753Y-11142936D01*
X4448753Y-11142936D02*
X4448753Y-11161984D01*
X4524944Y-10961984D02*
X4658277Y-10961984D01*
X4658277Y-10961984D02*
X4572563Y-11161984D01*
X4820182Y-10961984D02*
X4782086Y-10961984D01*
X4782086Y-10961984D02*
X4763039Y-10971508D01*
X4763039Y-10971508D02*
X4753515Y-10981031D01*
X4753515Y-10981031D02*
X4734467Y-11009603D01*
X4734467Y-11009603D02*
X4724944Y-11047698D01*
X4724944Y-11047698D02*
X4724944Y-11123889D01*
X4724944Y-11123889D02*
X4734467Y-11142936D01*
X4734467Y-11142936D02*
X4743991Y-11152460D01*
X4743991Y-11152460D02*
X4763039Y-11161984D01*
X4763039Y-11161984D02*
X4801134Y-11161984D01*
X4801134Y-11161984D02*
X4820182Y-11152460D01*
X4820182Y-11152460D02*
X4829705Y-11142936D01*
X4829705Y-11142936D02*
X4839229Y-11123889D01*
X4839229Y-11123889D02*
X4839229Y-11076270D01*
X4839229Y-11076270D02*
X4829705Y-11057222D01*
X4829705Y-11057222D02*
X4820182Y-11047698D01*
X4820182Y-11047698D02*
X4801134Y-11038174D01*
X4801134Y-11038174D02*
X4763039Y-11038174D01*
X4763039Y-11038174D02*
X4743991Y-11047698D01*
X4743991Y-11047698D02*
X4734467Y-11057222D01*
X4734467Y-11057222D02*
X4724944Y-11076270D01*
X4915420Y-10981031D02*
X4924944Y-10971508D01*
X4924944Y-10971508D02*
X4943991Y-10961984D01*
X4943991Y-10961984D02*
X4991610Y-10961984D01*
X4991610Y-10961984D02*
X5010658Y-10971508D01*
X5010658Y-10971508D02*
X5020182Y-10981031D01*
X5020182Y-10981031D02*
X5029705Y-11000079D01*
X5029705Y-11000079D02*
X5029705Y-11019127D01*
X5029705Y-11019127D02*
X5020182Y-11047698D01*
X5020182Y-11047698D02*
X4905896Y-11161984D01*
X4905896Y-11161984D02*
X5029705Y-11161984D01*
X5115420Y-11161984D02*
X5115420Y-11028650D01*
X5115420Y-11047698D02*
X5124944Y-11038174D01*
X5124944Y-11038174D02*
X5143991Y-11028650D01*
X5143991Y-11028650D02*
X5172563Y-11028650D01*
X5172563Y-11028650D02*
X5191610Y-11038174D01*
X5191610Y-11038174D02*
X5201134Y-11057222D01*
X5201134Y-11057222D02*
X5201134Y-11161984D01*
X5201134Y-11057222D02*
X5210658Y-11038174D01*
X5210658Y-11038174D02*
X5229705Y-11028650D01*
X5229705Y-11028650D02*
X5258277Y-11028650D01*
X5258277Y-11028650D02*
X5277325Y-11038174D01*
X5277325Y-11038174D02*
X5286848Y-11057222D01*
X5286848Y-11057222D02*
X5286848Y-11161984D01*
X5382086Y-11161984D02*
X5382086Y-11028650D01*
X5382086Y-11047698D02*
X5391610Y-11038174D01*
X5391610Y-11038174D02*
X5410658Y-11028650D01*
X5410658Y-11028650D02*
X5439229Y-11028650D01*
X5439229Y-11028650D02*
X5458277Y-11038174D01*
X5458277Y-11038174D02*
X5467801Y-11057222D01*
X5467801Y-11057222D02*
X5467801Y-11161984D01*
X5467801Y-11057222D02*
X5477325Y-11038174D01*
X5477325Y-11038174D02*
X5496372Y-11028650D01*
X5496372Y-11028650D02*
X5524944Y-11028650D01*
X5524944Y-11028650D02*
X5543991Y-11038174D01*
X5543991Y-11038174D02*
X5553515Y-11057222D01*
X5553515Y-11057222D02*
X5553515Y-11161984D01*
X5943991Y-10952460D02*
X5772563Y-11209603D01*
X6201134Y-10961984D02*
X6220182Y-10961984D01*
X6220182Y-10961984D02*
X6239229Y-10971508D01*
X6239229Y-10971508D02*
X6248753Y-10981031D01*
X6248753Y-10981031D02*
X6258277Y-11000079D01*
X6258277Y-11000079D02*
X6267801Y-11038174D01*
X6267801Y-11038174D02*
X6267801Y-11085793D01*
X6267801Y-11085793D02*
X6258277Y-11123889D01*
X6258277Y-11123889D02*
X6248753Y-11142936D01*
X6248753Y-11142936D02*
X6239229Y-11152460D01*
X6239229Y-11152460D02*
X6220182Y-11161984D01*
X6220182Y-11161984D02*
X6201134Y-11161984D01*
X6201134Y-11161984D02*
X6182086Y-11152460D01*
X6182086Y-11152460D02*
X6172563Y-11142936D01*
X6172563Y-11142936D02*
X6163039Y-11123889D01*
X6163039Y-11123889D02*
X6153515Y-11085793D01*
X6153515Y-11085793D02*
X6153515Y-11038174D01*
X6153515Y-11038174D02*
X6163039Y-11000079D01*
X6163039Y-11000079D02*
X6172563Y-10981031D01*
X6172563Y-10981031D02*
X6182086Y-10971508D01*
X6182086Y-10971508D02*
X6201134Y-10961984D01*
X6353515Y-11142936D02*
X6363039Y-11152460D01*
X6363039Y-11152460D02*
X6353515Y-11161984D01*
X6353515Y-11161984D02*
X6343991Y-11152460D01*
X6343991Y-11152460D02*
X6353515Y-11142936D01*
X6353515Y-11142936D02*
X6353515Y-11161984D01*
X6486848Y-10961984D02*
X6505896Y-10961984D01*
X6505896Y-10961984D02*
X6524944Y-10971508D01*
X6524944Y-10971508D02*
X6534467Y-10981031D01*
X6534467Y-10981031D02*
X6543991Y-11000079D01*
X6543991Y-11000079D02*
X6553515Y-11038174D01*
X6553515Y-11038174D02*
X6553515Y-11085793D01*
X6553515Y-11085793D02*
X6543991Y-11123889D01*
X6543991Y-11123889D02*
X6534467Y-11142936D01*
X6534467Y-11142936D02*
X6524944Y-11152460D01*
X6524944Y-11152460D02*
X6505896Y-11161984D01*
X6505896Y-11161984D02*
X6486848Y-11161984D01*
X6486848Y-11161984D02*
X6467801Y-11152460D01*
X6467801Y-11152460D02*
X6458277Y-11142936D01*
X6458277Y-11142936D02*
X6448753Y-11123889D01*
X6448753Y-11123889D02*
X6439229Y-11085793D01*
X6439229Y-11085793D02*
X6439229Y-11038174D01*
X6439229Y-11038174D02*
X6448753Y-11000079D01*
X6448753Y-11000079D02*
X6458277Y-10981031D01*
X6458277Y-10981031D02*
X6467801Y-10971508D01*
X6467801Y-10971508D02*
X6486848Y-10961984D01*
X6620182Y-10961984D02*
X6743991Y-10961984D01*
X6743991Y-10961984D02*
X6677325Y-11038174D01*
X6677325Y-11038174D02*
X6705896Y-11038174D01*
X6705896Y-11038174D02*
X6724944Y-11047698D01*
X6724944Y-11047698D02*
X6734467Y-11057222D01*
X6734467Y-11057222D02*
X6743991Y-11076270D01*
X6743991Y-11076270D02*
X6743991Y-11123889D01*
X6743991Y-11123889D02*
X6734467Y-11142936D01*
X6734467Y-11142936D02*
X6724944Y-11152460D01*
X6724944Y-11152460D02*
X6705896Y-11161984D01*
X6705896Y-11161984D02*
X6648753Y-11161984D01*
X6648753Y-11161984D02*
X6629706Y-11152460D01*
X6629706Y-11152460D02*
X6620182Y-11142936D01*
X6867801Y-10961984D02*
X6886848Y-10961984D01*
X6886848Y-10961984D02*
X6905896Y-10971508D01*
X6905896Y-10971508D02*
X6915420Y-10981031D01*
X6915420Y-10981031D02*
X6924944Y-11000079D01*
X6924944Y-11000079D02*
X6934467Y-11038174D01*
X6934467Y-11038174D02*
X6934467Y-11085793D01*
X6934467Y-11085793D02*
X6924944Y-11123889D01*
X6924944Y-11123889D02*
X6915420Y-11142936D01*
X6915420Y-11142936D02*
X6905896Y-11152460D01*
X6905896Y-11152460D02*
X6886848Y-11161984D01*
X6886848Y-11161984D02*
X6867801Y-11161984D01*
X6867801Y-11161984D02*
X6848753Y-11152460D01*
X6848753Y-11152460D02*
X6839229Y-11142936D01*
X6839229Y-11142936D02*
X6829706Y-11123889D01*
X6829706Y-11123889D02*
X6820182Y-11085793D01*
X6820182Y-11085793D02*
X6820182Y-11038174D01*
X6820182Y-11038174D02*
X6829706Y-11000079D01*
X6829706Y-11000079D02*
X6839229Y-10981031D01*
X6839229Y-10981031D02*
X6848753Y-10971508D01*
X6848753Y-10971508D02*
X6867801Y-10961984D01*
X7058277Y-10961984D02*
X7077325Y-10961984D01*
X7077325Y-10961984D02*
X7096372Y-10971508D01*
X7096372Y-10971508D02*
X7105896Y-10981031D01*
X7105896Y-10981031D02*
X7115420Y-11000079D01*
X7115420Y-11000079D02*
X7124944Y-11038174D01*
X7124944Y-11038174D02*
X7124944Y-11085793D01*
X7124944Y-11085793D02*
X7115420Y-11123889D01*
X7115420Y-11123889D02*
X7105896Y-11142936D01*
X7105896Y-11142936D02*
X7096372Y-11152460D01*
X7096372Y-11152460D02*
X7077325Y-11161984D01*
X7077325Y-11161984D02*
X7058277Y-11161984D01*
X7058277Y-11161984D02*
X7039229Y-11152460D01*
X7039229Y-11152460D02*
X7029706Y-11142936D01*
X7029706Y-11142936D02*
X7020182Y-11123889D01*
X7020182Y-11123889D02*
X7010658Y-11085793D01*
X7010658Y-11085793D02*
X7010658Y-11038174D01*
X7010658Y-11038174D02*
X7020182Y-11000079D01*
X7020182Y-11000079D02*
X7029706Y-10981031D01*
X7029706Y-10981031D02*
X7039229Y-10971508D01*
X7039229Y-10971508D02*
X7058277Y-10961984D01*
X7201134Y-10961984D02*
X7201134Y-11000079D01*
X7277325Y-10961984D02*
X7277325Y-11000079D01*
X7572563Y-11238174D02*
X7563039Y-11228650D01*
X7563039Y-11228650D02*
X7543991Y-11200079D01*
X7543991Y-11200079D02*
X7534468Y-11181031D01*
X7534468Y-11181031D02*
X7524944Y-11152460D01*
X7524944Y-11152460D02*
X7515420Y-11104841D01*
X7515420Y-11104841D02*
X7515420Y-11066746D01*
X7515420Y-11066746D02*
X7524944Y-11019127D01*
X7524944Y-11019127D02*
X7534468Y-10990555D01*
X7534468Y-10990555D02*
X7543991Y-10971508D01*
X7543991Y-10971508D02*
X7563039Y-10942936D01*
X7563039Y-10942936D02*
X7572563Y-10933412D01*
X7753515Y-11161984D02*
X7639229Y-11161984D01*
X7696372Y-11161984D02*
X7696372Y-10961984D01*
X7696372Y-10961984D02*
X7677325Y-10990555D01*
X7677325Y-10990555D02*
X7658277Y-11009603D01*
X7658277Y-11009603D02*
X7639229Y-11019127D01*
X7829706Y-10981031D02*
X7839229Y-10971508D01*
X7839229Y-10971508D02*
X7858277Y-10961984D01*
X7858277Y-10961984D02*
X7905896Y-10961984D01*
X7905896Y-10961984D02*
X7924944Y-10971508D01*
X7924944Y-10971508D02*
X7934468Y-10981031D01*
X7934468Y-10981031D02*
X7943991Y-11000079D01*
X7943991Y-11000079D02*
X7943991Y-11019127D01*
X7943991Y-11019127D02*
X7934468Y-11047698D01*
X7934468Y-11047698D02*
X7820182Y-11161984D01*
X7820182Y-11161984D02*
X7943991Y-11161984D01*
X8182087Y-11161984D02*
X8182087Y-10961984D01*
X8267801Y-11161984D02*
X8267801Y-11057222D01*
X8267801Y-11057222D02*
X8258277Y-11038174D01*
X8258277Y-11038174D02*
X8239230Y-11028650D01*
X8239230Y-11028650D02*
X8210658Y-11028650D01*
X8210658Y-11028650D02*
X8191610Y-11038174D01*
X8191610Y-11038174D02*
X8182087Y-11047698D01*
X8391611Y-11161984D02*
X8372563Y-11152460D01*
X8372563Y-11152460D02*
X8363039Y-11142936D01*
X8363039Y-11142936D02*
X8353515Y-11123889D01*
X8353515Y-11123889D02*
X8353515Y-11066746D01*
X8353515Y-11066746D02*
X8363039Y-11047698D01*
X8363039Y-11047698D02*
X8372563Y-11038174D01*
X8372563Y-11038174D02*
X8391611Y-11028650D01*
X8391611Y-11028650D02*
X8420182Y-11028650D01*
X8420182Y-11028650D02*
X8439230Y-11038174D01*
X8439230Y-11038174D02*
X8448753Y-11047698D01*
X8448753Y-11047698D02*
X8458277Y-11066746D01*
X8458277Y-11066746D02*
X8458277Y-11123889D01*
X8458277Y-11123889D02*
X8448753Y-11142936D01*
X8448753Y-11142936D02*
X8439230Y-11152460D01*
X8439230Y-11152460D02*
X8420182Y-11161984D01*
X8420182Y-11161984D02*
X8391611Y-11161984D01*
X8572563Y-11161984D02*
X8553515Y-11152460D01*
X8553515Y-11152460D02*
X8543992Y-11133412D01*
X8543992Y-11133412D02*
X8543992Y-10961984D01*
X8724944Y-11152460D02*
X8705896Y-11161984D01*
X8705896Y-11161984D02*
X8667801Y-11161984D01*
X8667801Y-11161984D02*
X8648753Y-11152460D01*
X8648753Y-11152460D02*
X8639230Y-11133412D01*
X8639230Y-11133412D02*
X8639230Y-11057222D01*
X8639230Y-11057222D02*
X8648753Y-11038174D01*
X8648753Y-11038174D02*
X8667801Y-11028650D01*
X8667801Y-11028650D02*
X8705896Y-11028650D01*
X8705896Y-11028650D02*
X8724944Y-11038174D01*
X8724944Y-11038174D02*
X8734468Y-11057222D01*
X8734468Y-11057222D02*
X8734468Y-11076270D01*
X8734468Y-11076270D02*
X8639230Y-11095317D01*
X8810658Y-11152460D02*
X8829706Y-11161984D01*
X8829706Y-11161984D02*
X8867801Y-11161984D01*
X8867801Y-11161984D02*
X8886849Y-11152460D01*
X8886849Y-11152460D02*
X8896373Y-11133412D01*
X8896373Y-11133412D02*
X8896373Y-11123889D01*
X8896373Y-11123889D02*
X8886849Y-11104841D01*
X8886849Y-11104841D02*
X8867801Y-11095317D01*
X8867801Y-11095317D02*
X8839230Y-11095317D01*
X8839230Y-11095317D02*
X8820182Y-11085793D01*
X8820182Y-11085793D02*
X8810658Y-11066746D01*
X8810658Y-11066746D02*
X8810658Y-11057222D01*
X8810658Y-11057222D02*
X8820182Y-11038174D01*
X8820182Y-11038174D02*
X8839230Y-11028650D01*
X8839230Y-11028650D02*
X8867801Y-11028650D01*
X8867801Y-11028650D02*
X8886849Y-11038174D01*
X8963039Y-11238174D02*
X8972563Y-11228650D01*
X8972563Y-11228650D02*
X8991611Y-11200079D01*
X8991611Y-11200079D02*
X9001134Y-11181031D01*
X9001134Y-11181031D02*
X9010658Y-11152460D01*
X9010658Y-11152460D02*
X9020182Y-11104841D01*
X9020182Y-11104841D02*
X9020182Y-11066746D01*
X9020182Y-11066746D02*
X9010658Y-11019127D01*
X9010658Y-11019127D02*
X9001134Y-10990555D01*
X9001134Y-10990555D02*
X8991611Y-10971508D01*
X8991611Y-10971508D02*
X8972563Y-10942936D01*
X8972563Y-10942936D02*
X8963039Y-10933412D01*
D10*
X3983588Y-11368088D02*
X3983588Y-11300912D01*
X3916412Y-11300912D01*
X3916412Y-11368088D01*
X3983588Y-11368088D01*
D12*
X4296372Y-11225984D02*
X4315420Y-11225984D01*
X4315420Y-11225984D02*
X4334467Y-11235508D01*
X4334467Y-11235508D02*
X4343991Y-11245031D01*
X4343991Y-11245031D02*
X4353515Y-11264079D01*
X4353515Y-11264079D02*
X4363039Y-11302174D01*
X4363039Y-11302174D02*
X4363039Y-11349793D01*
X4363039Y-11349793D02*
X4353515Y-11387888D01*
X4353515Y-11387888D02*
X4343991Y-11406936D01*
X4343991Y-11406936D02*
X4334467Y-11416460D01*
X4334467Y-11416460D02*
X4315420Y-11425984D01*
X4315420Y-11425984D02*
X4296372Y-11425984D01*
X4296372Y-11425984D02*
X4277324Y-11416460D01*
X4277324Y-11416460D02*
X4267801Y-11406936D01*
X4267801Y-11406936D02*
X4258277Y-11387888D01*
X4258277Y-11387888D02*
X4248753Y-11349793D01*
X4248753Y-11349793D02*
X4248753Y-11302174D01*
X4248753Y-11302174D02*
X4258277Y-11264079D01*
X4258277Y-11264079D02*
X4267801Y-11245031D01*
X4267801Y-11245031D02*
X4277324Y-11235508D01*
X4277324Y-11235508D02*
X4296372Y-11225984D01*
X4448753Y-11406936D02*
X4458277Y-11416460D01*
X4458277Y-11416460D02*
X4448753Y-11425984D01*
X4448753Y-11425984D02*
X4439229Y-11416460D01*
X4439229Y-11416460D02*
X4448753Y-11406936D01*
X4448753Y-11406936D02*
X4448753Y-11425984D01*
X4553515Y-11425984D02*
X4591610Y-11425984D01*
X4591610Y-11425984D02*
X4610658Y-11416460D01*
X4610658Y-11416460D02*
X4620182Y-11406936D01*
X4620182Y-11406936D02*
X4639229Y-11378365D01*
X4639229Y-11378365D02*
X4648753Y-11340269D01*
X4648753Y-11340269D02*
X4648753Y-11264079D01*
X4648753Y-11264079D02*
X4639229Y-11245031D01*
X4639229Y-11245031D02*
X4629705Y-11235508D01*
X4629705Y-11235508D02*
X4610658Y-11225984D01*
X4610658Y-11225984D02*
X4572563Y-11225984D01*
X4572563Y-11225984D02*
X4553515Y-11235508D01*
X4553515Y-11235508D02*
X4543991Y-11245031D01*
X4543991Y-11245031D02*
X4534467Y-11264079D01*
X4534467Y-11264079D02*
X4534467Y-11311698D01*
X4534467Y-11311698D02*
X4543991Y-11330746D01*
X4543991Y-11330746D02*
X4553515Y-11340269D01*
X4553515Y-11340269D02*
X4572563Y-11349793D01*
X4572563Y-11349793D02*
X4610658Y-11349793D01*
X4610658Y-11349793D02*
X4629705Y-11340269D01*
X4629705Y-11340269D02*
X4639229Y-11330746D01*
X4639229Y-11330746D02*
X4648753Y-11311698D01*
X4829705Y-11225984D02*
X4734467Y-11225984D01*
X4734467Y-11225984D02*
X4724944Y-11321222D01*
X4724944Y-11321222D02*
X4734467Y-11311698D01*
X4734467Y-11311698D02*
X4753515Y-11302174D01*
X4753515Y-11302174D02*
X4801134Y-11302174D01*
X4801134Y-11302174D02*
X4820182Y-11311698D01*
X4820182Y-11311698D02*
X4829705Y-11321222D01*
X4829705Y-11321222D02*
X4839229Y-11340269D01*
X4839229Y-11340269D02*
X4839229Y-11387888D01*
X4839229Y-11387888D02*
X4829705Y-11406936D01*
X4829705Y-11406936D02*
X4820182Y-11416460D01*
X4820182Y-11416460D02*
X4801134Y-11425984D01*
X4801134Y-11425984D02*
X4753515Y-11425984D01*
X4753515Y-11425984D02*
X4734467Y-11416460D01*
X4734467Y-11416460D02*
X4724944Y-11406936D01*
X4963039Y-11225984D02*
X4982086Y-11225984D01*
X4982086Y-11225984D02*
X5001134Y-11235508D01*
X5001134Y-11235508D02*
X5010658Y-11245031D01*
X5010658Y-11245031D02*
X5020182Y-11264079D01*
X5020182Y-11264079D02*
X5029705Y-11302174D01*
X5029705Y-11302174D02*
X5029705Y-11349793D01*
X5029705Y-11349793D02*
X5020182Y-11387888D01*
X5020182Y-11387888D02*
X5010658Y-11406936D01*
X5010658Y-11406936D02*
X5001134Y-11416460D01*
X5001134Y-11416460D02*
X4982086Y-11425984D01*
X4982086Y-11425984D02*
X4963039Y-11425984D01*
X4963039Y-11425984D02*
X4943991Y-11416460D01*
X4943991Y-11416460D02*
X4934467Y-11406936D01*
X4934467Y-11406936D02*
X4924944Y-11387888D01*
X4924944Y-11387888D02*
X4915420Y-11349793D01*
X4915420Y-11349793D02*
X4915420Y-11302174D01*
X4915420Y-11302174D02*
X4924944Y-11264079D01*
X4924944Y-11264079D02*
X4934467Y-11245031D01*
X4934467Y-11245031D02*
X4943991Y-11235508D01*
X4943991Y-11235508D02*
X4963039Y-11225984D01*
X5115420Y-11425984D02*
X5115420Y-11292650D01*
X5115420Y-11311698D02*
X5124944Y-11302174D01*
X5124944Y-11302174D02*
X5143991Y-11292650D01*
X5143991Y-11292650D02*
X5172563Y-11292650D01*
X5172563Y-11292650D02*
X5191610Y-11302174D01*
X5191610Y-11302174D02*
X5201134Y-11321222D01*
X5201134Y-11321222D02*
X5201134Y-11425984D01*
X5201134Y-11321222D02*
X5210658Y-11302174D01*
X5210658Y-11302174D02*
X5229705Y-11292650D01*
X5229705Y-11292650D02*
X5258277Y-11292650D01*
X5258277Y-11292650D02*
X5277325Y-11302174D01*
X5277325Y-11302174D02*
X5286848Y-11321222D01*
X5286848Y-11321222D02*
X5286848Y-11425984D01*
X5382086Y-11425984D02*
X5382086Y-11292650D01*
X5382086Y-11311698D02*
X5391610Y-11302174D01*
X5391610Y-11302174D02*
X5410658Y-11292650D01*
X5410658Y-11292650D02*
X5439229Y-11292650D01*
X5439229Y-11292650D02*
X5458277Y-11302174D01*
X5458277Y-11302174D02*
X5467801Y-11321222D01*
X5467801Y-11321222D02*
X5467801Y-11425984D01*
X5467801Y-11321222D02*
X5477325Y-11302174D01*
X5477325Y-11302174D02*
X5496372Y-11292650D01*
X5496372Y-11292650D02*
X5524944Y-11292650D01*
X5524944Y-11292650D02*
X5543991Y-11302174D01*
X5543991Y-11302174D02*
X5553515Y-11321222D01*
X5553515Y-11321222D02*
X5553515Y-11425984D01*
X5943991Y-11216460D02*
X5772563Y-11473603D01*
X6201134Y-11225984D02*
X6220182Y-11225984D01*
X6220182Y-11225984D02*
X6239229Y-11235508D01*
X6239229Y-11235508D02*
X6248753Y-11245031D01*
X6248753Y-11245031D02*
X6258277Y-11264079D01*
X6258277Y-11264079D02*
X6267801Y-11302174D01*
X6267801Y-11302174D02*
X6267801Y-11349793D01*
X6267801Y-11349793D02*
X6258277Y-11387888D01*
X6258277Y-11387888D02*
X6248753Y-11406936D01*
X6248753Y-11406936D02*
X6239229Y-11416460D01*
X6239229Y-11416460D02*
X6220182Y-11425984D01*
X6220182Y-11425984D02*
X6201134Y-11425984D01*
X6201134Y-11425984D02*
X6182086Y-11416460D01*
X6182086Y-11416460D02*
X6172563Y-11406936D01*
X6172563Y-11406936D02*
X6163039Y-11387888D01*
X6163039Y-11387888D02*
X6153515Y-11349793D01*
X6153515Y-11349793D02*
X6153515Y-11302174D01*
X6153515Y-11302174D02*
X6163039Y-11264079D01*
X6163039Y-11264079D02*
X6172563Y-11245031D01*
X6172563Y-11245031D02*
X6182086Y-11235508D01*
X6182086Y-11235508D02*
X6201134Y-11225984D01*
X6353515Y-11406936D02*
X6363039Y-11416460D01*
X6363039Y-11416460D02*
X6353515Y-11425984D01*
X6353515Y-11425984D02*
X6343991Y-11416460D01*
X6343991Y-11416460D02*
X6353515Y-11406936D01*
X6353515Y-11406936D02*
X6353515Y-11425984D01*
X6486848Y-11225984D02*
X6505896Y-11225984D01*
X6505896Y-11225984D02*
X6524944Y-11235508D01*
X6524944Y-11235508D02*
X6534467Y-11245031D01*
X6534467Y-11245031D02*
X6543991Y-11264079D01*
X6543991Y-11264079D02*
X6553515Y-11302174D01*
X6553515Y-11302174D02*
X6553515Y-11349793D01*
X6553515Y-11349793D02*
X6543991Y-11387888D01*
X6543991Y-11387888D02*
X6534467Y-11406936D01*
X6534467Y-11406936D02*
X6524944Y-11416460D01*
X6524944Y-11416460D02*
X6505896Y-11425984D01*
X6505896Y-11425984D02*
X6486848Y-11425984D01*
X6486848Y-11425984D02*
X6467801Y-11416460D01*
X6467801Y-11416460D02*
X6458277Y-11406936D01*
X6458277Y-11406936D02*
X6448753Y-11387888D01*
X6448753Y-11387888D02*
X6439229Y-11349793D01*
X6439229Y-11349793D02*
X6439229Y-11302174D01*
X6439229Y-11302174D02*
X6448753Y-11264079D01*
X6448753Y-11264079D02*
X6458277Y-11245031D01*
X6458277Y-11245031D02*
X6467801Y-11235508D01*
X6467801Y-11235508D02*
X6486848Y-11225984D01*
X6620182Y-11225984D02*
X6743991Y-11225984D01*
X6743991Y-11225984D02*
X6677325Y-11302174D01*
X6677325Y-11302174D02*
X6705896Y-11302174D01*
X6705896Y-11302174D02*
X6724944Y-11311698D01*
X6724944Y-11311698D02*
X6734467Y-11321222D01*
X6734467Y-11321222D02*
X6743991Y-11340269D01*
X6743991Y-11340269D02*
X6743991Y-11387888D01*
X6743991Y-11387888D02*
X6734467Y-11406936D01*
X6734467Y-11406936D02*
X6724944Y-11416460D01*
X6724944Y-11416460D02*
X6705896Y-11425984D01*
X6705896Y-11425984D02*
X6648753Y-11425984D01*
X6648753Y-11425984D02*
X6629706Y-11416460D01*
X6629706Y-11416460D02*
X6620182Y-11406936D01*
X6810658Y-11225984D02*
X6943991Y-11225984D01*
X6943991Y-11225984D02*
X6858277Y-11425984D01*
X7105896Y-11292650D02*
X7105896Y-11425984D01*
X7058277Y-11216460D02*
X7010658Y-11359317D01*
X7010658Y-11359317D02*
X7134467Y-11359317D01*
X7201134Y-11225984D02*
X7201134Y-11264079D01*
X7277325Y-11225984D02*
X7277325Y-11264079D01*
X7572563Y-11502174D02*
X7563039Y-11492650D01*
X7563039Y-11492650D02*
X7543991Y-11464079D01*
X7543991Y-11464079D02*
X7534468Y-11445031D01*
X7534468Y-11445031D02*
X7524944Y-11416460D01*
X7524944Y-11416460D02*
X7515420Y-11368841D01*
X7515420Y-11368841D02*
X7515420Y-11330746D01*
X7515420Y-11330746D02*
X7524944Y-11283127D01*
X7524944Y-11283127D02*
X7534468Y-11254555D01*
X7534468Y-11254555D02*
X7543991Y-11235508D01*
X7543991Y-11235508D02*
X7563039Y-11206936D01*
X7563039Y-11206936D02*
X7572563Y-11197412D01*
X7639229Y-11245031D02*
X7648753Y-11235508D01*
X7648753Y-11235508D02*
X7667801Y-11225984D01*
X7667801Y-11225984D02*
X7715420Y-11225984D01*
X7715420Y-11225984D02*
X7734468Y-11235508D01*
X7734468Y-11235508D02*
X7743991Y-11245031D01*
X7743991Y-11245031D02*
X7753515Y-11264079D01*
X7753515Y-11264079D02*
X7753515Y-11283127D01*
X7753515Y-11283127D02*
X7743991Y-11311698D01*
X7743991Y-11311698D02*
X7629706Y-11425984D01*
X7629706Y-11425984D02*
X7753515Y-11425984D01*
X7924944Y-11225984D02*
X7886848Y-11225984D01*
X7886848Y-11225984D02*
X7867801Y-11235508D01*
X7867801Y-11235508D02*
X7858277Y-11245031D01*
X7858277Y-11245031D02*
X7839229Y-11273603D01*
X7839229Y-11273603D02*
X7829706Y-11311698D01*
X7829706Y-11311698D02*
X7829706Y-11387888D01*
X7829706Y-11387888D02*
X7839229Y-11406936D01*
X7839229Y-11406936D02*
X7848753Y-11416460D01*
X7848753Y-11416460D02*
X7867801Y-11425984D01*
X7867801Y-11425984D02*
X7905896Y-11425984D01*
X7905896Y-11425984D02*
X7924944Y-11416460D01*
X7924944Y-11416460D02*
X7934468Y-11406936D01*
X7934468Y-11406936D02*
X7943991Y-11387888D01*
X7943991Y-11387888D02*
X7943991Y-11340269D01*
X7943991Y-11340269D02*
X7934468Y-11321222D01*
X7934468Y-11321222D02*
X7924944Y-11311698D01*
X7924944Y-11311698D02*
X7905896Y-11302174D01*
X7905896Y-11302174D02*
X7867801Y-11302174D01*
X7867801Y-11302174D02*
X7848753Y-11311698D01*
X7848753Y-11311698D02*
X7839229Y-11321222D01*
X7839229Y-11321222D02*
X7829706Y-11340269D01*
X8182087Y-11425984D02*
X8182087Y-11225984D01*
X8267801Y-11425984D02*
X8267801Y-11321222D01*
X8267801Y-11321222D02*
X8258277Y-11302174D01*
X8258277Y-11302174D02*
X8239230Y-11292650D01*
X8239230Y-11292650D02*
X8210658Y-11292650D01*
X8210658Y-11292650D02*
X8191610Y-11302174D01*
X8191610Y-11302174D02*
X8182087Y-11311698D01*
X8391611Y-11425984D02*
X8372563Y-11416460D01*
X8372563Y-11416460D02*
X8363039Y-11406936D01*
X8363039Y-11406936D02*
X8353515Y-11387888D01*
X8353515Y-11387888D02*
X8353515Y-11330746D01*
X8353515Y-11330746D02*
X8363039Y-11311698D01*
X8363039Y-11311698D02*
X8372563Y-11302174D01*
X8372563Y-11302174D02*
X8391611Y-11292650D01*
X8391611Y-11292650D02*
X8420182Y-11292650D01*
X8420182Y-11292650D02*
X8439230Y-11302174D01*
X8439230Y-11302174D02*
X8448753Y-11311698D01*
X8448753Y-11311698D02*
X8458277Y-11330746D01*
X8458277Y-11330746D02*
X8458277Y-11387888D01*
X8458277Y-11387888D02*
X8448753Y-11406936D01*
X8448753Y-11406936D02*
X8439230Y-11416460D01*
X8439230Y-11416460D02*
X8420182Y-11425984D01*
X8420182Y-11425984D02*
X8391611Y-11425984D01*
X8572563Y-11425984D02*
X8553515Y-11416460D01*
X8553515Y-11416460D02*
X8543992Y-11397412D01*
X8543992Y-11397412D02*
X8543992Y-11225984D01*
X8724944Y-11416460D02*
X8705896Y-11425984D01*
X8705896Y-11425984D02*
X8667801Y-11425984D01*
X8667801Y-11425984D02*
X8648753Y-11416460D01*
X8648753Y-11416460D02*
X8639230Y-11397412D01*
X8639230Y-11397412D02*
X8639230Y-11321222D01*
X8639230Y-11321222D02*
X8648753Y-11302174D01*
X8648753Y-11302174D02*
X8667801Y-11292650D01*
X8667801Y-11292650D02*
X8705896Y-11292650D01*
X8705896Y-11292650D02*
X8724944Y-11302174D01*
X8724944Y-11302174D02*
X8734468Y-11321222D01*
X8734468Y-11321222D02*
X8734468Y-11340269D01*
X8734468Y-11340269D02*
X8639230Y-11359317D01*
X8810658Y-11416460D02*
X8829706Y-11425984D01*
X8829706Y-11425984D02*
X8867801Y-11425984D01*
X8867801Y-11425984D02*
X8886849Y-11416460D01*
X8886849Y-11416460D02*
X8896373Y-11397412D01*
X8896373Y-11397412D02*
X8896373Y-11387888D01*
X8896373Y-11387888D02*
X8886849Y-11368841D01*
X8886849Y-11368841D02*
X8867801Y-11359317D01*
X8867801Y-11359317D02*
X8839230Y-11359317D01*
X8839230Y-11359317D02*
X8820182Y-11349793D01*
X8820182Y-11349793D02*
X8810658Y-11330746D01*
X8810658Y-11330746D02*
X8810658Y-11321222D01*
X8810658Y-11321222D02*
X8820182Y-11302174D01*
X8820182Y-11302174D02*
X8839230Y-11292650D01*
X8839230Y-11292650D02*
X8867801Y-11292650D01*
X8867801Y-11292650D02*
X8886849Y-11302174D01*
X8963039Y-11502174D02*
X8972563Y-11492650D01*
X8972563Y-11492650D02*
X8991611Y-11464079D01*
X8991611Y-11464079D02*
X9001134Y-11445031D01*
X9001134Y-11445031D02*
X9010658Y-11416460D01*
X9010658Y-11416460D02*
X9020182Y-11368841D01*
X9020182Y-11368841D02*
X9020182Y-11330746D01*
X9020182Y-11330746D02*
X9010658Y-11283127D01*
X9010658Y-11283127D02*
X9001134Y-11254555D01*
X9001134Y-11254555D02*
X8991611Y-11235508D01*
X8991611Y-11235508D02*
X8972563Y-11206936D01*
X8972563Y-11206936D02*
X8963039Y-11197412D01*
D10*
X3947500Y-11648500D02*
X3997500Y-11598500D01*
X3947500Y-11548500D01*
X3897500Y-11598500D01*
X3947500Y-11648500D01*
D12*
X4363039Y-11689984D02*
X4248753Y-11689984D01*
X4305896Y-11689984D02*
X4305896Y-11489984D01*
X4305896Y-11489984D02*
X4286848Y-11518555D01*
X4286848Y-11518555D02*
X4267801Y-11537603D01*
X4267801Y-11537603D02*
X4248753Y-11547127D01*
X4448753Y-11670936D02*
X4458277Y-11680460D01*
X4458277Y-11680460D02*
X4448753Y-11689984D01*
X4448753Y-11689984D02*
X4439229Y-11680460D01*
X4439229Y-11680460D02*
X4448753Y-11670936D01*
X4448753Y-11670936D02*
X4448753Y-11689984D01*
X4582086Y-11489984D02*
X4601134Y-11489984D01*
X4601134Y-11489984D02*
X4620182Y-11499508D01*
X4620182Y-11499508D02*
X4629705Y-11509031D01*
X4629705Y-11509031D02*
X4639229Y-11528079D01*
X4639229Y-11528079D02*
X4648753Y-11566174D01*
X4648753Y-11566174D02*
X4648753Y-11613793D01*
X4648753Y-11613793D02*
X4639229Y-11651888D01*
X4639229Y-11651888D02*
X4629705Y-11670936D01*
X4629705Y-11670936D02*
X4620182Y-11680460D01*
X4620182Y-11680460D02*
X4601134Y-11689984D01*
X4601134Y-11689984D02*
X4582086Y-11689984D01*
X4582086Y-11689984D02*
X4563039Y-11680460D01*
X4563039Y-11680460D02*
X4553515Y-11670936D01*
X4553515Y-11670936D02*
X4543991Y-11651888D01*
X4543991Y-11651888D02*
X4534467Y-11613793D01*
X4534467Y-11613793D02*
X4534467Y-11566174D01*
X4534467Y-11566174D02*
X4543991Y-11528079D01*
X4543991Y-11528079D02*
X4553515Y-11509031D01*
X4553515Y-11509031D02*
X4563039Y-11499508D01*
X4563039Y-11499508D02*
X4582086Y-11489984D01*
X4772563Y-11489984D02*
X4791610Y-11489984D01*
X4791610Y-11489984D02*
X4810658Y-11499508D01*
X4810658Y-11499508D02*
X4820182Y-11509031D01*
X4820182Y-11509031D02*
X4829705Y-11528079D01*
X4829705Y-11528079D02*
X4839229Y-11566174D01*
X4839229Y-11566174D02*
X4839229Y-11613793D01*
X4839229Y-11613793D02*
X4829705Y-11651888D01*
X4829705Y-11651888D02*
X4820182Y-11670936D01*
X4820182Y-11670936D02*
X4810658Y-11680460D01*
X4810658Y-11680460D02*
X4791610Y-11689984D01*
X4791610Y-11689984D02*
X4772563Y-11689984D01*
X4772563Y-11689984D02*
X4753515Y-11680460D01*
X4753515Y-11680460D02*
X4743991Y-11670936D01*
X4743991Y-11670936D02*
X4734467Y-11651888D01*
X4734467Y-11651888D02*
X4724944Y-11613793D01*
X4724944Y-11613793D02*
X4724944Y-11566174D01*
X4724944Y-11566174D02*
X4734467Y-11528079D01*
X4734467Y-11528079D02*
X4743991Y-11509031D01*
X4743991Y-11509031D02*
X4753515Y-11499508D01*
X4753515Y-11499508D02*
X4772563Y-11489984D01*
X4963039Y-11489984D02*
X4982086Y-11489984D01*
X4982086Y-11489984D02*
X5001134Y-11499508D01*
X5001134Y-11499508D02*
X5010658Y-11509031D01*
X5010658Y-11509031D02*
X5020182Y-11528079D01*
X5020182Y-11528079D02*
X5029705Y-11566174D01*
X5029705Y-11566174D02*
X5029705Y-11613793D01*
X5029705Y-11613793D02*
X5020182Y-11651888D01*
X5020182Y-11651888D02*
X5010658Y-11670936D01*
X5010658Y-11670936D02*
X5001134Y-11680460D01*
X5001134Y-11680460D02*
X4982086Y-11689984D01*
X4982086Y-11689984D02*
X4963039Y-11689984D01*
X4963039Y-11689984D02*
X4943991Y-11680460D01*
X4943991Y-11680460D02*
X4934467Y-11670936D01*
X4934467Y-11670936D02*
X4924944Y-11651888D01*
X4924944Y-11651888D02*
X4915420Y-11613793D01*
X4915420Y-11613793D02*
X4915420Y-11566174D01*
X4915420Y-11566174D02*
X4924944Y-11528079D01*
X4924944Y-11528079D02*
X4934467Y-11509031D01*
X4934467Y-11509031D02*
X4943991Y-11499508D01*
X4943991Y-11499508D02*
X4963039Y-11489984D01*
X5115420Y-11689984D02*
X5115420Y-11556650D01*
X5115420Y-11575698D02*
X5124944Y-11566174D01*
X5124944Y-11566174D02*
X5143991Y-11556650D01*
X5143991Y-11556650D02*
X5172563Y-11556650D01*
X5172563Y-11556650D02*
X5191610Y-11566174D01*
X5191610Y-11566174D02*
X5201134Y-11585222D01*
X5201134Y-11585222D02*
X5201134Y-11689984D01*
X5201134Y-11585222D02*
X5210658Y-11566174D01*
X5210658Y-11566174D02*
X5229705Y-11556650D01*
X5229705Y-11556650D02*
X5258277Y-11556650D01*
X5258277Y-11556650D02*
X5277325Y-11566174D01*
X5277325Y-11566174D02*
X5286848Y-11585222D01*
X5286848Y-11585222D02*
X5286848Y-11689984D01*
X5382086Y-11689984D02*
X5382086Y-11556650D01*
X5382086Y-11575698D02*
X5391610Y-11566174D01*
X5391610Y-11566174D02*
X5410658Y-11556650D01*
X5410658Y-11556650D02*
X5439229Y-11556650D01*
X5439229Y-11556650D02*
X5458277Y-11566174D01*
X5458277Y-11566174D02*
X5467801Y-11585222D01*
X5467801Y-11585222D02*
X5467801Y-11689984D01*
X5467801Y-11585222D02*
X5477325Y-11566174D01*
X5477325Y-11566174D02*
X5496372Y-11556650D01*
X5496372Y-11556650D02*
X5524944Y-11556650D01*
X5524944Y-11556650D02*
X5543991Y-11566174D01*
X5543991Y-11566174D02*
X5553515Y-11585222D01*
X5553515Y-11585222D02*
X5553515Y-11689984D01*
X5943991Y-11480460D02*
X5772563Y-11737603D01*
X6201134Y-11489984D02*
X6220182Y-11489984D01*
X6220182Y-11489984D02*
X6239229Y-11499508D01*
X6239229Y-11499508D02*
X6248753Y-11509031D01*
X6248753Y-11509031D02*
X6258277Y-11528079D01*
X6258277Y-11528079D02*
X6267801Y-11566174D01*
X6267801Y-11566174D02*
X6267801Y-11613793D01*
X6267801Y-11613793D02*
X6258277Y-11651888D01*
X6258277Y-11651888D02*
X6248753Y-11670936D01*
X6248753Y-11670936D02*
X6239229Y-11680460D01*
X6239229Y-11680460D02*
X6220182Y-11689984D01*
X6220182Y-11689984D02*
X6201134Y-11689984D01*
X6201134Y-11689984D02*
X6182086Y-11680460D01*
X6182086Y-11680460D02*
X6172563Y-11670936D01*
X6172563Y-11670936D02*
X6163039Y-11651888D01*
X6163039Y-11651888D02*
X6153515Y-11613793D01*
X6153515Y-11613793D02*
X6153515Y-11566174D01*
X6153515Y-11566174D02*
X6163039Y-11528079D01*
X6163039Y-11528079D02*
X6172563Y-11509031D01*
X6172563Y-11509031D02*
X6182086Y-11499508D01*
X6182086Y-11499508D02*
X6201134Y-11489984D01*
X6353515Y-11670936D02*
X6363039Y-11680460D01*
X6363039Y-11680460D02*
X6353515Y-11689984D01*
X6353515Y-11689984D02*
X6343991Y-11680460D01*
X6343991Y-11680460D02*
X6353515Y-11670936D01*
X6353515Y-11670936D02*
X6353515Y-11689984D01*
X6486848Y-11489984D02*
X6505896Y-11489984D01*
X6505896Y-11489984D02*
X6524944Y-11499508D01*
X6524944Y-11499508D02*
X6534467Y-11509031D01*
X6534467Y-11509031D02*
X6543991Y-11528079D01*
X6543991Y-11528079D02*
X6553515Y-11566174D01*
X6553515Y-11566174D02*
X6553515Y-11613793D01*
X6553515Y-11613793D02*
X6543991Y-11651888D01*
X6543991Y-11651888D02*
X6534467Y-11670936D01*
X6534467Y-11670936D02*
X6524944Y-11680460D01*
X6524944Y-11680460D02*
X6505896Y-11689984D01*
X6505896Y-11689984D02*
X6486848Y-11689984D01*
X6486848Y-11689984D02*
X6467801Y-11680460D01*
X6467801Y-11680460D02*
X6458277Y-11670936D01*
X6458277Y-11670936D02*
X6448753Y-11651888D01*
X6448753Y-11651888D02*
X6439229Y-11613793D01*
X6439229Y-11613793D02*
X6439229Y-11566174D01*
X6439229Y-11566174D02*
X6448753Y-11528079D01*
X6448753Y-11528079D02*
X6458277Y-11509031D01*
X6458277Y-11509031D02*
X6467801Y-11499508D01*
X6467801Y-11499508D02*
X6486848Y-11489984D01*
X6620182Y-11489984D02*
X6743991Y-11489984D01*
X6743991Y-11489984D02*
X6677325Y-11566174D01*
X6677325Y-11566174D02*
X6705896Y-11566174D01*
X6705896Y-11566174D02*
X6724944Y-11575698D01*
X6724944Y-11575698D02*
X6734467Y-11585222D01*
X6734467Y-11585222D02*
X6743991Y-11604269D01*
X6743991Y-11604269D02*
X6743991Y-11651888D01*
X6743991Y-11651888D02*
X6734467Y-11670936D01*
X6734467Y-11670936D02*
X6724944Y-11680460D01*
X6724944Y-11680460D02*
X6705896Y-11689984D01*
X6705896Y-11689984D02*
X6648753Y-11689984D01*
X6648753Y-11689984D02*
X6629706Y-11680460D01*
X6629706Y-11680460D02*
X6620182Y-11670936D01*
X6839229Y-11689984D02*
X6877325Y-11689984D01*
X6877325Y-11689984D02*
X6896372Y-11680460D01*
X6896372Y-11680460D02*
X6905896Y-11670936D01*
X6905896Y-11670936D02*
X6924944Y-11642365D01*
X6924944Y-11642365D02*
X6934467Y-11604269D01*
X6934467Y-11604269D02*
X6934467Y-11528079D01*
X6934467Y-11528079D02*
X6924944Y-11509031D01*
X6924944Y-11509031D02*
X6915420Y-11499508D01*
X6915420Y-11499508D02*
X6896372Y-11489984D01*
X6896372Y-11489984D02*
X6858277Y-11489984D01*
X6858277Y-11489984D02*
X6839229Y-11499508D01*
X6839229Y-11499508D02*
X6829706Y-11509031D01*
X6829706Y-11509031D02*
X6820182Y-11528079D01*
X6820182Y-11528079D02*
X6820182Y-11575698D01*
X6820182Y-11575698D02*
X6829706Y-11594746D01*
X6829706Y-11594746D02*
X6839229Y-11604269D01*
X6839229Y-11604269D02*
X6858277Y-11613793D01*
X6858277Y-11613793D02*
X6896372Y-11613793D01*
X6896372Y-11613793D02*
X6915420Y-11604269D01*
X6915420Y-11604269D02*
X6924944Y-11594746D01*
X6924944Y-11594746D02*
X6934467Y-11575698D01*
X7105896Y-11556650D02*
X7105896Y-11689984D01*
X7058277Y-11480460D02*
X7010658Y-11623317D01*
X7010658Y-11623317D02*
X7134467Y-11623317D01*
X7201134Y-11489984D02*
X7201134Y-11528079D01*
X7277325Y-11489984D02*
X7277325Y-11528079D01*
X7572563Y-11766174D02*
X7563039Y-11756650D01*
X7563039Y-11756650D02*
X7543991Y-11728079D01*
X7543991Y-11728079D02*
X7534468Y-11709031D01*
X7534468Y-11709031D02*
X7524944Y-11680460D01*
X7524944Y-11680460D02*
X7515420Y-11632841D01*
X7515420Y-11632841D02*
X7515420Y-11594746D01*
X7515420Y-11594746D02*
X7524944Y-11547127D01*
X7524944Y-11547127D02*
X7534468Y-11518555D01*
X7534468Y-11518555D02*
X7543991Y-11499508D01*
X7543991Y-11499508D02*
X7563039Y-11470936D01*
X7563039Y-11470936D02*
X7572563Y-11461412D01*
X7639229Y-11509031D02*
X7648753Y-11499508D01*
X7648753Y-11499508D02*
X7667801Y-11489984D01*
X7667801Y-11489984D02*
X7715420Y-11489984D01*
X7715420Y-11489984D02*
X7734468Y-11499508D01*
X7734468Y-11499508D02*
X7743991Y-11509031D01*
X7743991Y-11509031D02*
X7753515Y-11528079D01*
X7753515Y-11528079D02*
X7753515Y-11547127D01*
X7753515Y-11547127D02*
X7743991Y-11575698D01*
X7743991Y-11575698D02*
X7629706Y-11689984D01*
X7629706Y-11689984D02*
X7753515Y-11689984D01*
X7924944Y-11489984D02*
X7886848Y-11489984D01*
X7886848Y-11489984D02*
X7867801Y-11499508D01*
X7867801Y-11499508D02*
X7858277Y-11509031D01*
X7858277Y-11509031D02*
X7839229Y-11537603D01*
X7839229Y-11537603D02*
X7829706Y-11575698D01*
X7829706Y-11575698D02*
X7829706Y-11651888D01*
X7829706Y-11651888D02*
X7839229Y-11670936D01*
X7839229Y-11670936D02*
X7848753Y-11680460D01*
X7848753Y-11680460D02*
X7867801Y-11689984D01*
X7867801Y-11689984D02*
X7905896Y-11689984D01*
X7905896Y-11689984D02*
X7924944Y-11680460D01*
X7924944Y-11680460D02*
X7934468Y-11670936D01*
X7934468Y-11670936D02*
X7943991Y-11651888D01*
X7943991Y-11651888D02*
X7943991Y-11604269D01*
X7943991Y-11604269D02*
X7934468Y-11585222D01*
X7934468Y-11585222D02*
X7924944Y-11575698D01*
X7924944Y-11575698D02*
X7905896Y-11566174D01*
X7905896Y-11566174D02*
X7867801Y-11566174D01*
X7867801Y-11566174D02*
X7848753Y-11575698D01*
X7848753Y-11575698D02*
X7839229Y-11585222D01*
X7839229Y-11585222D02*
X7829706Y-11604269D01*
X8182087Y-11689984D02*
X8182087Y-11489984D01*
X8267801Y-11689984D02*
X8267801Y-11585222D01*
X8267801Y-11585222D02*
X8258277Y-11566174D01*
X8258277Y-11566174D02*
X8239230Y-11556650D01*
X8239230Y-11556650D02*
X8210658Y-11556650D01*
X8210658Y-11556650D02*
X8191610Y-11566174D01*
X8191610Y-11566174D02*
X8182087Y-11575698D01*
X8391611Y-11689984D02*
X8372563Y-11680460D01*
X8372563Y-11680460D02*
X8363039Y-11670936D01*
X8363039Y-11670936D02*
X8353515Y-11651888D01*
X8353515Y-11651888D02*
X8353515Y-11594746D01*
X8353515Y-11594746D02*
X8363039Y-11575698D01*
X8363039Y-11575698D02*
X8372563Y-11566174D01*
X8372563Y-11566174D02*
X8391611Y-11556650D01*
X8391611Y-11556650D02*
X8420182Y-11556650D01*
X8420182Y-11556650D02*
X8439230Y-11566174D01*
X8439230Y-11566174D02*
X8448753Y-11575698D01*
X8448753Y-11575698D02*
X8458277Y-11594746D01*
X8458277Y-11594746D02*
X8458277Y-11651888D01*
X8458277Y-11651888D02*
X8448753Y-11670936D01*
X8448753Y-11670936D02*
X8439230Y-11680460D01*
X8439230Y-11680460D02*
X8420182Y-11689984D01*
X8420182Y-11689984D02*
X8391611Y-11689984D01*
X8572563Y-11689984D02*
X8553515Y-11680460D01*
X8553515Y-11680460D02*
X8543992Y-11661412D01*
X8543992Y-11661412D02*
X8543992Y-11489984D01*
X8724944Y-11680460D02*
X8705896Y-11689984D01*
X8705896Y-11689984D02*
X8667801Y-11689984D01*
X8667801Y-11689984D02*
X8648753Y-11680460D01*
X8648753Y-11680460D02*
X8639230Y-11661412D01*
X8639230Y-11661412D02*
X8639230Y-11585222D01*
X8639230Y-11585222D02*
X8648753Y-11566174D01*
X8648753Y-11566174D02*
X8667801Y-11556650D01*
X8667801Y-11556650D02*
X8705896Y-11556650D01*
X8705896Y-11556650D02*
X8724944Y-11566174D01*
X8724944Y-11566174D02*
X8734468Y-11585222D01*
X8734468Y-11585222D02*
X8734468Y-11604269D01*
X8734468Y-11604269D02*
X8639230Y-11623317D01*
X8810658Y-11680460D02*
X8829706Y-11689984D01*
X8829706Y-11689984D02*
X8867801Y-11689984D01*
X8867801Y-11689984D02*
X8886849Y-11680460D01*
X8886849Y-11680460D02*
X8896373Y-11661412D01*
X8896373Y-11661412D02*
X8896373Y-11651888D01*
X8896373Y-11651888D02*
X8886849Y-11632841D01*
X8886849Y-11632841D02*
X8867801Y-11623317D01*
X8867801Y-11623317D02*
X8839230Y-11623317D01*
X8839230Y-11623317D02*
X8820182Y-11613793D01*
X8820182Y-11613793D02*
X8810658Y-11594746D01*
X8810658Y-11594746D02*
X8810658Y-11585222D01*
X8810658Y-11585222D02*
X8820182Y-11566174D01*
X8820182Y-11566174D02*
X8839230Y-11556650D01*
X8839230Y-11556650D02*
X8867801Y-11556650D01*
X8867801Y-11556650D02*
X8886849Y-11566174D01*
X8963039Y-11766174D02*
X8972563Y-11756650D01*
X8972563Y-11756650D02*
X8991611Y-11728079D01*
X8991611Y-11728079D02*
X9001134Y-11709031D01*
X9001134Y-11709031D02*
X9010658Y-11680460D01*
X9010658Y-11680460D02*
X9020182Y-11632841D01*
X9020182Y-11632841D02*
X9020182Y-11594746D01*
X9020182Y-11594746D02*
X9010658Y-11547127D01*
X9010658Y-11547127D02*
X9001134Y-11518555D01*
X9001134Y-11518555D02*
X8991611Y-11499508D01*
X8991611Y-11499508D02*
X8972563Y-11470936D01*
X8972563Y-11470936D02*
X8963039Y-11461412D01*
X3797500Y-11762500D02*
X3997500Y-11962500D01*
X3997500Y-11762500D02*
X3797500Y-11962500D01*
X3997500Y-11862500D02*
G75*
G02*
X3797500Y-11862500I-100000J0D01*
G01*
X3797500Y-11862500D02*
G75*
G02*
X3997500Y-11862500I100000J0D01*
G01*
X4248753Y-11773031D02*
X4258277Y-11763508D01*
X4258277Y-11763508D02*
X4277324Y-11753984D01*
X4277324Y-11753984D02*
X4324944Y-11753984D01*
X4324944Y-11753984D02*
X4343991Y-11763508D01*
X4343991Y-11763508D02*
X4353515Y-11773031D01*
X4353515Y-11773031D02*
X4363039Y-11792079D01*
X4363039Y-11792079D02*
X4363039Y-11811127D01*
X4363039Y-11811127D02*
X4353515Y-11839698D01*
X4353515Y-11839698D02*
X4239229Y-11953984D01*
X4239229Y-11953984D02*
X4363039Y-11953984D01*
X4448753Y-11934936D02*
X4458277Y-11944460D01*
X4458277Y-11944460D02*
X4448753Y-11953984D01*
X4448753Y-11953984D02*
X4439229Y-11944460D01*
X4439229Y-11944460D02*
X4448753Y-11934936D01*
X4448753Y-11934936D02*
X4448753Y-11953984D01*
X4639229Y-11753984D02*
X4543991Y-11753984D01*
X4543991Y-11753984D02*
X4534467Y-11849222D01*
X4534467Y-11849222D02*
X4543991Y-11839698D01*
X4543991Y-11839698D02*
X4563039Y-11830174D01*
X4563039Y-11830174D02*
X4610658Y-11830174D01*
X4610658Y-11830174D02*
X4629705Y-11839698D01*
X4629705Y-11839698D02*
X4639229Y-11849222D01*
X4639229Y-11849222D02*
X4648753Y-11868269D01*
X4648753Y-11868269D02*
X4648753Y-11915888D01*
X4648753Y-11915888D02*
X4639229Y-11934936D01*
X4639229Y-11934936D02*
X4629705Y-11944460D01*
X4629705Y-11944460D02*
X4610658Y-11953984D01*
X4610658Y-11953984D02*
X4563039Y-11953984D01*
X4563039Y-11953984D02*
X4543991Y-11944460D01*
X4543991Y-11944460D02*
X4534467Y-11934936D01*
X4772563Y-11753984D02*
X4791610Y-11753984D01*
X4791610Y-11753984D02*
X4810658Y-11763508D01*
X4810658Y-11763508D02*
X4820182Y-11773031D01*
X4820182Y-11773031D02*
X4829705Y-11792079D01*
X4829705Y-11792079D02*
X4839229Y-11830174D01*
X4839229Y-11830174D02*
X4839229Y-11877793D01*
X4839229Y-11877793D02*
X4829705Y-11915888D01*
X4829705Y-11915888D02*
X4820182Y-11934936D01*
X4820182Y-11934936D02*
X4810658Y-11944460D01*
X4810658Y-11944460D02*
X4791610Y-11953984D01*
X4791610Y-11953984D02*
X4772563Y-11953984D01*
X4772563Y-11953984D02*
X4753515Y-11944460D01*
X4753515Y-11944460D02*
X4743991Y-11934936D01*
X4743991Y-11934936D02*
X4734467Y-11915888D01*
X4734467Y-11915888D02*
X4724944Y-11877793D01*
X4724944Y-11877793D02*
X4724944Y-11830174D01*
X4724944Y-11830174D02*
X4734467Y-11792079D01*
X4734467Y-11792079D02*
X4743991Y-11773031D01*
X4743991Y-11773031D02*
X4753515Y-11763508D01*
X4753515Y-11763508D02*
X4772563Y-11753984D01*
X4963039Y-11753984D02*
X4982086Y-11753984D01*
X4982086Y-11753984D02*
X5001134Y-11763508D01*
X5001134Y-11763508D02*
X5010658Y-11773031D01*
X5010658Y-11773031D02*
X5020182Y-11792079D01*
X5020182Y-11792079D02*
X5029705Y-11830174D01*
X5029705Y-11830174D02*
X5029705Y-11877793D01*
X5029705Y-11877793D02*
X5020182Y-11915888D01*
X5020182Y-11915888D02*
X5010658Y-11934936D01*
X5010658Y-11934936D02*
X5001134Y-11944460D01*
X5001134Y-11944460D02*
X4982086Y-11953984D01*
X4982086Y-11953984D02*
X4963039Y-11953984D01*
X4963039Y-11953984D02*
X4943991Y-11944460D01*
X4943991Y-11944460D02*
X4934467Y-11934936D01*
X4934467Y-11934936D02*
X4924944Y-11915888D01*
X4924944Y-11915888D02*
X4915420Y-11877793D01*
X4915420Y-11877793D02*
X4915420Y-11830174D01*
X4915420Y-11830174D02*
X4924944Y-11792079D01*
X4924944Y-11792079D02*
X4934467Y-11773031D01*
X4934467Y-11773031D02*
X4943991Y-11763508D01*
X4943991Y-11763508D02*
X4963039Y-11753984D01*
X5115420Y-11953984D02*
X5115420Y-11820650D01*
X5115420Y-11839698D02*
X5124944Y-11830174D01*
X5124944Y-11830174D02*
X5143991Y-11820650D01*
X5143991Y-11820650D02*
X5172563Y-11820650D01*
X5172563Y-11820650D02*
X5191610Y-11830174D01*
X5191610Y-11830174D02*
X5201134Y-11849222D01*
X5201134Y-11849222D02*
X5201134Y-11953984D01*
X5201134Y-11849222D02*
X5210658Y-11830174D01*
X5210658Y-11830174D02*
X5229705Y-11820650D01*
X5229705Y-11820650D02*
X5258277Y-11820650D01*
X5258277Y-11820650D02*
X5277325Y-11830174D01*
X5277325Y-11830174D02*
X5286848Y-11849222D01*
X5286848Y-11849222D02*
X5286848Y-11953984D01*
X5382086Y-11953984D02*
X5382086Y-11820650D01*
X5382086Y-11839698D02*
X5391610Y-11830174D01*
X5391610Y-11830174D02*
X5410658Y-11820650D01*
X5410658Y-11820650D02*
X5439229Y-11820650D01*
X5439229Y-11820650D02*
X5458277Y-11830174D01*
X5458277Y-11830174D02*
X5467801Y-11849222D01*
X5467801Y-11849222D02*
X5467801Y-11953984D01*
X5467801Y-11849222D02*
X5477325Y-11830174D01*
X5477325Y-11830174D02*
X5496372Y-11820650D01*
X5496372Y-11820650D02*
X5524944Y-11820650D01*
X5524944Y-11820650D02*
X5543991Y-11830174D01*
X5543991Y-11830174D02*
X5553515Y-11849222D01*
X5553515Y-11849222D02*
X5553515Y-11953984D01*
X5943991Y-11744460D02*
X5772563Y-12001603D01*
X6201134Y-11753984D02*
X6220182Y-11753984D01*
X6220182Y-11753984D02*
X6239229Y-11763508D01*
X6239229Y-11763508D02*
X6248753Y-11773031D01*
X6248753Y-11773031D02*
X6258277Y-11792079D01*
X6258277Y-11792079D02*
X6267801Y-11830174D01*
X6267801Y-11830174D02*
X6267801Y-11877793D01*
X6267801Y-11877793D02*
X6258277Y-11915888D01*
X6258277Y-11915888D02*
X6248753Y-11934936D01*
X6248753Y-11934936D02*
X6239229Y-11944460D01*
X6239229Y-11944460D02*
X6220182Y-11953984D01*
X6220182Y-11953984D02*
X6201134Y-11953984D01*
X6201134Y-11953984D02*
X6182086Y-11944460D01*
X6182086Y-11944460D02*
X6172563Y-11934936D01*
X6172563Y-11934936D02*
X6163039Y-11915888D01*
X6163039Y-11915888D02*
X6153515Y-11877793D01*
X6153515Y-11877793D02*
X6153515Y-11830174D01*
X6153515Y-11830174D02*
X6163039Y-11792079D01*
X6163039Y-11792079D02*
X6172563Y-11773031D01*
X6172563Y-11773031D02*
X6182086Y-11763508D01*
X6182086Y-11763508D02*
X6201134Y-11753984D01*
X6353515Y-11934936D02*
X6363039Y-11944460D01*
X6363039Y-11944460D02*
X6353515Y-11953984D01*
X6353515Y-11953984D02*
X6343991Y-11944460D01*
X6343991Y-11944460D02*
X6353515Y-11934936D01*
X6353515Y-11934936D02*
X6353515Y-11953984D01*
X6486848Y-11753984D02*
X6505896Y-11753984D01*
X6505896Y-11753984D02*
X6524944Y-11763508D01*
X6524944Y-11763508D02*
X6534467Y-11773031D01*
X6534467Y-11773031D02*
X6543991Y-11792079D01*
X6543991Y-11792079D02*
X6553515Y-11830174D01*
X6553515Y-11830174D02*
X6553515Y-11877793D01*
X6553515Y-11877793D02*
X6543991Y-11915888D01*
X6543991Y-11915888D02*
X6534467Y-11934936D01*
X6534467Y-11934936D02*
X6524944Y-11944460D01*
X6524944Y-11944460D02*
X6505896Y-11953984D01*
X6505896Y-11953984D02*
X6486848Y-11953984D01*
X6486848Y-11953984D02*
X6467801Y-11944460D01*
X6467801Y-11944460D02*
X6458277Y-11934936D01*
X6458277Y-11934936D02*
X6448753Y-11915888D01*
X6448753Y-11915888D02*
X6439229Y-11877793D01*
X6439229Y-11877793D02*
X6439229Y-11830174D01*
X6439229Y-11830174D02*
X6448753Y-11792079D01*
X6448753Y-11792079D02*
X6458277Y-11773031D01*
X6458277Y-11773031D02*
X6467801Y-11763508D01*
X6467801Y-11763508D02*
X6486848Y-11753984D01*
X6648753Y-11953984D02*
X6686848Y-11953984D01*
X6686848Y-11953984D02*
X6705896Y-11944460D01*
X6705896Y-11944460D02*
X6715420Y-11934936D01*
X6715420Y-11934936D02*
X6734467Y-11906365D01*
X6734467Y-11906365D02*
X6743991Y-11868269D01*
X6743991Y-11868269D02*
X6743991Y-11792079D01*
X6743991Y-11792079D02*
X6734467Y-11773031D01*
X6734467Y-11773031D02*
X6724944Y-11763508D01*
X6724944Y-11763508D02*
X6705896Y-11753984D01*
X6705896Y-11753984D02*
X6667801Y-11753984D01*
X6667801Y-11753984D02*
X6648753Y-11763508D01*
X6648753Y-11763508D02*
X6639229Y-11773031D01*
X6639229Y-11773031D02*
X6629706Y-11792079D01*
X6629706Y-11792079D02*
X6629706Y-11839698D01*
X6629706Y-11839698D02*
X6639229Y-11858746D01*
X6639229Y-11858746D02*
X6648753Y-11868269D01*
X6648753Y-11868269D02*
X6667801Y-11877793D01*
X6667801Y-11877793D02*
X6705896Y-11877793D01*
X6705896Y-11877793D02*
X6724944Y-11868269D01*
X6724944Y-11868269D02*
X6734467Y-11858746D01*
X6734467Y-11858746D02*
X6743991Y-11839698D01*
X6858277Y-11839698D02*
X6839229Y-11830174D01*
X6839229Y-11830174D02*
X6829706Y-11820650D01*
X6829706Y-11820650D02*
X6820182Y-11801603D01*
X6820182Y-11801603D02*
X6820182Y-11792079D01*
X6820182Y-11792079D02*
X6829706Y-11773031D01*
X6829706Y-11773031D02*
X6839229Y-11763508D01*
X6839229Y-11763508D02*
X6858277Y-11753984D01*
X6858277Y-11753984D02*
X6896372Y-11753984D01*
X6896372Y-11753984D02*
X6915420Y-11763508D01*
X6915420Y-11763508D02*
X6924944Y-11773031D01*
X6924944Y-11773031D02*
X6934467Y-11792079D01*
X6934467Y-11792079D02*
X6934467Y-11801603D01*
X6934467Y-11801603D02*
X6924944Y-11820650D01*
X6924944Y-11820650D02*
X6915420Y-11830174D01*
X6915420Y-11830174D02*
X6896372Y-11839698D01*
X6896372Y-11839698D02*
X6858277Y-11839698D01*
X6858277Y-11839698D02*
X6839229Y-11849222D01*
X6839229Y-11849222D02*
X6829706Y-11858746D01*
X6829706Y-11858746D02*
X6820182Y-11877793D01*
X6820182Y-11877793D02*
X6820182Y-11915888D01*
X6820182Y-11915888D02*
X6829706Y-11934936D01*
X6829706Y-11934936D02*
X6839229Y-11944460D01*
X6839229Y-11944460D02*
X6858277Y-11953984D01*
X6858277Y-11953984D02*
X6896372Y-11953984D01*
X6896372Y-11953984D02*
X6915420Y-11944460D01*
X6915420Y-11944460D02*
X6924944Y-11934936D01*
X6924944Y-11934936D02*
X6934467Y-11915888D01*
X6934467Y-11915888D02*
X6934467Y-11877793D01*
X6934467Y-11877793D02*
X6924944Y-11858746D01*
X6924944Y-11858746D02*
X6915420Y-11849222D01*
X6915420Y-11849222D02*
X6896372Y-11839698D01*
X7105896Y-11820650D02*
X7105896Y-11953984D01*
X7058277Y-11744460D02*
X7010658Y-11887317D01*
X7010658Y-11887317D02*
X7134467Y-11887317D01*
X7201134Y-11753984D02*
X7201134Y-11792079D01*
X7277325Y-11753984D02*
X7277325Y-11792079D01*
X7572563Y-12030174D02*
X7563039Y-12020650D01*
X7563039Y-12020650D02*
X7543991Y-11992079D01*
X7543991Y-11992079D02*
X7534468Y-11973031D01*
X7534468Y-11973031D02*
X7524944Y-11944460D01*
X7524944Y-11944460D02*
X7515420Y-11896841D01*
X7515420Y-11896841D02*
X7515420Y-11858746D01*
X7515420Y-11858746D02*
X7524944Y-11811127D01*
X7524944Y-11811127D02*
X7534468Y-11782555D01*
X7534468Y-11782555D02*
X7543991Y-11763508D01*
X7543991Y-11763508D02*
X7563039Y-11734936D01*
X7563039Y-11734936D02*
X7572563Y-11725412D01*
X7753515Y-11953984D02*
X7639229Y-11953984D01*
X7696372Y-11953984D02*
X7696372Y-11753984D01*
X7696372Y-11753984D02*
X7677325Y-11782555D01*
X7677325Y-11782555D02*
X7658277Y-11801603D01*
X7658277Y-11801603D02*
X7639229Y-11811127D01*
X7877325Y-11753984D02*
X7896372Y-11753984D01*
X7896372Y-11753984D02*
X7915420Y-11763508D01*
X7915420Y-11763508D02*
X7924944Y-11773031D01*
X7924944Y-11773031D02*
X7934468Y-11792079D01*
X7934468Y-11792079D02*
X7943991Y-11830174D01*
X7943991Y-11830174D02*
X7943991Y-11877793D01*
X7943991Y-11877793D02*
X7934468Y-11915888D01*
X7934468Y-11915888D02*
X7924944Y-11934936D01*
X7924944Y-11934936D02*
X7915420Y-11944460D01*
X7915420Y-11944460D02*
X7896372Y-11953984D01*
X7896372Y-11953984D02*
X7877325Y-11953984D01*
X7877325Y-11953984D02*
X7858277Y-11944460D01*
X7858277Y-11944460D02*
X7848753Y-11934936D01*
X7848753Y-11934936D02*
X7839229Y-11915888D01*
X7839229Y-11915888D02*
X7829706Y-11877793D01*
X7829706Y-11877793D02*
X7829706Y-11830174D01*
X7829706Y-11830174D02*
X7839229Y-11792079D01*
X7839229Y-11792079D02*
X7848753Y-11773031D01*
X7848753Y-11773031D02*
X7858277Y-11763508D01*
X7858277Y-11763508D02*
X7877325Y-11753984D01*
X8182087Y-11953984D02*
X8182087Y-11753984D01*
X8267801Y-11953984D02*
X8267801Y-11849222D01*
X8267801Y-11849222D02*
X8258277Y-11830174D01*
X8258277Y-11830174D02*
X8239230Y-11820650D01*
X8239230Y-11820650D02*
X8210658Y-11820650D01*
X8210658Y-11820650D02*
X8191610Y-11830174D01*
X8191610Y-11830174D02*
X8182087Y-11839698D01*
X8391611Y-11953984D02*
X8372563Y-11944460D01*
X8372563Y-11944460D02*
X8363039Y-11934936D01*
X8363039Y-11934936D02*
X8353515Y-11915888D01*
X8353515Y-11915888D02*
X8353515Y-11858746D01*
X8353515Y-11858746D02*
X8363039Y-11839698D01*
X8363039Y-11839698D02*
X8372563Y-11830174D01*
X8372563Y-11830174D02*
X8391611Y-11820650D01*
X8391611Y-11820650D02*
X8420182Y-11820650D01*
X8420182Y-11820650D02*
X8439230Y-11830174D01*
X8439230Y-11830174D02*
X8448753Y-11839698D01*
X8448753Y-11839698D02*
X8458277Y-11858746D01*
X8458277Y-11858746D02*
X8458277Y-11915888D01*
X8458277Y-11915888D02*
X8448753Y-11934936D01*
X8448753Y-11934936D02*
X8439230Y-11944460D01*
X8439230Y-11944460D02*
X8420182Y-11953984D01*
X8420182Y-11953984D02*
X8391611Y-11953984D01*
X8572563Y-11953984D02*
X8553515Y-11944460D01*
X8553515Y-11944460D02*
X8543992Y-11925412D01*
X8543992Y-11925412D02*
X8543992Y-11753984D01*
X8724944Y-11944460D02*
X8705896Y-11953984D01*
X8705896Y-11953984D02*
X8667801Y-11953984D01*
X8667801Y-11953984D02*
X8648753Y-11944460D01*
X8648753Y-11944460D02*
X8639230Y-11925412D01*
X8639230Y-11925412D02*
X8639230Y-11849222D01*
X8639230Y-11849222D02*
X8648753Y-11830174D01*
X8648753Y-11830174D02*
X8667801Y-11820650D01*
X8667801Y-11820650D02*
X8705896Y-11820650D01*
X8705896Y-11820650D02*
X8724944Y-11830174D01*
X8724944Y-11830174D02*
X8734468Y-11849222D01*
X8734468Y-11849222D02*
X8734468Y-11868269D01*
X8734468Y-11868269D02*
X8639230Y-11887317D01*
X8810658Y-11944460D02*
X8829706Y-11953984D01*
X8829706Y-11953984D02*
X8867801Y-11953984D01*
X8867801Y-11953984D02*
X8886849Y-11944460D01*
X8886849Y-11944460D02*
X8896373Y-11925412D01*
X8896373Y-11925412D02*
X8896373Y-11915888D01*
X8896373Y-11915888D02*
X8886849Y-11896841D01*
X8886849Y-11896841D02*
X8867801Y-11887317D01*
X8867801Y-11887317D02*
X8839230Y-11887317D01*
X8839230Y-11887317D02*
X8820182Y-11877793D01*
X8820182Y-11877793D02*
X8810658Y-11858746D01*
X8810658Y-11858746D02*
X8810658Y-11849222D01*
X8810658Y-11849222D02*
X8820182Y-11830174D01*
X8820182Y-11830174D02*
X8839230Y-11820650D01*
X8839230Y-11820650D02*
X8867801Y-11820650D01*
X8867801Y-11820650D02*
X8886849Y-11830174D01*
X8963039Y-12030174D02*
X8972563Y-12020650D01*
X8972563Y-12020650D02*
X8991611Y-11992079D01*
X8991611Y-11992079D02*
X9001134Y-11973031D01*
X9001134Y-11973031D02*
X9010658Y-11944460D01*
X9010658Y-11944460D02*
X9020182Y-11896841D01*
X9020182Y-11896841D02*
X9020182Y-11858746D01*
X9020182Y-11858746D02*
X9010658Y-11811127D01*
X9010658Y-11811127D02*
X9001134Y-11782555D01*
X9001134Y-11782555D02*
X8991611Y-11763508D01*
X8991611Y-11763508D02*
X8972563Y-11734936D01*
X8972563Y-11734936D02*
X8963039Y-11725412D01*
M02*
