%TF.GenerationSoftware,KiCad,Pcbnew,9.0.7*%
%TF.CreationDate,2026-04-03T13:03:59+02:00*%
%TF.ProjectId,Untitled,556e7469-746c-4656-942e-6b696361645f,rev?*%
%TF.SameCoordinates,Original*%
%TF.FileFunction,Copper,L1,Top*%
%TF.FilePolarity,Positive*%
%FSLAX46Y46*%
G04 Gerber Fmt 4.6, Leading zero omitted, Abs format (unit mm)*
G04 Created by KiCad (PCBNEW 9.0.7) date 2026-04-03 13:03:59*
%MOMM*%
%LPD*%
G01*
G04 APERTURE LIST*
G04 Aperture macros list*
%AMRoundRect*
0 Rectangle with rounded corners*
0 $1 Rounding radius*
0 $2 $3 $4 $5 $6 $7 $8 $9 X,Y pos of 4 corners*
0 Add a 4 corners polygon primitive as box body*
4,1,4,$2,$3,$4,$5,$6,$7,$8,$9,$2,$3,0*
0 Add four circle primitives for the rounded corners*
1,1,$1+$1,$2,$3*
1,1,$1+$1,$4,$5*
1,1,$1+$1,$6,$7*
1,1,$1+$1,$8,$9*
0 Add four rect primitives between the rounded corners*
20,1,$1+$1,$2,$3,$4,$5,0*
20,1,$1+$1,$4,$5,$6,$7,0*
20,1,$1+$1,$6,$7,$8,$9,0*
20,1,$1+$1,$8,$9,$2,$3,0*%
G04 Aperture macros list end*
%TA.AperFunction,ComponentPad*%
%ADD10R,1.778000X1.778000*%
%TD*%
%TA.AperFunction,ComponentPad*%
%ADD11C,1.778000*%
%TD*%
%TA.AperFunction,ComponentPad*%
%ADD12C,3.200000*%
%TD*%
%TA.AperFunction,ComponentPad*%
%ADD13C,2.184400*%
%TD*%
%TA.AperFunction,ComponentPad*%
%ADD14RoundRect,0.250000X-0.725000X0.600000X-0.725000X-0.600000X0.725000X-0.600000X0.725000X0.600000X0*%
%TD*%
%TA.AperFunction,ComponentPad*%
%ADD15O,1.950000X1.700000*%
%TD*%
%TA.AperFunction,ComponentPad*%
%ADD16RoundRect,0.250000X0.600000X0.725000X-0.600000X0.725000X-0.600000X-0.725000X0.600000X-0.725000X0*%
%TD*%
%TA.AperFunction,ComponentPad*%
%ADD17O,1.700000X1.950000*%
%TD*%
%TA.AperFunction,ComponentPad*%
%ADD18R,1.524000X1.524000*%
%TD*%
%TA.AperFunction,ComponentPad*%
%ADD19C,1.524000*%
%TD*%
%TA.AperFunction,ComponentPad*%
%ADD20RoundRect,0.250000X-0.600000X-0.725000X0.600000X-0.725000X0.600000X0.725000X-0.600000X0.725000X0*%
%TD*%
%TA.AperFunction,ComponentPad*%
%ADD21RoundRect,0.250000X0.725000X-0.600000X0.725000X0.600000X-0.725000X0.600000X-0.725000X-0.600000X0*%
%TD*%
%TA.AperFunction,ViaPad*%
%ADD22C,0.800000*%
%TD*%
%TA.AperFunction,ViaPad*%
%ADD23C,0.600000*%
%TD*%
%TA.AperFunction,Conductor*%
%ADD24C,0.500000*%
%TD*%
%TA.AperFunction,Conductor*%
%ADD25C,0.200000*%
%TD*%
G04 APERTURE END LIST*
D10*
%TO.P,INA2192,1,VCC*%
%TO.N,+3.3V*%
X77300000Y-57120000D03*
D11*
%TO.P,INA2192,2,GND*%
%TO.N,GND*%
X79840000Y-57120000D03*
%TO.P,INA2192,3,SCL*%
%TO.N,Net-(A1-LV2)*%
X82380000Y-57120000D03*
%TO.P,INA2192,4,SDA*%
%TO.N,Net-(A1-LV1)*%
X84920000Y-57120000D03*
%TO.P,INA2192,5,VIN-*%
%TO.N,Net-(J1-Pin_2)*%
X87460000Y-57120000D03*
%TO.P,INA2192,6,VIN+*%
%TO.N,Net-(J1-Pin_1)*%
X90000000Y-57120000D03*
D12*
%TO.P,INA2192,SH1,SHIELD*%
%TO.N,Net-(U2-SHIELD-PadSH1)*%
X73490000Y-41880000D03*
%TO.P,INA2192,SH2,SHIELD*%
X93810000Y-41880000D03*
%TO.P,INA2192,SH3,SHIELD*%
X73490000Y-57120000D03*
%TO.P,INA2192,SH4,SHIELD*%
X93810000Y-57120000D03*
D13*
%TO.P,INA2192,VIN+,VIN+*%
%TO.N,Net-(J1-Pin_1)*%
X85350000Y-43150000D03*
%TO.P,INA2192,VIN-,VIN-*%
%TO.N,Net-(J1-Pin_2)*%
X81850000Y-43150000D03*
%TD*%
D14*
%TO.P,J2,1,Pin_1*%
%TO.N,Net-(A1-LV3)*%
X51000000Y-86420000D03*
D15*
%TO.P,J2,2,Pin_2*%
%TO.N,Net-(A1-LV4)*%
X51000000Y-88920000D03*
%TO.P,J2,3,Pin_3*%
%TO.N,unconnected-(J2-Pin_3-Pad3)*%
X51000000Y-91420000D03*
%TD*%
D16*
%TO.P,J1,1,Pin_1*%
%TO.N,Net-(J1-Pin_1)*%
X73250000Y-66025000D03*
D17*
%TO.P,J1,2,Pin_2*%
%TO.N,Net-(J1-Pin_2)*%
X70750000Y-66025000D03*
%TO.P,J1,3,Pin_3*%
%TO.N,Net-(J1-Pin_3)*%
X68250000Y-66025000D03*
%TO.P,J1,4,Pin_4*%
%TO.N,Net-(J1-Pin_4)*%
X65750000Y-66025000D03*
%TD*%
D18*
%TO.P,A1,1,LV1*%
%TO.N,Net-(A1-LV1)*%
X61800000Y-89580000D03*
D19*
%TO.P,A1,2,LV2*%
%TO.N,Net-(A1-LV2)*%
X64340000Y-89580000D03*
%TO.P,A1,3,LV*%
%TO.N,+3.3V*%
X66880000Y-89580000D03*
%TO.P,A1,4,GND*%
%TO.N,GND*%
X69420000Y-89580000D03*
%TO.P,A1,5,LV3*%
%TO.N,Net-(A1-LV3)*%
X71960000Y-89580000D03*
%TO.P,A1,6,LV4*%
%TO.N,Net-(A1-LV4)*%
X74500000Y-89580000D03*
%TO.P,A1,7,HV4*%
%TO.N,Net-(A1-HV4)*%
X74500000Y-79420000D03*
%TO.P,A1,8,HV3*%
%TO.N,Net-(A1-HV3)*%
X71960000Y-79420000D03*
%TO.P,A1,9,GND*%
%TO.N,GND*%
X69420000Y-79420000D03*
%TO.P,A1,10,HV*%
%TO.N,+5V*%
X66880000Y-79420000D03*
%TO.P,A1,11,HV2*%
%TO.N,Net-(A1-HV2)*%
X64340000Y-79420000D03*
%TO.P,A1,12,HV1*%
%TO.N,Net-(A1-HV1)*%
X61800000Y-79420000D03*
%TD*%
D20*
%TO.P,J10,1,Pin_1*%
%TO.N,+3.3V*%
X102000000Y-71000000D03*
D17*
%TO.P,J10,2,Pin_2*%
%TO.N,Net-(J10-Pin_2)*%
X104500000Y-71000000D03*
%TO.P,J10,3,Pin_3*%
%TO.N,GND*%
X107000000Y-71000000D03*
%TD*%
D10*
%TO.P,INA219,1,VCC*%
%TO.N,+3.3V*%
X50150000Y-57120000D03*
D11*
%TO.P,INA219,2,GND*%
%TO.N,GND*%
X52690000Y-57120000D03*
%TO.P,INA219,3,SCL*%
%TO.N,Net-(A1-LV2)*%
X55230000Y-57120000D03*
%TO.P,INA219,4,SDA*%
%TO.N,Net-(A1-LV1)*%
X57770000Y-57120000D03*
%TO.P,INA219,5,VIN-*%
%TO.N,Net-(J1-Pin_4)*%
X60310000Y-57120000D03*
%TO.P,INA219,6,VIN+*%
%TO.N,Net-(J1-Pin_3)*%
X62850000Y-57120000D03*
D12*
%TO.P,INA219,SH1,SHIELD*%
%TO.N,Net-(U3-SHIELD-PadSH1)*%
X46340000Y-41880000D03*
%TO.P,INA219,SH2,SHIELD*%
X66660000Y-41880000D03*
%TO.P,INA219,SH3,SHIELD*%
X46340000Y-57120000D03*
%TO.P,INA219,SH4,SHIELD*%
X66660000Y-57120000D03*
D13*
%TO.P,INA219,VIN+,VIN+*%
%TO.N,Net-(J1-Pin_3)*%
X58200000Y-43150000D03*
%TO.P,INA219,VIN-,VIN-*%
%TO.N,Net-(J1-Pin_4)*%
X54700000Y-43150000D03*
%TD*%
D14*
%TO.P,J8,1,Pin_1*%
%TO.N,+5V*%
X86500000Y-77500000D03*
D15*
%TO.P,J8,2,Pin_2*%
%TO.N,Net-(A1-HV1)*%
X86500000Y-80000000D03*
%TO.P,J8,3,Pin_3*%
%TO.N,Net-(A1-HV2)*%
X86500000Y-82500000D03*
%TO.P,J8,4,Pin_4*%
%TO.N,GND*%
X86500000Y-85000000D03*
%TD*%
D20*
%TO.P,J7,1,Pin_1*%
%TO.N,+3.3V*%
X82500000Y-65000000D03*
D17*
%TO.P,J7,2,Pin_2*%
%TO.N,Net-(A1-LV1)*%
X85000000Y-65000000D03*
%TO.P,J7,3,Pin_3*%
%TO.N,Net-(A1-LV2)*%
X87500000Y-65000000D03*
%TO.P,J7,4,Pin_4*%
%TO.N,GND*%
X90000000Y-65000000D03*
%TO.P,J7,5,Pin_5*%
%TO.N,+5V*%
X92500000Y-65000000D03*
%TD*%
D20*
%TO.P,J9,1,Pin_1*%
%TO.N,+3.3V*%
X115500000Y-71000000D03*
D17*
%TO.P,J9,2,Pin_2*%
%TO.N,Net-(J9-Pin_2)*%
X118000000Y-71000000D03*
%TO.P,J9,3,Pin_3*%
%TO.N,GND*%
X120500000Y-71000000D03*
%TD*%
D10*
%TO.P,ADS1115,1,A3*%
%TO.N,unconnected-(U1-A3-Pad1)*%
X123280000Y-57500000D03*
D11*
%TO.P,ADS1115,2,A2*%
%TO.N,unconnected-(U1-A2-Pad2)*%
X120740000Y-57500000D03*
%TO.P,ADS1115,3,A1*%
%TO.N,Net-(J9-Pin_2)*%
X118200000Y-57500000D03*
%TO.P,ADS1115,4,A0*%
%TO.N,Net-(J10-Pin_2)*%
X115660000Y-57500000D03*
%TO.P,ADS1115,5,ALERT*%
%TO.N,unconnected-(U1-ALERT-Pad5)*%
X113120000Y-57500000D03*
%TO.P,ADS1115,6,ADDR*%
%TO.N,unconnected-(U1-ADDR-Pad6)*%
X110580000Y-57500000D03*
%TO.P,ADS1115,7,SDA*%
%TO.N,Net-(A1-LV1)*%
X108040000Y-57500000D03*
%TO.P,ADS1115,8,SCL*%
%TO.N,Net-(A1-LV2)*%
X105500000Y-57500000D03*
%TO.P,ADS1115,9,GND*%
%TO.N,GND*%
X102960000Y-57500000D03*
%TO.P,ADS1115,10,VDD*%
%TO.N,+3.3V*%
X100420000Y-57500000D03*
D12*
%TO.P,ADS1115,P1*%
%TO.N,N/C*%
X100420000Y-44800000D03*
%TO.P,ADS1115,P2*%
X123280000Y-44800000D03*
%TD*%
D21*
%TO.P,J6,1,Pin_1*%
%TO.N,GND*%
X50000000Y-79920000D03*
D15*
%TO.P,J6,2,Pin_2*%
%TO.N,Net-(A1-HV4)*%
X50000000Y-77420000D03*
%TO.P,J6,3,Pin_3*%
%TO.N,Net-(A1-HV3)*%
X50000000Y-74920000D03*
%TO.P,J6,4,Pin_4*%
%TO.N,+5V*%
X50000000Y-72420000D03*
%TD*%
D22*
%TO.N,+5V*%
X77500000Y-77500000D03*
X66880000Y-77500000D03*
D23*
%TO.N,Net-(A1-HV4)*%
X70448700Y-84152500D03*
%TO.N,Net-(A1-LV2)*%
X78500000Y-53500000D03*
%TD*%
D24*
%TO.N,+5V*%
X66880000Y-77500000D02*
X66880000Y-79420000D01*
X55080000Y-77500000D02*
X50000000Y-72420000D01*
X86500000Y-77500000D02*
X77500000Y-77500000D01*
X66880000Y-77500000D02*
X55080000Y-77500000D01*
D25*
%TO.N,Net-(U2-SHIELD-PadSH1)*%
X73490000Y-41880000D02*
X73641300Y-41728700D01*
X93658700Y-41728700D02*
X93810000Y-41880000D01*
%TO.N,Net-(U3-SHIELD-PadSH1)*%
X66660000Y-41880000D02*
X66508700Y-41728700D01*
X46491300Y-41728700D02*
X46340000Y-41880000D01*
%TO.N,Net-(J1-Pin_1)*%
X82500000Y-59765200D02*
X87354800Y-59765200D01*
X82500000Y-59765200D02*
X76240200Y-66025000D01*
X87354800Y-59765200D02*
X90000000Y-57120000D01*
X76240200Y-66025000D02*
X73250000Y-66025000D01*
%TO.N,Net-(J1-Pin_2)*%
X90492915Y-55930000D02*
X88650000Y-55930000D01*
X91190000Y-56627085D02*
X90492915Y-55930000D01*
X88650000Y-55930000D02*
X87460000Y-57120000D01*
X72026000Y-67301000D02*
X75865200Y-67301000D01*
X75865200Y-67301000D02*
X83000000Y-60166200D01*
X70750000Y-66025000D02*
X72026000Y-67301000D01*
X83000000Y-60166200D02*
X88636715Y-60166200D01*
X88636715Y-60166200D02*
X91190000Y-57612915D01*
X91190000Y-57612915D02*
X91190000Y-56627085D01*
D24*
%TO.N,+3.3V*%
X75859300Y-56399700D02*
X75859300Y-57120000D01*
X103568800Y-72568800D02*
X102000000Y-71000000D01*
X50150000Y-57120000D02*
X52354800Y-54915200D01*
X115500000Y-71000000D02*
X113931200Y-72568800D01*
X77300000Y-57120000D02*
X75859300Y-57120000D01*
X88500000Y-71000000D02*
X102000000Y-71000000D01*
X74374800Y-54915200D02*
X75859300Y-56399700D01*
X52354800Y-54915200D02*
X74374800Y-54915200D01*
X113931200Y-72568800D02*
X103568800Y-72568800D01*
X82500000Y-65000000D02*
X88500000Y-71000000D01*
D25*
%TO.N,Net-(A1-HV2)*%
X64340000Y-79420000D02*
X67420000Y-82500000D01*
X67420000Y-82500000D02*
X86500000Y-82500000D01*
%TO.N,Net-(A1-LV4)*%
X72878700Y-91201300D02*
X54281300Y-91201300D01*
X52000000Y-88920000D02*
X51000000Y-88920000D01*
X74500000Y-89580000D02*
X72878700Y-91201300D01*
X54281300Y-91201300D02*
X52000000Y-88920000D01*
%TO.N,Net-(A1-LV3)*%
X62701800Y-86420000D02*
X51000000Y-86420000D01*
X71960000Y-89580000D02*
X70747300Y-90792700D01*
X65539400Y-89257600D02*
X62701800Y-86420000D01*
X66380800Y-90792700D02*
X65539400Y-89951300D01*
X70747300Y-90792700D02*
X66380800Y-90792700D01*
X65539400Y-89951300D02*
X65539400Y-89257600D01*
%TO.N,Net-(A1-HV3)*%
X66336100Y-80602200D02*
X65545000Y-79811100D01*
X71960000Y-79420000D02*
X70777800Y-80602200D01*
X50000000Y-74920000D02*
X50000000Y-76071700D01*
X65545000Y-79811100D02*
X65545000Y-79052000D01*
X53376900Y-78296900D02*
X51151700Y-76071700D01*
X65545000Y-79052000D02*
X64789900Y-78296900D01*
X64789900Y-78296900D02*
X53376900Y-78296900D01*
X51151700Y-76071700D02*
X50000000Y-76071700D01*
X70777800Y-80602200D02*
X66336100Y-80602200D01*
%TO.N,Net-(A1-HV1)*%
X70697900Y-83550800D02*
X65930800Y-83550800D01*
X86951700Y-81151700D02*
X87849800Y-82049800D01*
X87060600Y-83696000D02*
X70843100Y-83696000D01*
X87849800Y-82906800D02*
X87060600Y-83696000D01*
X65930800Y-83550800D02*
X61800000Y-79420000D01*
X86500000Y-80000000D02*
X86500000Y-81151700D01*
X87849800Y-82049800D02*
X87849800Y-82906800D01*
X70843100Y-83696000D02*
X70697900Y-83550800D01*
X86500000Y-81151700D02*
X86951700Y-81151700D01*
%TO.N,Net-(A1-HV4)*%
X50000000Y-78571700D02*
X51151700Y-78571700D01*
X56732500Y-84152500D02*
X70448700Y-84152500D01*
X50000000Y-77420000D02*
X50000000Y-78571700D01*
X51151700Y-78571700D02*
X56732500Y-84152500D01*
%TO.N,Net-(A1-LV1)*%
X102958800Y-62581200D02*
X108040000Y-57500000D01*
X88138600Y-62581200D02*
X102958800Y-62581200D01*
X85000000Y-65000000D02*
X86151700Y-65000000D01*
X83018300Y-59021700D02*
X84920000Y-57120000D01*
X57770000Y-57120000D02*
X59671700Y-59021700D01*
X59671700Y-59021700D02*
X83018300Y-59021700D01*
X86151700Y-65000000D02*
X86151700Y-64568100D01*
X86151700Y-64568100D02*
X88138600Y-62581200D01*
%TO.N,Net-(A1-LV2)*%
X84337400Y-55162600D02*
X82380000Y-57120000D01*
X106690000Y-56310000D02*
X105500000Y-57500000D01*
X105500000Y-57500000D02*
X103162600Y-55162600D01*
X78760000Y-53500000D02*
X78500000Y-53500000D01*
X108532915Y-56310000D02*
X106690000Y-56310000D01*
X82380000Y-57120000D02*
X78760000Y-53500000D01*
X104240715Y-62982200D02*
X109230000Y-57992915D01*
X89517800Y-62982200D02*
X104240715Y-62982200D01*
X109230000Y-57007085D02*
X108532915Y-56310000D01*
X109230000Y-57992915D02*
X109230000Y-57007085D01*
X87500000Y-65000000D02*
X89517800Y-62982200D01*
X103162600Y-55162600D02*
X84337400Y-55162600D01*
%TD*%
%TA.AperFunction,Conductor*%
%TO.N,GND*%
G36*
X79374075Y-57312993D02*
G01*
X79439901Y-57427007D01*
X79532993Y-57520099D01*
X79647007Y-57585925D01*
X79710590Y-57602962D01*
X79050360Y-58263191D01*
X79052271Y-58287471D01*
X79049411Y-58301081D01*
X79051391Y-58314847D01*
X79042370Y-58334598D01*
X79037907Y-58355848D01*
X79028143Y-58365752D01*
X79022366Y-58378403D01*
X79004099Y-58390142D01*
X78988856Y-58405605D01*
X78974084Y-58409431D01*
X78963588Y-58416177D01*
X78928653Y-58421200D01*
X78748033Y-58421200D01*
X78680994Y-58401515D01*
X78635239Y-58348711D01*
X78625295Y-58279553D01*
X78631851Y-58253867D01*
X78662161Y-58172600D01*
X78683091Y-58116483D01*
X78689500Y-58056873D01*
X78689499Y-57968305D01*
X78709183Y-57901270D01*
X78725818Y-57880627D01*
X79357037Y-57249407D01*
X79374075Y-57312993D01*
G37*
%TD.AperFunction*%
%TA.AperFunction,Conductor*%
G36*
X80983191Y-57909639D02*
G01*
X80983191Y-57909638D01*
X81009372Y-57873605D01*
X81064702Y-57830939D01*
X81134315Y-57824960D01*
X81196110Y-57857565D01*
X81210008Y-57873605D01*
X81320142Y-58025192D01*
X81320146Y-58025197D01*
X81474804Y-58179855D01*
X81498239Y-58196881D01*
X81540906Y-58252211D01*
X81546886Y-58321824D01*
X81514280Y-58383619D01*
X81453442Y-58417977D01*
X81425355Y-58421200D01*
X80751346Y-58421200D01*
X80684307Y-58401515D01*
X80638552Y-58348711D01*
X80627728Y-58287471D01*
X80629638Y-58263190D01*
X79969409Y-57602962D01*
X80032993Y-57585925D01*
X80147007Y-57520099D01*
X80240099Y-57427007D01*
X80305925Y-57312993D01*
X80322962Y-57249409D01*
X80983191Y-57909639D01*
G37*
%TD.AperFunction*%
%TA.AperFunction,Conductor*%
G36*
X54574128Y-55685385D02*
G01*
X54619883Y-55738189D01*
X54629827Y-55807347D01*
X54600802Y-55870903D01*
X54563384Y-55900184D01*
X54501744Y-55931591D01*
X54501743Y-55931592D01*
X54324806Y-56060142D01*
X54170146Y-56214802D01*
X54170142Y-56214807D01*
X54060008Y-56366394D01*
X54004678Y-56409060D01*
X53935065Y-56415039D01*
X53873270Y-56382433D01*
X53859372Y-56366394D01*
X53833192Y-56330360D01*
X53833191Y-56330360D01*
X53172962Y-56990589D01*
X53155925Y-56927007D01*
X53090099Y-56812993D01*
X52997007Y-56719901D01*
X52882993Y-56654075D01*
X52819408Y-56637037D01*
X53479638Y-55976807D01*
X53479638Y-55976806D01*
X53417995Y-55932021D01*
X53417993Y-55932020D01*
X53355513Y-55900185D01*
X53304717Y-55852210D01*
X53287922Y-55784390D01*
X53310459Y-55718255D01*
X53365174Y-55674803D01*
X53411808Y-55665700D01*
X54507089Y-55665700D01*
X54574128Y-55685385D01*
G37*
%TD.AperFunction*%
%TA.AperFunction,Conductor*%
G36*
X125003736Y-35500726D02*
G01*
X125293796Y-35518271D01*
X125308659Y-35520076D01*
X125590798Y-35571780D01*
X125605335Y-35575363D01*
X125879172Y-35660695D01*
X125893163Y-35666000D01*
X126154743Y-35783727D01*
X126167989Y-35790680D01*
X126413465Y-35939075D01*
X126425776Y-35947573D01*
X126651573Y-36124473D01*
X126662781Y-36134403D01*
X126865596Y-36337218D01*
X126875526Y-36348426D01*
X126995481Y-36501538D01*
X127052422Y-36574217D01*
X127060928Y-36586540D01*
X127209316Y-36832004D01*
X127216275Y-36845263D01*
X127333997Y-37106831D01*
X127339306Y-37120832D01*
X127424635Y-37394663D01*
X127428219Y-37409201D01*
X127479923Y-37691340D01*
X127481728Y-37706205D01*
X127499274Y-37996263D01*
X127499500Y-38003750D01*
X127499500Y-95996249D01*
X127499274Y-96003736D01*
X127481728Y-96293794D01*
X127479923Y-96308659D01*
X127428219Y-96590798D01*
X127424635Y-96605336D01*
X127339306Y-96879167D01*
X127333997Y-96893168D01*
X127216275Y-97154736D01*
X127209316Y-97167995D01*
X127060928Y-97413459D01*
X127052422Y-97425782D01*
X126875526Y-97651573D01*
X126865596Y-97662781D01*
X126662781Y-97865596D01*
X126651573Y-97875526D01*
X126425782Y-98052422D01*
X126413459Y-98060928D01*
X126167995Y-98209316D01*
X126154736Y-98216275D01*
X125893168Y-98333997D01*
X125879167Y-98339306D01*
X125605336Y-98424635D01*
X125590798Y-98428219D01*
X125308659Y-98479923D01*
X125293794Y-98481728D01*
X125003736Y-98499274D01*
X124996249Y-98499500D01*
X43003751Y-98499500D01*
X42996264Y-98499274D01*
X42706205Y-98481728D01*
X42691340Y-98479923D01*
X42409201Y-98428219D01*
X42394663Y-98424635D01*
X42120832Y-98339306D01*
X42106831Y-98333997D01*
X41845263Y-98216275D01*
X41832004Y-98209316D01*
X41586540Y-98060928D01*
X41574217Y-98052422D01*
X41348426Y-97875526D01*
X41337218Y-97865596D01*
X41134403Y-97662781D01*
X41124473Y-97651573D01*
X41094809Y-97613710D01*
X40947573Y-97425776D01*
X40939075Y-97413465D01*
X40790680Y-97167989D01*
X40783727Y-97154743D01*
X40666000Y-96893163D01*
X40660693Y-96879167D01*
X40575364Y-96605336D01*
X40571780Y-96590798D01*
X40520075Y-96308657D01*
X40518271Y-96293794D01*
X40500726Y-96003736D01*
X40500500Y-95996249D01*
X40500500Y-95888549D01*
X41299500Y-95888549D01*
X41299500Y-96111450D01*
X41299501Y-96111466D01*
X41328594Y-96332452D01*
X41328595Y-96332457D01*
X41328596Y-96332463D01*
X41386290Y-96547780D01*
X41386293Y-96547790D01*
X41471593Y-96753722D01*
X41471595Y-96753726D01*
X41583052Y-96946774D01*
X41583057Y-96946780D01*
X41583058Y-96946782D01*
X41718751Y-97123622D01*
X41718757Y-97123629D01*
X41876370Y-97281242D01*
X41876376Y-97281247D01*
X42053226Y-97416948D01*
X42246274Y-97528405D01*
X42452219Y-97613710D01*
X42667537Y-97671404D01*
X42888543Y-97700500D01*
X42888550Y-97700500D01*
X43111450Y-97700500D01*
X43111457Y-97700500D01*
X43332463Y-97671404D01*
X43547781Y-97613710D01*
X43753726Y-97528405D01*
X43946774Y-97416948D01*
X44123624Y-97281247D01*
X44281247Y-97123624D01*
X44416948Y-96946774D01*
X44528405Y-96753726D01*
X44613710Y-96547781D01*
X44671404Y-96332463D01*
X44700500Y-96111457D01*
X44700500Y-95888543D01*
X44671404Y-95667537D01*
X44613710Y-95452219D01*
X44528405Y-95246274D01*
X44416948Y-95053226D01*
X44281247Y-94876376D01*
X44281242Y-94876370D01*
X44123629Y-94718757D01*
X44123622Y-94718751D01*
X43946782Y-94583058D01*
X43946780Y-94583057D01*
X43946774Y-94583052D01*
X43753726Y-94471595D01*
X43753722Y-94471593D01*
X43547790Y-94386293D01*
X43547783Y-94386291D01*
X43547781Y-94386290D01*
X43332463Y-94328596D01*
X43332457Y-94328595D01*
X43332452Y-94328594D01*
X43111466Y-94299501D01*
X43111463Y-94299500D01*
X43111457Y-94299500D01*
X42888543Y-94299500D01*
X42888537Y-94299500D01*
X42888533Y-94299501D01*
X42667547Y-94328594D01*
X42667540Y-94328595D01*
X42667537Y-94328596D01*
X42452219Y-94386290D01*
X42452209Y-94386293D01*
X42246277Y-94471593D01*
X42246273Y-94471595D01*
X42053226Y-94583052D01*
X42053217Y-94583058D01*
X41876377Y-94718751D01*
X41876370Y-94718757D01*
X41718757Y-94876370D01*
X41718751Y-94876377D01*
X41583058Y-95053217D01*
X41583052Y-95053226D01*
X41471595Y-95246273D01*
X41471593Y-95246277D01*
X41386293Y-95452209D01*
X41386290Y-95452219D01*
X41328597Y-95667534D01*
X41328594Y-95667547D01*
X41299501Y-95888533D01*
X41299500Y-95888549D01*
X40500500Y-95888549D01*
X40500500Y-85769983D01*
X49524500Y-85769983D01*
X49524500Y-87070001D01*
X49524501Y-87070018D01*
X49535000Y-87172796D01*
X49535001Y-87172799D01*
X49559349Y-87246274D01*
X49590186Y-87339334D01*
X49682288Y-87488656D01*
X49806344Y-87612712D01*
X49899641Y-87670258D01*
X49961120Y-87708178D01*
X50007845Y-87760126D01*
X50019068Y-87829088D01*
X49991224Y-87893171D01*
X49983706Y-87901398D01*
X49844889Y-88040215D01*
X49719951Y-88212179D01*
X49623444Y-88401585D01*
X49557753Y-88603760D01*
X49524500Y-88813713D01*
X49524500Y-89026286D01*
X49555967Y-89224964D01*
X49557754Y-89236243D01*
X49570387Y-89275124D01*
X49623444Y-89438414D01*
X49719951Y-89627820D01*
X49844890Y-89799786D01*
X49995209Y-89950105D01*
X49995214Y-89950109D01*
X50159793Y-90069682D01*
X50202459Y-90125011D01*
X50208438Y-90194625D01*
X50175833Y-90256420D01*
X50159793Y-90270318D01*
X49995214Y-90389890D01*
X49995209Y-90389894D01*
X49844890Y-90540213D01*
X49719951Y-90712179D01*
X49623444Y-90901585D01*
X49557753Y-91103760D01*
X49524500Y-91313713D01*
X49524500Y-91526286D01*
X49557072Y-91731942D01*
X49557754Y-91736243D01*
X49579055Y-91801801D01*
X49623444Y-91938414D01*
X49719951Y-92127820D01*
X49844890Y-92299786D01*
X49995213Y-92450109D01*
X50167179Y-92575048D01*
X50167181Y-92575049D01*
X50167184Y-92575051D01*
X50356588Y-92671557D01*
X50558757Y-92737246D01*
X50768713Y-92770500D01*
X50768714Y-92770500D01*
X51231286Y-92770500D01*
X51231287Y-92770500D01*
X51441243Y-92737246D01*
X51643412Y-92671557D01*
X51832816Y-92575051D01*
X51854789Y-92559086D01*
X52004786Y-92450109D01*
X52004788Y-92450106D01*
X52004792Y-92450104D01*
X52155104Y-92299792D01*
X52155106Y-92299788D01*
X52155109Y-92299786D01*
X52280048Y-92127820D01*
X52280047Y-92127820D01*
X52280051Y-92127816D01*
X52376557Y-91938412D01*
X52442246Y-91736243D01*
X52475500Y-91526287D01*
X52475500Y-91313713D01*
X52442246Y-91103757D01*
X52376557Y-90901588D01*
X52280051Y-90712184D01*
X52280049Y-90712181D01*
X52280048Y-90712179D01*
X52155109Y-90540213D01*
X52004792Y-90389896D01*
X52004756Y-90389870D01*
X51840204Y-90270316D01*
X51823288Y-90248379D01*
X51803840Y-90228654D01*
X51802252Y-90221100D01*
X51797540Y-90214989D01*
X51795169Y-90187387D01*
X51789473Y-90160277D01*
X51792221Y-90153064D01*
X51791561Y-90145376D01*
X51804487Y-90120876D01*
X51814353Y-90094988D01*
X51822199Y-90087307D01*
X51824166Y-90083580D01*
X51839486Y-90070209D01*
X51839848Y-90069941D01*
X52004792Y-89950104D01*
X52011736Y-89943159D01*
X52019225Y-89937636D01*
X52043637Y-89928727D01*
X52066440Y-89916268D01*
X52075925Y-89916943D01*
X52084861Y-89913683D01*
X52110215Y-89919387D01*
X52136133Y-89921234D01*
X52145675Y-89927365D01*
X52153027Y-89929019D01*
X52161281Y-89937391D01*
X52180511Y-89949746D01*
X53796439Y-91565674D01*
X53796449Y-91565685D01*
X53800779Y-91570015D01*
X53800780Y-91570016D01*
X53912584Y-91681820D01*
X53912586Y-91681821D01*
X53912590Y-91681824D01*
X54006841Y-91736239D01*
X54049516Y-91760877D01*
X54161319Y-91790834D01*
X54202242Y-91801800D01*
X54202243Y-91801800D01*
X72792031Y-91801800D01*
X72792047Y-91801801D01*
X72799643Y-91801801D01*
X72957754Y-91801801D01*
X72957757Y-91801801D01*
X73110485Y-91760877D01*
X73160604Y-91731939D01*
X73247416Y-91681820D01*
X73359220Y-91570016D01*
X73359220Y-91570014D01*
X73369428Y-91559807D01*
X73369430Y-91559804D01*
X74085473Y-90843760D01*
X74146794Y-90810277D01*
X74199521Y-90810841D01*
X74199552Y-90810651D01*
X74200843Y-90810855D01*
X74202099Y-90810869D01*
X74204352Y-90811409D01*
X74204364Y-90811413D01*
X74400639Y-90842500D01*
X74400640Y-90842500D01*
X74599360Y-90842500D01*
X74599361Y-90842500D01*
X74795636Y-90811413D01*
X74984632Y-90750005D01*
X75161694Y-90659787D01*
X75322464Y-90542981D01*
X75462981Y-90402464D01*
X75579787Y-90241694D01*
X75670005Y-90064632D01*
X75731413Y-89875636D01*
X75762500Y-89679361D01*
X75762500Y-89480639D01*
X75731413Y-89284364D01*
X75679820Y-89125576D01*
X75670006Y-89095370D01*
X75670005Y-89095367D01*
X75594292Y-88946774D01*
X75579787Y-88918306D01*
X75462981Y-88757536D01*
X75322464Y-88617019D01*
X75161694Y-88500213D01*
X75142372Y-88490368D01*
X74984632Y-88409994D01*
X74984629Y-88409993D01*
X74795637Y-88348587D01*
X74693764Y-88332452D01*
X74599361Y-88317500D01*
X74400639Y-88317500D01*
X74335214Y-88327862D01*
X74204362Y-88348587D01*
X74015370Y-88409993D01*
X74015367Y-88409994D01*
X73838305Y-88500213D01*
X73677533Y-88617021D01*
X73537021Y-88757533D01*
X73420213Y-88918305D01*
X73340485Y-89074780D01*
X73292510Y-89125576D01*
X73224689Y-89142371D01*
X73158554Y-89119833D01*
X73119515Y-89074780D01*
X73054292Y-88946774D01*
X73039787Y-88918306D01*
X72922981Y-88757536D01*
X72782464Y-88617019D01*
X72621694Y-88500213D01*
X72602372Y-88490368D01*
X72444632Y-88409994D01*
X72444629Y-88409993D01*
X72255637Y-88348587D01*
X72153764Y-88332452D01*
X72059361Y-88317500D01*
X71860639Y-88317500D01*
X71795214Y-88327862D01*
X71664362Y-88348587D01*
X71475370Y-88409993D01*
X71475367Y-88409994D01*
X71298305Y-88500213D01*
X71137533Y-88617021D01*
X70997021Y-88757533D01*
X70880213Y-88918305D01*
X70800204Y-89075331D01*
X70752229Y-89126127D01*
X70684408Y-89142922D01*
X70618273Y-89120384D01*
X70579234Y-89075331D01*
X70499358Y-88918567D01*
X70472268Y-88881283D01*
X69801000Y-89552551D01*
X69801000Y-89529840D01*
X69775036Y-89432939D01*
X69724876Y-89346060D01*
X69653940Y-89275124D01*
X69567061Y-89224964D01*
X69470160Y-89199000D01*
X69447447Y-89199000D01*
X70118716Y-88527731D01*
X70118715Y-88527730D01*
X70081432Y-88500641D01*
X69904437Y-88410457D01*
X69715522Y-88349075D01*
X69519321Y-88318000D01*
X69320679Y-88318000D01*
X69124479Y-88349075D01*
X69124476Y-88349075D01*
X68935562Y-88410457D01*
X68758564Y-88500643D01*
X68721283Y-88527729D01*
X68721282Y-88527730D01*
X69392554Y-89199000D01*
X69369840Y-89199000D01*
X69272939Y-89224964D01*
X69186060Y-89275124D01*
X69115124Y-89346060D01*
X69064964Y-89432939D01*
X69039000Y-89529840D01*
X69039000Y-89552552D01*
X68367730Y-88881282D01*
X68367729Y-88881283D01*
X68340641Y-88918566D01*
X68260764Y-89075332D01*
X68212790Y-89126127D01*
X68144969Y-89142922D01*
X68078834Y-89120384D01*
X68039796Y-89075332D01*
X67959787Y-88918306D01*
X67842981Y-88757536D01*
X67702464Y-88617019D01*
X67541694Y-88500213D01*
X67522372Y-88490368D01*
X67364632Y-88409994D01*
X67364629Y-88409993D01*
X67175637Y-88348587D01*
X67073764Y-88332452D01*
X66979361Y-88317500D01*
X66780639Y-88317500D01*
X66715214Y-88327862D01*
X66584362Y-88348587D01*
X66395370Y-88409993D01*
X66395367Y-88409994D01*
X66218305Y-88500213D01*
X66057533Y-88617021D01*
X66057532Y-88617022D01*
X65990474Y-88684079D01*
X65929150Y-88717564D01*
X65859459Y-88712578D01*
X65815113Y-88684078D01*
X65019584Y-87888549D01*
X122299500Y-87888549D01*
X122299500Y-88111450D01*
X122299501Y-88111466D01*
X122328594Y-88332452D01*
X122328595Y-88332457D01*
X122328596Y-88332463D01*
X122386290Y-88547780D01*
X122386293Y-88547790D01*
X122453697Y-88710517D01*
X122471595Y-88753726D01*
X122583052Y-88946774D01*
X122583057Y-88946780D01*
X122583058Y-88946782D01*
X122718751Y-89123622D01*
X122718757Y-89123629D01*
X122876370Y-89281242D01*
X122876377Y-89281248D01*
X122880438Y-89284364D01*
X123053226Y-89416948D01*
X123246274Y-89528405D01*
X123452219Y-89613710D01*
X123667537Y-89671404D01*
X123888543Y-89700500D01*
X123888550Y-89700500D01*
X124111450Y-89700500D01*
X124111457Y-89700500D01*
X124332463Y-89671404D01*
X124547781Y-89613710D01*
X124753726Y-89528405D01*
X124946774Y-89416948D01*
X125123624Y-89281247D01*
X125281247Y-89123624D01*
X125416948Y-88946774D01*
X125528405Y-88753726D01*
X125613710Y-88547781D01*
X125671404Y-88332463D01*
X125700500Y-88111457D01*
X125700500Y-87888543D01*
X125671404Y-87667537D01*
X125613710Y-87452219D01*
X125528405Y-87246274D01*
X125416948Y-87053226D01*
X125281247Y-86876376D01*
X125281242Y-86876370D01*
X125123629Y-86718757D01*
X125123622Y-86718751D01*
X124946782Y-86583058D01*
X124946780Y-86583057D01*
X124946774Y-86583052D01*
X124753726Y-86471595D01*
X124753722Y-86471593D01*
X124547790Y-86386293D01*
X124547783Y-86386291D01*
X124547781Y-86386290D01*
X124332463Y-86328596D01*
X124332457Y-86328595D01*
X124332452Y-86328594D01*
X124111466Y-86299501D01*
X124111463Y-86299500D01*
X124111457Y-86299500D01*
X123888543Y-86299500D01*
X123888537Y-86299500D01*
X123888533Y-86299501D01*
X123667547Y-86328594D01*
X123667540Y-86328595D01*
X123667537Y-86328596D01*
X123598748Y-86347028D01*
X123452219Y-86386290D01*
X123452209Y-86386293D01*
X123246277Y-86471593D01*
X123246273Y-86471595D01*
X123053226Y-86583052D01*
X123053217Y-86583058D01*
X122876377Y-86718751D01*
X122876370Y-86718757D01*
X122718757Y-86876370D01*
X122718751Y-86876377D01*
X122583058Y-87053217D01*
X122583052Y-87053226D01*
X122471595Y-87246273D01*
X122471593Y-87246277D01*
X122386293Y-87452209D01*
X122386290Y-87452219D01*
X122328597Y-87667534D01*
X122328594Y-87667547D01*
X122299501Y-87888533D01*
X122299500Y-87888549D01*
X65019584Y-87888549D01*
X63189390Y-86058355D01*
X63189388Y-86058352D01*
X63070517Y-85939481D01*
X63070516Y-85939480D01*
X62983704Y-85889360D01*
X62983704Y-85889359D01*
X62983700Y-85889358D01*
X62933585Y-85860423D01*
X62780857Y-85819499D01*
X62622743Y-85819499D01*
X62615147Y-85819499D01*
X62615131Y-85819500D01*
X52592535Y-85819500D01*
X52525496Y-85799815D01*
X52479741Y-85747011D01*
X52469177Y-85708102D01*
X52468663Y-85703071D01*
X52464999Y-85667203D01*
X52409814Y-85500666D01*
X52317712Y-85351344D01*
X52193656Y-85227288D01*
X52044334Y-85135186D01*
X51877797Y-85080001D01*
X51877795Y-85080000D01*
X51775010Y-85069500D01*
X50224998Y-85069500D01*
X50224981Y-85069501D01*
X50122203Y-85080000D01*
X50122200Y-85080001D01*
X49955668Y-85135185D01*
X49955663Y-85135187D01*
X49806342Y-85227289D01*
X49682289Y-85351342D01*
X49590187Y-85500663D01*
X49590186Y-85500666D01*
X49535001Y-85667203D01*
X49535001Y-85667204D01*
X49535000Y-85667204D01*
X49524500Y-85769983D01*
X40500500Y-85769983D01*
X40500500Y-72313713D01*
X48524500Y-72313713D01*
X48524500Y-72526287D01*
X48534534Y-72589644D01*
X48556707Y-72729637D01*
X48557754Y-72736243D01*
X48607241Y-72888549D01*
X48623444Y-72938414D01*
X48719951Y-73127820D01*
X48844890Y-73299786D01*
X48995209Y-73450105D01*
X48995214Y-73450109D01*
X49159793Y-73569682D01*
X49202459Y-73625011D01*
X49208438Y-73694625D01*
X49175833Y-73756420D01*
X49159793Y-73770318D01*
X48995214Y-73889890D01*
X48995209Y-73889894D01*
X48844890Y-74040213D01*
X48719951Y-74212179D01*
X48623444Y-74401585D01*
X48623443Y-74401587D01*
X48623443Y-74401588D01*
X48618453Y-74416947D01*
X48557753Y-74603760D01*
X48542431Y-74700500D01*
X48524500Y-74813713D01*
X48524500Y-75026287D01*
X48557754Y-75236243D01*
X48612557Y-75404909D01*
X48623444Y-75438414D01*
X48719951Y-75627820D01*
X48844890Y-75799786D01*
X48995209Y-75950105D01*
X48995214Y-75950109D01*
X49159793Y-76069682D01*
X49202459Y-76125011D01*
X49208438Y-76194625D01*
X49175833Y-76256420D01*
X49159793Y-76270318D01*
X48995214Y-76389890D01*
X48995209Y-76389894D01*
X48844890Y-76540213D01*
X48719951Y-76712179D01*
X48623444Y-76901585D01*
X48557753Y-77103760D01*
X48536597Y-77237334D01*
X48524500Y-77313713D01*
X48524500Y-77526287D01*
X48527629Y-77546042D01*
X48554983Y-77718751D01*
X48557754Y-77736243D01*
X48619586Y-77926542D01*
X48623444Y-77938414D01*
X48719951Y-78127820D01*
X48844890Y-78299786D01*
X48984068Y-78438964D01*
X49017553Y-78500287D01*
X49012569Y-78569979D01*
X48970697Y-78625912D01*
X48961484Y-78632183D01*
X48806659Y-78727680D01*
X48806655Y-78727683D01*
X48682684Y-78851654D01*
X48590643Y-79000875D01*
X48590641Y-79000880D01*
X48535494Y-79167302D01*
X48535493Y-79167309D01*
X48525000Y-79270013D01*
X48525000Y-79670000D01*
X49595854Y-79670000D01*
X49557370Y-79736657D01*
X49525000Y-79857465D01*
X49525000Y-79982535D01*
X49557370Y-80103343D01*
X49595854Y-80170000D01*
X48525001Y-80170000D01*
X48525001Y-80569986D01*
X48535494Y-80672697D01*
X48590641Y-80839119D01*
X48590643Y-80839124D01*
X48682684Y-80988345D01*
X48806654Y-81112315D01*
X48955875Y-81204356D01*
X48955880Y-81204358D01*
X49122302Y-81259505D01*
X49122309Y-81259506D01*
X49225019Y-81269999D01*
X49749999Y-81269999D01*
X49750000Y-81269998D01*
X49750000Y-80324145D01*
X49816657Y-80362630D01*
X49937465Y-80395000D01*
X50062535Y-80395000D01*
X50183343Y-80362630D01*
X50250000Y-80324145D01*
X50250000Y-81269999D01*
X50774972Y-81269999D01*
X50774986Y-81269998D01*
X50877697Y-81259505D01*
X51044119Y-81204358D01*
X51044124Y-81204356D01*
X51193345Y-81112315D01*
X51317315Y-80988345D01*
X51409356Y-80839124D01*
X51409358Y-80839119D01*
X51464505Y-80672697D01*
X51464506Y-80672690D01*
X51474999Y-80569986D01*
X51475000Y-80569973D01*
X51475000Y-80170000D01*
X50404146Y-80170000D01*
X50442630Y-80103343D01*
X50475000Y-79982535D01*
X50475000Y-79857465D01*
X50442630Y-79736657D01*
X50404146Y-79670000D01*
X51349403Y-79670000D01*
X51416442Y-79689685D01*
X51437084Y-79706319D01*
X56247639Y-84516874D01*
X56247649Y-84516885D01*
X56251979Y-84521215D01*
X56251980Y-84521216D01*
X56363784Y-84633020D01*
X56415345Y-84662788D01*
X56450595Y-84683139D01*
X56450597Y-84683141D01*
X56488651Y-84705111D01*
X56500715Y-84712077D01*
X56653443Y-84753000D01*
X56811557Y-84753000D01*
X69868934Y-84753000D01*
X69935973Y-84772685D01*
X69937825Y-84773898D01*
X70069514Y-84861890D01*
X70069527Y-84861897D01*
X70215198Y-84922235D01*
X70215203Y-84922237D01*
X70369853Y-84952999D01*
X70369856Y-84953000D01*
X70369858Y-84953000D01*
X70527544Y-84953000D01*
X70527545Y-84952999D01*
X70682197Y-84922237D01*
X70827879Y-84861894D01*
X70958989Y-84774289D01*
X71070489Y-84662789D01*
X71158094Y-84531679D01*
X71218437Y-84385997D01*
X71218439Y-84385986D01*
X71218890Y-84384502D01*
X71219341Y-84383813D01*
X71220768Y-84380369D01*
X71221421Y-84380639D01*
X71257189Y-84326064D01*
X71321002Y-84297609D01*
X71337550Y-84296500D01*
X85015961Y-84296500D01*
X85083000Y-84316185D01*
X85128755Y-84368989D01*
X85138699Y-84438147D01*
X85126445Y-84476796D01*
X85123905Y-84481780D01*
X85058242Y-84683870D01*
X85058242Y-84683873D01*
X85047769Y-84750000D01*
X86095854Y-84750000D01*
X86057370Y-84816657D01*
X86025000Y-84937465D01*
X86025000Y-85062535D01*
X86057370Y-85183343D01*
X86095854Y-85250000D01*
X85047769Y-85250000D01*
X85058242Y-85316126D01*
X85058242Y-85316129D01*
X85123904Y-85518217D01*
X85220379Y-85707557D01*
X85345272Y-85879459D01*
X85345276Y-85879464D01*
X85495535Y-86029723D01*
X85495540Y-86029727D01*
X85667442Y-86154620D01*
X85856782Y-86251095D01*
X86058872Y-86316757D01*
X86250000Y-86347029D01*
X86250000Y-85404145D01*
X86316657Y-85442630D01*
X86437465Y-85475000D01*
X86562535Y-85475000D01*
X86683343Y-85442630D01*
X86750000Y-85404145D01*
X86750000Y-86347028D01*
X86941127Y-86316757D01*
X87143217Y-86251095D01*
X87332557Y-86154620D01*
X87504459Y-86029727D01*
X87504464Y-86029723D01*
X87654723Y-85879464D01*
X87654727Y-85879459D01*
X87779620Y-85707557D01*
X87876095Y-85518217D01*
X87941757Y-85316129D01*
X87941757Y-85316126D01*
X87952231Y-85250000D01*
X86904146Y-85250000D01*
X86942630Y-85183343D01*
X86975000Y-85062535D01*
X86975000Y-84937465D01*
X86942630Y-84816657D01*
X86904146Y-84750000D01*
X87952231Y-84750000D01*
X87941757Y-84683873D01*
X87941757Y-84683870D01*
X87876095Y-84481782D01*
X87779620Y-84292442D01*
X87654727Y-84120540D01*
X87651565Y-84116838D01*
X87653260Y-84115389D01*
X87624207Y-84062181D01*
X87629191Y-83992489D01*
X87657692Y-83948142D01*
X88208306Y-83397528D01*
X88208311Y-83397524D01*
X88218514Y-83387320D01*
X88218516Y-83387320D01*
X88330320Y-83275516D01*
X88409377Y-83138584D01*
X88450300Y-82985857D01*
X88450300Y-81970743D01*
X88409377Y-81818016D01*
X88409377Y-81818015D01*
X88365651Y-81742280D01*
X88330320Y-81681084D01*
X88218516Y-81569280D01*
X88214185Y-81564949D01*
X88214174Y-81564939D01*
X87676936Y-81027701D01*
X87643451Y-80966378D01*
X87648435Y-80896686D01*
X87664294Y-80867141D01*
X87780051Y-80707816D01*
X87876557Y-80518412D01*
X87942246Y-80316243D01*
X87975500Y-80106287D01*
X87975500Y-79893713D01*
X87942246Y-79683757D01*
X87876557Y-79481588D01*
X87780051Y-79292184D01*
X87780049Y-79292181D01*
X87780048Y-79292179D01*
X87655109Y-79120213D01*
X87516294Y-78981398D01*
X87505150Y-78960989D01*
X87490246Y-78943132D01*
X87488717Y-78930895D01*
X87482809Y-78920075D01*
X87484467Y-78896878D01*
X87483427Y-78888549D01*
X109299500Y-78888549D01*
X109299500Y-79111450D01*
X109299501Y-79111466D01*
X109328594Y-79332452D01*
X109328595Y-79332457D01*
X109328596Y-79332463D01*
X109386290Y-79547780D01*
X109386293Y-79547790D01*
X109471593Y-79753722D01*
X109471595Y-79753726D01*
X109583052Y-79946774D01*
X109583057Y-79946780D01*
X109583058Y-79946782D01*
X109718751Y-80123622D01*
X109718757Y-80123629D01*
X109876370Y-80281242D01*
X109876376Y-80281247D01*
X110053226Y-80416948D01*
X110246274Y-80528405D01*
X110452219Y-80613710D01*
X110667537Y-80671404D01*
X110888543Y-80700500D01*
X110888550Y-80700500D01*
X111111450Y-80700500D01*
X111111457Y-80700500D01*
X111332463Y-80671404D01*
X111547781Y-80613710D01*
X111753726Y-80528405D01*
X111946774Y-80416948D01*
X112123624Y-80281247D01*
X112281247Y-80123624D01*
X112416948Y-79946774D01*
X112528405Y-79753726D01*
X112613710Y-79547781D01*
X112671404Y-79332463D01*
X112700500Y-79111457D01*
X112700500Y-78888543D01*
X112671404Y-78667537D01*
X112613710Y-78452219D01*
X112600089Y-78419336D01*
X112549836Y-78298013D01*
X112528405Y-78246274D01*
X112416948Y-78053226D01*
X112281247Y-77876376D01*
X112281242Y-77876370D01*
X112123629Y-77718757D01*
X112123622Y-77718751D01*
X111946782Y-77583058D01*
X111946780Y-77583057D01*
X111946774Y-77583052D01*
X111753726Y-77471595D01*
X111753722Y-77471593D01*
X111547790Y-77386293D01*
X111547783Y-77386291D01*
X111547781Y-77386290D01*
X111332463Y-77328596D01*
X111332457Y-77328595D01*
X111332452Y-77328594D01*
X111111466Y-77299501D01*
X111111463Y-77299500D01*
X111111457Y-77299500D01*
X110888543Y-77299500D01*
X110888537Y-77299500D01*
X110888533Y-77299501D01*
X110667547Y-77328594D01*
X110667540Y-77328595D01*
X110667537Y-77328596D01*
X110452219Y-77386290D01*
X110452209Y-77386293D01*
X110246277Y-77471593D01*
X110246273Y-77471595D01*
X110053226Y-77583052D01*
X110053217Y-77583058D01*
X109876377Y-77718751D01*
X109876370Y-77718757D01*
X109718757Y-77876370D01*
X109718751Y-77876377D01*
X109583058Y-78053217D01*
X109583052Y-78053226D01*
X109471595Y-78246273D01*
X109471593Y-78246277D01*
X109386293Y-78452209D01*
X109386290Y-78452219D01*
X109347354Y-78597533D01*
X109328597Y-78667534D01*
X109328594Y-78667547D01*
X109299501Y-78888533D01*
X109299500Y-78888549D01*
X87483427Y-78888549D01*
X87481585Y-78873801D01*
X87486913Y-78862682D01*
X87487793Y-78850383D01*
X87501729Y-78831765D01*
X87511781Y-78810793D01*
X87526837Y-78798226D01*
X87529665Y-78794450D01*
X87538878Y-78788178D01*
X87544329Y-78784815D01*
X87544334Y-78784814D01*
X87693656Y-78692712D01*
X87817712Y-78568656D01*
X87909814Y-78419334D01*
X87964999Y-78252797D01*
X87975500Y-78150009D01*
X87975499Y-76849992D01*
X87964999Y-76747203D01*
X87909814Y-76580666D01*
X87817712Y-76431344D01*
X87693656Y-76307288D01*
X87544334Y-76215186D01*
X87377797Y-76160001D01*
X87377795Y-76160000D01*
X87275010Y-76149500D01*
X85724998Y-76149500D01*
X85724981Y-76149501D01*
X85622203Y-76160000D01*
X85622200Y-76160001D01*
X85455668Y-76215185D01*
X85455663Y-76215187D01*
X85306342Y-76307289D01*
X85182289Y-76431342D01*
X85090187Y-76580663D01*
X85090185Y-76580668D01*
X85062405Y-76664504D01*
X85022632Y-76721949D01*
X84958116Y-76748772D01*
X84944699Y-76749500D01*
X78035270Y-76749500D01*
X77968231Y-76729815D01*
X77966378Y-76728601D01*
X77926552Y-76701989D01*
X77926547Y-76701987D01*
X77762667Y-76634106D01*
X77762658Y-76634103D01*
X77588694Y-76599500D01*
X77588691Y-76599500D01*
X77411309Y-76599500D01*
X77411306Y-76599500D01*
X77237341Y-76634103D01*
X77237332Y-76634106D01*
X77073459Y-76701983D01*
X77073446Y-76701990D01*
X76925965Y-76800535D01*
X76925961Y-76800538D01*
X76800538Y-76925961D01*
X76800535Y-76925965D01*
X76701990Y-77073446D01*
X76701983Y-77073459D01*
X76634106Y-77237332D01*
X76634103Y-77237341D01*
X76599500Y-77411304D01*
X76599500Y-77588695D01*
X76634103Y-77762658D01*
X76634106Y-77762667D01*
X76701983Y-77926540D01*
X76701990Y-77926553D01*
X76800535Y-78074034D01*
X76800538Y-78074038D01*
X76925961Y-78199461D01*
X76925965Y-78199464D01*
X77073446Y-78298009D01*
X77073459Y-78298016D01*
X77152174Y-78330620D01*
X77237334Y-78365894D01*
X77237336Y-78365894D01*
X77237341Y-78365896D01*
X77411304Y-78400499D01*
X77411307Y-78400500D01*
X77411309Y-78400500D01*
X77588693Y-78400500D01*
X77588694Y-78400499D01*
X77658872Y-78386540D01*
X77762658Y-78365896D01*
X77762661Y-78365894D01*
X77762666Y-78365894D01*
X77926547Y-78298013D01*
X77926550Y-78298010D01*
X77926552Y-78298010D01*
X77966378Y-78271399D01*
X78033055Y-78250520D01*
X78035270Y-78250500D01*
X84944699Y-78250500D01*
X85011738Y-78270185D01*
X85057493Y-78322989D01*
X85062403Y-78335492D01*
X85075172Y-78374024D01*
X85090185Y-78419331D01*
X85090187Y-78419336D01*
X85113430Y-78457019D01*
X85182288Y-78568656D01*
X85306344Y-78692712D01*
X85363036Y-78727680D01*
X85461120Y-78788178D01*
X85507845Y-78840126D01*
X85519068Y-78909088D01*
X85491224Y-78973171D01*
X85483706Y-78981398D01*
X85344889Y-79120215D01*
X85219951Y-79292179D01*
X85123444Y-79481585D01*
X85057753Y-79683760D01*
X85042359Y-79780954D01*
X85024500Y-79893713D01*
X85024500Y-80106287D01*
X85057754Y-80316243D01*
X85117391Y-80499787D01*
X85123444Y-80518414D01*
X85219951Y-80707820D01*
X85344890Y-80879786D01*
X85495209Y-81030105D01*
X85495214Y-81030109D01*
X85659793Y-81149682D01*
X85702459Y-81205011D01*
X85708438Y-81274625D01*
X85675833Y-81336420D01*
X85659793Y-81350318D01*
X85495214Y-81469890D01*
X85495209Y-81469894D01*
X85344890Y-81620213D01*
X85219948Y-81792184D01*
X85219947Y-81792185D01*
X85199765Y-81831795D01*
X85151791Y-81882591D01*
X85089281Y-81899500D01*
X67720098Y-81899500D01*
X67653059Y-81879815D01*
X67632417Y-81863181D01*
X67183617Y-81414381D01*
X67150132Y-81353058D01*
X67155116Y-81283366D01*
X67196988Y-81227433D01*
X67262452Y-81203016D01*
X67271298Y-81202700D01*
X70691131Y-81202700D01*
X70691147Y-81202701D01*
X70698743Y-81202701D01*
X70856854Y-81202701D01*
X70856857Y-81202701D01*
X71009585Y-81161777D01*
X71059704Y-81132839D01*
X71146516Y-81082720D01*
X71258320Y-80970916D01*
X71258320Y-80970914D01*
X71268528Y-80960707D01*
X71268530Y-80960704D01*
X71545473Y-80683760D01*
X71606794Y-80650277D01*
X71659521Y-80650841D01*
X71659552Y-80650651D01*
X71660843Y-80650855D01*
X71662099Y-80650869D01*
X71664352Y-80651409D01*
X71664364Y-80651413D01*
X71860639Y-80682500D01*
X71860640Y-80682500D01*
X72059360Y-80682500D01*
X72059361Y-80682500D01*
X72255636Y-80651413D01*
X72444632Y-80590005D01*
X72621694Y-80499787D01*
X72782464Y-80382981D01*
X72922981Y-80242464D01*
X73039787Y-80081694D01*
X73119515Y-79925218D01*
X73167490Y-79874423D01*
X73235311Y-79857628D01*
X73301446Y-79880165D01*
X73340484Y-79925218D01*
X73420213Y-80081694D01*
X73537019Y-80242464D01*
X73677536Y-80382981D01*
X73838306Y-80499787D01*
X73894470Y-80528404D01*
X74015367Y-80590005D01*
X74015370Y-80590006D01*
X74088313Y-80613706D01*
X74204364Y-80651413D01*
X74400639Y-80682500D01*
X74400640Y-80682500D01*
X74599360Y-80682500D01*
X74599361Y-80682500D01*
X74795636Y-80651413D01*
X74984632Y-80590005D01*
X75161694Y-80499787D01*
X75322464Y-80382981D01*
X75462981Y-80242464D01*
X75579787Y-80081694D01*
X75670005Y-79904632D01*
X75731413Y-79715636D01*
X75762500Y-79519361D01*
X75762500Y-79320639D01*
X75731413Y-79124364D01*
X75681224Y-78969896D01*
X75670006Y-78935370D01*
X75670005Y-78935367D01*
X75611331Y-78820214D01*
X75579787Y-78758306D01*
X75462981Y-78597536D01*
X75322464Y-78457019D01*
X75161694Y-78340213D01*
X74984632Y-78249994D01*
X74984629Y-78249993D01*
X74795637Y-78188587D01*
X74697498Y-78173043D01*
X74599361Y-78157500D01*
X74400639Y-78157500D01*
X74335214Y-78167862D01*
X74204362Y-78188587D01*
X74015370Y-78249993D01*
X74015367Y-78249994D01*
X73838305Y-78340213D01*
X73677533Y-78457021D01*
X73537021Y-78597533D01*
X73420213Y-78758305D01*
X73340485Y-78914780D01*
X73292510Y-78965576D01*
X73224689Y-78982371D01*
X73158554Y-78959833D01*
X73119515Y-78914780D01*
X73083783Y-78844653D01*
X73039787Y-78758306D01*
X72922981Y-78597536D01*
X72782464Y-78457019D01*
X72621694Y-78340213D01*
X72444632Y-78249994D01*
X72444629Y-78249993D01*
X72255637Y-78188587D01*
X72157498Y-78173043D01*
X72059361Y-78157500D01*
X71860639Y-78157500D01*
X71795214Y-78167862D01*
X71664362Y-78188587D01*
X71475370Y-78249993D01*
X71475367Y-78249994D01*
X71298305Y-78340213D01*
X71137533Y-78457021D01*
X70997021Y-78597533D01*
X70880213Y-78758305D01*
X70800204Y-78915331D01*
X70752229Y-78966127D01*
X70684408Y-78982922D01*
X70618273Y-78960384D01*
X70579234Y-78915331D01*
X70499358Y-78758567D01*
X70472268Y-78721283D01*
X69801000Y-79392551D01*
X69801000Y-79369840D01*
X69775036Y-79272939D01*
X69724876Y-79186060D01*
X69653940Y-79115124D01*
X69567061Y-79064964D01*
X69470160Y-79039000D01*
X69447447Y-79039000D01*
X70118716Y-78367731D01*
X70118715Y-78367730D01*
X70081432Y-78340641D01*
X69904437Y-78250457D01*
X69715522Y-78189075D01*
X69519321Y-78158000D01*
X69320679Y-78158000D01*
X69124479Y-78189075D01*
X69124476Y-78189075D01*
X68935562Y-78250457D01*
X68758564Y-78340643D01*
X68721283Y-78367729D01*
X68721282Y-78367730D01*
X69392554Y-79039000D01*
X69369840Y-79039000D01*
X69272939Y-79064964D01*
X69186060Y-79115124D01*
X69115124Y-79186060D01*
X69064964Y-79272939D01*
X69039000Y-79369840D01*
X69039000Y-79392552D01*
X68367730Y-78721282D01*
X68367729Y-78721283D01*
X68340641Y-78758566D01*
X68260764Y-78915332D01*
X68212790Y-78966127D01*
X68144969Y-78982922D01*
X68078834Y-78960384D01*
X68039796Y-78915332D01*
X67959787Y-78758306D01*
X67842981Y-78597536D01*
X67702464Y-78457019D01*
X67676273Y-78437990D01*
X67671380Y-78433570D01*
X67656413Y-78409189D01*
X67638949Y-78386540D01*
X67637379Y-78378181D01*
X67634827Y-78374024D01*
X67635002Y-78365526D01*
X67630500Y-78341553D01*
X67630500Y-78035269D01*
X67650185Y-77968230D01*
X67651398Y-77966378D01*
X67678013Y-77926547D01*
X67745894Y-77762666D01*
X67754630Y-77718751D01*
X67780499Y-77588695D01*
X67780500Y-77588693D01*
X67780500Y-77411306D01*
X67780499Y-77411304D01*
X67745896Y-77237341D01*
X67745893Y-77237332D01*
X67678016Y-77073459D01*
X67678009Y-77073446D01*
X67579464Y-76925965D01*
X67579461Y-76925961D01*
X67454038Y-76800538D01*
X67454034Y-76800535D01*
X67306553Y-76701990D01*
X67306540Y-76701983D01*
X67142667Y-76634106D01*
X67142658Y-76634103D01*
X66968694Y-76599500D01*
X66968691Y-76599500D01*
X66791309Y-76599500D01*
X66791306Y-76599500D01*
X66617341Y-76634103D01*
X66617332Y-76634106D01*
X66453452Y-76701987D01*
X66453447Y-76701989D01*
X66413622Y-76728601D01*
X66346945Y-76749480D01*
X66344730Y-76749500D01*
X55442230Y-76749500D01*
X55375191Y-76729815D01*
X55354549Y-76713181D01*
X51529917Y-72888549D01*
X74299500Y-72888549D01*
X74299500Y-73111450D01*
X74299501Y-73111466D01*
X74328594Y-73332452D01*
X74328595Y-73332457D01*
X74328596Y-73332463D01*
X74386290Y-73547780D01*
X74386293Y-73547790D01*
X74471593Y-73753722D01*
X74471595Y-73753726D01*
X74583052Y-73946774D01*
X74583057Y-73946780D01*
X74583058Y-73946782D01*
X74718751Y-74123622D01*
X74718757Y-74123629D01*
X74876370Y-74281242D01*
X74876376Y-74281247D01*
X75053226Y-74416948D01*
X75246274Y-74528405D01*
X75376140Y-74582197D01*
X75428197Y-74603760D01*
X75452219Y-74613710D01*
X75667537Y-74671404D01*
X75888543Y-74700500D01*
X75888550Y-74700500D01*
X76111450Y-74700500D01*
X76111457Y-74700500D01*
X76332463Y-74671404D01*
X76547781Y-74613710D01*
X76753726Y-74528405D01*
X76946774Y-74416948D01*
X77123624Y-74281247D01*
X77281247Y-74123624D01*
X77416948Y-73946774D01*
X77528405Y-73753726D01*
X77613710Y-73547781D01*
X77671404Y-73332463D01*
X77700500Y-73111457D01*
X77700500Y-72888543D01*
X77671404Y-72667537D01*
X77613710Y-72452219D01*
X77596144Y-72409812D01*
X77563342Y-72330620D01*
X77528405Y-72246274D01*
X77416948Y-72053226D01*
X77300593Y-71901588D01*
X77281248Y-71876377D01*
X77281242Y-71876370D01*
X77123629Y-71718757D01*
X77123622Y-71718751D01*
X76946782Y-71583058D01*
X76946780Y-71583057D01*
X76946774Y-71583052D01*
X76753726Y-71471595D01*
X76753722Y-71471593D01*
X76547790Y-71386293D01*
X76547783Y-71386291D01*
X76547781Y-71386290D01*
X76332463Y-71328596D01*
X76332457Y-71328595D01*
X76332452Y-71328594D01*
X76111466Y-71299501D01*
X76111463Y-71299500D01*
X76111457Y-71299500D01*
X75888543Y-71299500D01*
X75888537Y-71299500D01*
X75888533Y-71299501D01*
X75667547Y-71328594D01*
X75667540Y-71328595D01*
X75667537Y-71328596D01*
X75475339Y-71380095D01*
X75452219Y-71386290D01*
X75452209Y-71386293D01*
X75246277Y-71471593D01*
X75246273Y-71471595D01*
X75053226Y-71583052D01*
X75053217Y-71583058D01*
X74876377Y-71718751D01*
X74876370Y-71718757D01*
X74718757Y-71876370D01*
X74718751Y-71876377D01*
X74583058Y-72053217D01*
X74583052Y-72053226D01*
X74471595Y-72246273D01*
X74471593Y-72246277D01*
X74386293Y-72452209D01*
X74386290Y-72452219D01*
X74328597Y-72667534D01*
X74328594Y-72667547D01*
X74299501Y-72888533D01*
X74299500Y-72888549D01*
X51529917Y-72888549D01*
X51478084Y-72836716D01*
X51444599Y-72775393D01*
X51443292Y-72729637D01*
X51453129Y-72667534D01*
X51475500Y-72526287D01*
X51475500Y-72313713D01*
X51442246Y-72103757D01*
X51376557Y-71901588D01*
X51280051Y-71712184D01*
X51280049Y-71712181D01*
X51280048Y-71712179D01*
X51155109Y-71540213D01*
X51004786Y-71389890D01*
X50832820Y-71264951D01*
X50643414Y-71168444D01*
X50643413Y-71168443D01*
X50643412Y-71168443D01*
X50441243Y-71102754D01*
X50441241Y-71102753D01*
X50441240Y-71102753D01*
X50279957Y-71077208D01*
X50231287Y-71069500D01*
X49768713Y-71069500D01*
X49720042Y-71077208D01*
X49558760Y-71102753D01*
X49356585Y-71168444D01*
X49167179Y-71264951D01*
X48995213Y-71389890D01*
X48844890Y-71540213D01*
X48719951Y-71712179D01*
X48623444Y-71901585D01*
X48557753Y-72103760D01*
X48526059Y-72303868D01*
X48524500Y-72313713D01*
X40500500Y-72313713D01*
X40500500Y-56982332D01*
X44239500Y-56982332D01*
X44239500Y-57257667D01*
X44239501Y-57257684D01*
X44275438Y-57530655D01*
X44275439Y-57530660D01*
X44275440Y-57530666D01*
X44275441Y-57530668D01*
X44346704Y-57796630D01*
X44452075Y-58051017D01*
X44452080Y-58051028D01*
X44489873Y-58116486D01*
X44589751Y-58289479D01*
X44589753Y-58289482D01*
X44589754Y-58289483D01*
X44757370Y-58507926D01*
X44757376Y-58507933D01*
X44952066Y-58702623D01*
X44952073Y-58702629D01*
X45062337Y-58787237D01*
X45170521Y-58870249D01*
X45313883Y-58953019D01*
X45408971Y-59007919D01*
X45408976Y-59007921D01*
X45408979Y-59007923D01*
X45663368Y-59113295D01*
X45929334Y-59184560D01*
X46202326Y-59220500D01*
X46202333Y-59220500D01*
X46477667Y-59220500D01*
X46477674Y-59220500D01*
X46750666Y-59184560D01*
X47016632Y-59113295D01*
X47271021Y-59007923D01*
X47509479Y-58870249D01*
X47727928Y-58702628D01*
X47922628Y-58507928D01*
X48090249Y-58289479D01*
X48227923Y-58051021D01*
X48333295Y-57796632D01*
X48404560Y-57530666D01*
X48440500Y-57257674D01*
X48440500Y-56982326D01*
X48404560Y-56709334D01*
X48333295Y-56443368D01*
X48227941Y-56189022D01*
X48227927Y-56188987D01*
X48227919Y-56188971D01*
X48224550Y-56183135D01*
X48760500Y-56183135D01*
X48760500Y-58056870D01*
X48760501Y-58056876D01*
X48766908Y-58116483D01*
X48817202Y-58251328D01*
X48817206Y-58251335D01*
X48903452Y-58366544D01*
X48903455Y-58366547D01*
X49018664Y-58452793D01*
X49018671Y-58452797D01*
X49153517Y-58503091D01*
X49153516Y-58503091D01*
X49160444Y-58503835D01*
X49213127Y-58509500D01*
X51086872Y-58509499D01*
X51146483Y-58503091D01*
X51281331Y-58452796D01*
X51396546Y-58366546D01*
X51482796Y-58251331D01*
X51533091Y-58116483D01*
X51539500Y-58056873D01*
X51539499Y-57968305D01*
X51559183Y-57901270D01*
X51575818Y-57880627D01*
X52207037Y-57249408D01*
X52224075Y-57312993D01*
X52289901Y-57427007D01*
X52382993Y-57520099D01*
X52497007Y-57585925D01*
X52560590Y-57602962D01*
X51900360Y-58263191D01*
X51962008Y-58307980D01*
X52156808Y-58407237D01*
X52156811Y-58407238D01*
X52364740Y-58474797D01*
X52580684Y-58509000D01*
X52799316Y-58509000D01*
X53015259Y-58474797D01*
X53223188Y-58407238D01*
X53223191Y-58407237D01*
X53417995Y-58307978D01*
X53479638Y-58263191D01*
X53479639Y-58263191D01*
X52819409Y-57602962D01*
X52882993Y-57585925D01*
X52997007Y-57520099D01*
X53090099Y-57427007D01*
X53155925Y-57312993D01*
X53172962Y-57249410D01*
X53833191Y-57909639D01*
X53833191Y-57909638D01*
X53859372Y-57873605D01*
X53914702Y-57830939D01*
X53984315Y-57824960D01*
X54046110Y-57857565D01*
X54060008Y-57873605D01*
X54170142Y-58025192D01*
X54170146Y-58025197D01*
X54324806Y-58179857D01*
X54475911Y-58289639D01*
X54501743Y-58308407D01*
X54620912Y-58369127D01*
X54696616Y-58407701D01*
X54696619Y-58407702D01*
X54738163Y-58421200D01*
X54904625Y-58475286D01*
X55004672Y-58491132D01*
X55120639Y-58509500D01*
X55120644Y-58509500D01*
X55339361Y-58509500D01*
X55444082Y-58492912D01*
X55555375Y-58475286D01*
X55763383Y-58407701D01*
X55958257Y-58308407D01*
X56057601Y-58236229D01*
X56135193Y-58179857D01*
X56135195Y-58179854D01*
X56135199Y-58179852D01*
X56289852Y-58025199D01*
X56399683Y-57874028D01*
X56455011Y-57831364D01*
X56524624Y-57825385D01*
X56586420Y-57857990D01*
X56600313Y-57874023D01*
X56672786Y-57973774D01*
X56710148Y-58025199D01*
X56864806Y-58179857D01*
X57015911Y-58289639D01*
X57041743Y-58308407D01*
X57160912Y-58369127D01*
X57236616Y-58407701D01*
X57236619Y-58407702D01*
X57278163Y-58421200D01*
X57444625Y-58475286D01*
X57544672Y-58491132D01*
X57660639Y-58509500D01*
X57660644Y-58509500D01*
X57879361Y-58509500D01*
X57977546Y-58493948D01*
X58095375Y-58475286D01*
X58159476Y-58454457D01*
X58229314Y-58452463D01*
X58285473Y-58484708D01*
X59186839Y-59386074D01*
X59186849Y-59386085D01*
X59191179Y-59390415D01*
X59191180Y-59390416D01*
X59302984Y-59502220D01*
X59357016Y-59533415D01*
X59439915Y-59581277D01*
X59592643Y-59622201D01*
X59592646Y-59622201D01*
X59758353Y-59622201D01*
X59758369Y-59622200D01*
X81494403Y-59622200D01*
X81561442Y-59641885D01*
X81607197Y-59694689D01*
X81617141Y-59763847D01*
X81588116Y-59827403D01*
X81582084Y-59833881D01*
X76027784Y-65388181D01*
X75966461Y-65421666D01*
X75940103Y-65424500D01*
X74724499Y-65424500D01*
X74657460Y-65404815D01*
X74611705Y-65352011D01*
X74600499Y-65300500D01*
X74600499Y-65249998D01*
X74600498Y-65249981D01*
X74589999Y-65147203D01*
X74589998Y-65147200D01*
X74565241Y-65072489D01*
X74534814Y-64980666D01*
X74442712Y-64831344D01*
X74318656Y-64707288D01*
X74169334Y-64615186D01*
X74002797Y-64560001D01*
X74002795Y-64560000D01*
X73900010Y-64549500D01*
X72599998Y-64549500D01*
X72599981Y-64549501D01*
X72497203Y-64560000D01*
X72497200Y-64560001D01*
X72330668Y-64615185D01*
X72330663Y-64615187D01*
X72181342Y-64707289D01*
X72057289Y-64831342D01*
X71961821Y-64986121D01*
X71909873Y-65032845D01*
X71840910Y-65044068D01*
X71776828Y-65016224D01*
X71768601Y-65008705D01*
X71629786Y-64869890D01*
X71457820Y-64744951D01*
X71268414Y-64648444D01*
X71268413Y-64648443D01*
X71268412Y-64648443D01*
X71066243Y-64582754D01*
X71066241Y-64582753D01*
X71066240Y-64582753D01*
X70904957Y-64557208D01*
X70856287Y-64549500D01*
X70643713Y-64549500D01*
X70595042Y-64557208D01*
X70433760Y-64582753D01*
X70231585Y-64648444D01*
X70042179Y-64744951D01*
X69870213Y-64869890D01*
X69719894Y-65020209D01*
X69719890Y-65020214D01*
X69600318Y-65184793D01*
X69544989Y-65227459D01*
X69475375Y-65233438D01*
X69413580Y-65200833D01*
X69399682Y-65184793D01*
X69280109Y-65020214D01*
X69280105Y-65020209D01*
X69129786Y-64869890D01*
X68957820Y-64744951D01*
X68768414Y-64648444D01*
X68768413Y-64648443D01*
X68768412Y-64648443D01*
X68566243Y-64582754D01*
X68566241Y-64582753D01*
X68566240Y-64582753D01*
X68404957Y-64557208D01*
X68356287Y-64549500D01*
X68143713Y-64549500D01*
X68095042Y-64557208D01*
X67933760Y-64582753D01*
X67731585Y-64648444D01*
X67542179Y-64744951D01*
X67370213Y-64869890D01*
X67219894Y-65020209D01*
X67219890Y-65020214D01*
X67100318Y-65184793D01*
X67044989Y-65227459D01*
X66975375Y-65233438D01*
X66913580Y-65200833D01*
X66899682Y-65184793D01*
X66780109Y-65020214D01*
X66780105Y-65020209D01*
X66629786Y-64869890D01*
X66457820Y-64744951D01*
X66268414Y-64648444D01*
X66268413Y-64648443D01*
X66268412Y-64648443D01*
X66066243Y-64582754D01*
X66066241Y-64582753D01*
X66066240Y-64582753D01*
X65904957Y-64557208D01*
X65856287Y-64549500D01*
X65643713Y-64549500D01*
X65595042Y-64557208D01*
X65433760Y-64582753D01*
X65231585Y-64648444D01*
X65042179Y-64744951D01*
X64870213Y-64869890D01*
X64719890Y-65020213D01*
X64594951Y-65192179D01*
X64498444Y-65381585D01*
X64432753Y-65583760D01*
X64399500Y-65793713D01*
X64399500Y-66256286D01*
X64432556Y-66464998D01*
X64432754Y-66466243D01*
X64494759Y-66657075D01*
X64498444Y-66668414D01*
X64594951Y-66857820D01*
X64719890Y-67029786D01*
X64870213Y-67180109D01*
X65042179Y-67305048D01*
X65042181Y-67305049D01*
X65042184Y-67305051D01*
X65231588Y-67401557D01*
X65433757Y-67467246D01*
X65643713Y-67500500D01*
X65643714Y-67500500D01*
X65856286Y-67500500D01*
X65856287Y-67500500D01*
X66066243Y-67467246D01*
X66268412Y-67401557D01*
X66457816Y-67305051D01*
X66479789Y-67289086D01*
X66629786Y-67180109D01*
X66629788Y-67180106D01*
X66629792Y-67180104D01*
X66780104Y-67029792D01*
X66899683Y-66865204D01*
X66955011Y-66822540D01*
X67024624Y-66816561D01*
X67086420Y-66849166D01*
X67100313Y-66865199D01*
X67219892Y-67029786D01*
X67219896Y-67029792D01*
X67370213Y-67180109D01*
X67542179Y-67305048D01*
X67542181Y-67305049D01*
X67542184Y-67305051D01*
X67731588Y-67401557D01*
X67933757Y-67467246D01*
X68143713Y-67500500D01*
X68143714Y-67500500D01*
X68356286Y-67500500D01*
X68356287Y-67500500D01*
X68566243Y-67467246D01*
X68768412Y-67401557D01*
X68957816Y-67305051D01*
X68979789Y-67289086D01*
X69129786Y-67180109D01*
X69129788Y-67180106D01*
X69129792Y-67180104D01*
X69280104Y-67029792D01*
X69399683Y-66865204D01*
X69455011Y-66822540D01*
X69524624Y-66816561D01*
X69586420Y-66849166D01*
X69600313Y-66865199D01*
X69719892Y-67029786D01*
X69719896Y-67029792D01*
X69870213Y-67180109D01*
X70042179Y-67305048D01*
X70042181Y-67305049D01*
X70042184Y-67305051D01*
X70231588Y-67401557D01*
X70433757Y-67467246D01*
X70643713Y-67500500D01*
X70643714Y-67500500D01*
X70856286Y-67500500D01*
X70856287Y-67500500D01*
X71066243Y-67467246D01*
X71202870Y-67422852D01*
X71272709Y-67420858D01*
X71328867Y-67453103D01*
X71535265Y-67659501D01*
X71657284Y-67781520D01*
X71657286Y-67781521D01*
X71657290Y-67781524D01*
X71794209Y-67860573D01*
X71794216Y-67860577D01*
X71946943Y-67901501D01*
X71946945Y-67901501D01*
X72112654Y-67901501D01*
X72112670Y-67901500D01*
X75778531Y-67901500D01*
X75778547Y-67901501D01*
X75786143Y-67901501D01*
X75944254Y-67901501D01*
X75944257Y-67901501D01*
X76096985Y-67860577D01*
X76147104Y-67831639D01*
X76233916Y-67781520D01*
X76345720Y-67669716D01*
X76345720Y-67669714D01*
X76355928Y-67659507D01*
X76355929Y-67659504D01*
X83212416Y-60803019D01*
X83273739Y-60769534D01*
X83300097Y-60766700D01*
X88550046Y-60766700D01*
X88550062Y-60766701D01*
X88557658Y-60766701D01*
X88715769Y-60766701D01*
X88715772Y-60766701D01*
X88868500Y-60725777D01*
X88918619Y-60696839D01*
X89005431Y-60646720D01*
X89117235Y-60534916D01*
X89117235Y-60534914D01*
X89127443Y-60524707D01*
X89127445Y-60524704D01*
X91558713Y-58093436D01*
X91558716Y-58093435D01*
X91670520Y-57981631D01*
X91681761Y-57962159D01*
X91691678Y-57951637D01*
X91709854Y-57941000D01*
X91725097Y-57926466D01*
X91739405Y-57923707D01*
X91751981Y-57916349D01*
X91773020Y-57917227D01*
X91793703Y-57913241D01*
X91807232Y-57918656D01*
X91821790Y-57919265D01*
X91839015Y-57931379D01*
X91858569Y-57939207D01*
X91868185Y-57951895D01*
X91878940Y-57959459D01*
X91884768Y-57973774D01*
X91896481Y-57989228D01*
X91922072Y-58051012D01*
X91922080Y-58051028D01*
X91959873Y-58116486D01*
X92059751Y-58289479D01*
X92059753Y-58289482D01*
X92059754Y-58289483D01*
X92227370Y-58507926D01*
X92227376Y-58507933D01*
X92422066Y-58702623D01*
X92422073Y-58702629D01*
X92532337Y-58787237D01*
X92640521Y-58870249D01*
X92783883Y-58953019D01*
X92878971Y-59007919D01*
X92878976Y-59007921D01*
X92878979Y-59007923D01*
X93133368Y-59113295D01*
X93399334Y-59184560D01*
X93672326Y-59220500D01*
X93672333Y-59220500D01*
X93947667Y-59220500D01*
X93947674Y-59220500D01*
X94220666Y-59184560D01*
X94486632Y-59113295D01*
X94741021Y-59007923D01*
X94979479Y-58870249D01*
X95197928Y-58702628D01*
X95392628Y-58507928D01*
X95560249Y-58289479D01*
X95697923Y-58051021D01*
X95803295Y-57796632D01*
X95874560Y-57530666D01*
X95910500Y-57257674D01*
X95910500Y-56982326D01*
X95874560Y-56709334D01*
X95803295Y-56443368D01*
X95697923Y-56188979D01*
X95697921Y-56188976D01*
X95697919Y-56188971D01*
X95559429Y-55949100D01*
X95542956Y-55881200D01*
X95565808Y-55815173D01*
X95620730Y-55771982D01*
X95666816Y-55763100D01*
X102862503Y-55763100D01*
X102891943Y-55771744D01*
X102921930Y-55778268D01*
X102926945Y-55782022D01*
X102929542Y-55782785D01*
X102950184Y-55799419D01*
X103050084Y-55899319D01*
X103083569Y-55960642D01*
X103078585Y-56030334D01*
X103036713Y-56086267D01*
X102971249Y-56110684D01*
X102962403Y-56111000D01*
X102850684Y-56111000D01*
X102634740Y-56145202D01*
X102426811Y-56212761D01*
X102426808Y-56212762D01*
X102232001Y-56312023D01*
X102170360Y-56356806D01*
X102170360Y-56356807D01*
X102830591Y-57017037D01*
X102767007Y-57034075D01*
X102652993Y-57099901D01*
X102559901Y-57192993D01*
X102494075Y-57307007D01*
X102477037Y-57370590D01*
X101816807Y-56710360D01*
X101816805Y-56710360D01*
X101790626Y-56746394D01*
X101735297Y-56789060D01*
X101665683Y-56795039D01*
X101603888Y-56762434D01*
X101589995Y-56746401D01*
X101479852Y-56594801D01*
X101325199Y-56440148D01*
X101325198Y-56440147D01*
X101325193Y-56440142D01*
X101148260Y-56311595D01*
X101148259Y-56311594D01*
X101148257Y-56311593D01*
X101034150Y-56253452D01*
X100953383Y-56212298D01*
X100953380Y-56212297D01*
X100745376Y-56144714D01*
X100529361Y-56110500D01*
X100529356Y-56110500D01*
X100310644Y-56110500D01*
X100310639Y-56110500D01*
X100094623Y-56144714D01*
X99886619Y-56212297D01*
X99886616Y-56212298D01*
X99691739Y-56311595D01*
X99514806Y-56440142D01*
X99360142Y-56594806D01*
X99231595Y-56771739D01*
X99132298Y-56966616D01*
X99132297Y-56966619D01*
X99064714Y-57174623D01*
X99030500Y-57390638D01*
X99030500Y-57609361D01*
X99064714Y-57825376D01*
X99132297Y-58033380D01*
X99132298Y-58033383D01*
X99168763Y-58104948D01*
X99225346Y-58215997D01*
X99231595Y-58228260D01*
X99360142Y-58405193D01*
X99514806Y-58559857D01*
X99680374Y-58680147D01*
X99691743Y-58688407D01*
X99819132Y-58753315D01*
X99886616Y-58787701D01*
X99886619Y-58787702D01*
X99990621Y-58821493D01*
X100094625Y-58855286D01*
X100189073Y-58870245D01*
X100310639Y-58889500D01*
X100310644Y-58889500D01*
X100529361Y-58889500D01*
X100634082Y-58872912D01*
X100745375Y-58855286D01*
X100953383Y-58787701D01*
X101148257Y-58688407D01*
X101316674Y-58566046D01*
X101325193Y-58559857D01*
X101325195Y-58559854D01*
X101325199Y-58559852D01*
X101479852Y-58405199D01*
X101589991Y-58253603D01*
X101645320Y-58210939D01*
X101714933Y-58204960D01*
X101776729Y-58237565D01*
X101790628Y-58253606D01*
X101816806Y-58289638D01*
X101816807Y-58289638D01*
X102477037Y-57629408D01*
X102494075Y-57692993D01*
X102559901Y-57807007D01*
X102652993Y-57900099D01*
X102767007Y-57965925D01*
X102830590Y-57982962D01*
X102170360Y-58643191D01*
X102232008Y-58687980D01*
X102426808Y-58787237D01*
X102426811Y-58787238D01*
X102634740Y-58854797D01*
X102850684Y-58889000D01*
X103069316Y-58889000D01*
X103285259Y-58854797D01*
X103493188Y-58787238D01*
X103493191Y-58787237D01*
X103687995Y-58687978D01*
X103749638Y-58643191D01*
X103749639Y-58643191D01*
X103089409Y-57982962D01*
X103152993Y-57965925D01*
X103267007Y-57900099D01*
X103360099Y-57807007D01*
X103425925Y-57692993D01*
X103442962Y-57629409D01*
X104103191Y-58289639D01*
X104103191Y-58289638D01*
X104129372Y-58253605D01*
X104184702Y-58210939D01*
X104254315Y-58204960D01*
X104316110Y-58237565D01*
X104330008Y-58253605D01*
X104440142Y-58405192D01*
X104440146Y-58405197D01*
X104594806Y-58559857D01*
X104760374Y-58680147D01*
X104771743Y-58688407D01*
X104899132Y-58753315D01*
X104966616Y-58787701D01*
X104966619Y-58787702D01*
X105070621Y-58821493D01*
X105174625Y-58855286D01*
X105269073Y-58870245D01*
X105390639Y-58889500D01*
X105501902Y-58889500D01*
X105568941Y-58909185D01*
X105614696Y-58961989D01*
X105624640Y-59031147D01*
X105595615Y-59094703D01*
X105589583Y-59101181D01*
X102746384Y-61944381D01*
X102685061Y-61977866D01*
X102658703Y-61980700D01*
X88225269Y-61980700D01*
X88225253Y-61980699D01*
X88217657Y-61980699D01*
X88059543Y-61980699D01*
X87952187Y-62009465D01*
X87906810Y-62021624D01*
X87906809Y-62021625D01*
X87856696Y-62050559D01*
X87856695Y-62050560D01*
X87813289Y-62075620D01*
X87769885Y-62100679D01*
X87769882Y-62100681D01*
X87658078Y-62212486D01*
X86039169Y-63831394D01*
X85977846Y-63864879D01*
X85908154Y-63859895D01*
X85878603Y-63844031D01*
X85707820Y-63719951D01*
X85518414Y-63623444D01*
X85518413Y-63623443D01*
X85518412Y-63623443D01*
X85316243Y-63557754D01*
X85316241Y-63557753D01*
X85316240Y-63557753D01*
X85154957Y-63532208D01*
X85106287Y-63524500D01*
X84893713Y-63524500D01*
X84845042Y-63532208D01*
X84683760Y-63557753D01*
X84481585Y-63623444D01*
X84292179Y-63719951D01*
X84120215Y-63844889D01*
X83981398Y-63983706D01*
X83920075Y-64017190D01*
X83850383Y-64012206D01*
X83794450Y-63970334D01*
X83788178Y-63961120D01*
X83692712Y-63806344D01*
X83568657Y-63682289D01*
X83568656Y-63682288D01*
X83419334Y-63590186D01*
X83252797Y-63535001D01*
X83252795Y-63535000D01*
X83150010Y-63524500D01*
X81849998Y-63524500D01*
X81849981Y-63524501D01*
X81747203Y-63535000D01*
X81747200Y-63535001D01*
X81580668Y-63590185D01*
X81580663Y-63590187D01*
X81431342Y-63682289D01*
X81307289Y-63806342D01*
X81215187Y-63955663D01*
X81215185Y-63955668D01*
X81210325Y-63970334D01*
X81160001Y-64122203D01*
X81160001Y-64122204D01*
X81160000Y-64122204D01*
X81149500Y-64224983D01*
X81149500Y-65775001D01*
X81149501Y-65775018D01*
X81160000Y-65877796D01*
X81160001Y-65877799D01*
X81201973Y-66004459D01*
X81215186Y-66044334D01*
X81307288Y-66193656D01*
X81431344Y-66317712D01*
X81580666Y-66409814D01*
X81747203Y-66464999D01*
X81849991Y-66475500D01*
X82862769Y-66475499D01*
X82929808Y-66495183D01*
X82950450Y-66511818D01*
X88021580Y-71582948D01*
X88021584Y-71582951D01*
X88144498Y-71665080D01*
X88144511Y-71665087D01*
X88274083Y-71718757D01*
X88281087Y-71721658D01*
X88281091Y-71721658D01*
X88281092Y-71721659D01*
X88426079Y-71750500D01*
X88426082Y-71750500D01*
X88573917Y-71750500D01*
X100535019Y-71750500D01*
X100602058Y-71770185D01*
X100647813Y-71822989D01*
X100658377Y-71861899D01*
X100660000Y-71877796D01*
X100660001Y-71877799D01*
X100715185Y-72044331D01*
X100715187Y-72044336D01*
X100750069Y-72100888D01*
X100807288Y-72193656D01*
X100931344Y-72317712D01*
X101080666Y-72409814D01*
X101247203Y-72464999D01*
X101349991Y-72475500D01*
X102362769Y-72475499D01*
X102429808Y-72495183D01*
X102450450Y-72511818D01*
X102723660Y-72785027D01*
X102985849Y-73047216D01*
X103050083Y-73111450D01*
X103090385Y-73151752D01*
X103213298Y-73233880D01*
X103213311Y-73233887D01*
X103349882Y-73290456D01*
X103349887Y-73290458D01*
X103349891Y-73290458D01*
X103349892Y-73290459D01*
X103494879Y-73319300D01*
X103494882Y-73319300D01*
X114005120Y-73319300D01*
X114103219Y-73299786D01*
X114150113Y-73290458D01*
X114286695Y-73233884D01*
X114370751Y-73177720D01*
X114409616Y-73151752D01*
X115049548Y-72511817D01*
X115110871Y-72478333D01*
X115137229Y-72475499D01*
X116150002Y-72475499D01*
X116150008Y-72475499D01*
X116252797Y-72464999D01*
X116419334Y-72409814D01*
X116568656Y-72317712D01*
X116692712Y-72193656D01*
X116784814Y-72044334D01*
X116784814Y-72044331D01*
X116788178Y-72038879D01*
X116840126Y-71992154D01*
X116909088Y-71980931D01*
X116973170Y-72008774D01*
X116981398Y-72016294D01*
X117120213Y-72155109D01*
X117292179Y-72280048D01*
X117292181Y-72280049D01*
X117292184Y-72280051D01*
X117481588Y-72376557D01*
X117683757Y-72442246D01*
X117893713Y-72475500D01*
X117893714Y-72475500D01*
X118106286Y-72475500D01*
X118106287Y-72475500D01*
X118316243Y-72442246D01*
X118518412Y-72376557D01*
X118707816Y-72280051D01*
X118754302Y-72246277D01*
X118879786Y-72155109D01*
X118879788Y-72155106D01*
X118879792Y-72155104D01*
X119030104Y-72004792D01*
X119149991Y-71839779D01*
X119205320Y-71797115D01*
X119274933Y-71791136D01*
X119336729Y-71823741D01*
X119350627Y-71839781D01*
X119470272Y-72004459D01*
X119470276Y-72004464D01*
X119620535Y-72154723D01*
X119620540Y-72154727D01*
X119792442Y-72279620D01*
X119981782Y-72376095D01*
X120183871Y-72441757D01*
X120250000Y-72452231D01*
X120250000Y-71404145D01*
X120316657Y-71442630D01*
X120437465Y-71475000D01*
X120562535Y-71475000D01*
X120683343Y-71442630D01*
X120750000Y-71404145D01*
X120750000Y-72452230D01*
X120816126Y-72441757D01*
X120816129Y-72441757D01*
X121018217Y-72376095D01*
X121207557Y-72279620D01*
X121379459Y-72154727D01*
X121379464Y-72154723D01*
X121529723Y-72004464D01*
X121529727Y-72004459D01*
X121654620Y-71832557D01*
X121751095Y-71643217D01*
X121816757Y-71441130D01*
X121816757Y-71441127D01*
X121847030Y-71250000D01*
X120904146Y-71250000D01*
X120942630Y-71183343D01*
X120975000Y-71062535D01*
X120975000Y-70937465D01*
X120942630Y-70816657D01*
X120904146Y-70750000D01*
X121847030Y-70750000D01*
X121816757Y-70558872D01*
X121816757Y-70558869D01*
X121751095Y-70356782D01*
X121654620Y-70167442D01*
X121529727Y-69995540D01*
X121529723Y-69995535D01*
X121379464Y-69845276D01*
X121379459Y-69845272D01*
X121207557Y-69720379D01*
X121018215Y-69623903D01*
X120816124Y-69558241D01*
X120750000Y-69547768D01*
X120750000Y-70595854D01*
X120683343Y-70557370D01*
X120562535Y-70525000D01*
X120437465Y-70525000D01*
X120316657Y-70557370D01*
X120250000Y-70595854D01*
X120250000Y-69547768D01*
X120249999Y-69547768D01*
X120183875Y-69558241D01*
X119981784Y-69623903D01*
X119792442Y-69720379D01*
X119620540Y-69845272D01*
X119620535Y-69845276D01*
X119470276Y-69995535D01*
X119470272Y-69995540D01*
X119350627Y-70160218D01*
X119295297Y-70202884D01*
X119225684Y-70208863D01*
X119163889Y-70176257D01*
X119149991Y-70160218D01*
X119030109Y-69995214D01*
X119030105Y-69995209D01*
X118879786Y-69844890D01*
X118707820Y-69719951D01*
X118518414Y-69623444D01*
X118518413Y-69623443D01*
X118518412Y-69623443D01*
X118316243Y-69557754D01*
X118316241Y-69557753D01*
X118316240Y-69557753D01*
X118154957Y-69532208D01*
X118106287Y-69524500D01*
X117893713Y-69524500D01*
X117845042Y-69532208D01*
X117683760Y-69557753D01*
X117481585Y-69623444D01*
X117292179Y-69719951D01*
X117120215Y-69844889D01*
X116981398Y-69983706D01*
X116920075Y-70017190D01*
X116850383Y-70012206D01*
X116794450Y-69970334D01*
X116788178Y-69961120D01*
X116692712Y-69806344D01*
X116568657Y-69682289D01*
X116568656Y-69682288D01*
X116419334Y-69590186D01*
X116252797Y-69535001D01*
X116252795Y-69535000D01*
X116150010Y-69524500D01*
X114849998Y-69524500D01*
X114849981Y-69524501D01*
X114747203Y-69535000D01*
X114747200Y-69535001D01*
X114580668Y-69590185D01*
X114580663Y-69590187D01*
X114431342Y-69682289D01*
X114307289Y-69806342D01*
X114215187Y-69955663D01*
X114215185Y-69955668D01*
X114210325Y-69970334D01*
X114160001Y-70122203D01*
X114160001Y-70122204D01*
X114160000Y-70122204D01*
X114149500Y-70224983D01*
X114149500Y-71237769D01*
X114129815Y-71304808D01*
X114113181Y-71325450D01*
X113656651Y-71781981D01*
X113595328Y-71815466D01*
X113568970Y-71818300D01*
X108364153Y-71818300D01*
X108297114Y-71798615D01*
X108251359Y-71745811D01*
X108241415Y-71676653D01*
X108249593Y-71646844D01*
X108251096Y-71643215D01*
X108316757Y-71441130D01*
X108316757Y-71441127D01*
X108347030Y-71250000D01*
X107404146Y-71250000D01*
X107442630Y-71183343D01*
X107475000Y-71062535D01*
X107475000Y-70937465D01*
X107442630Y-70816657D01*
X107404146Y-70750000D01*
X108347030Y-70750000D01*
X108316757Y-70558872D01*
X108316757Y-70558869D01*
X108251095Y-70356782D01*
X108154620Y-70167442D01*
X108029727Y-69995540D01*
X108029723Y-69995535D01*
X107879464Y-69845276D01*
X107879459Y-69845272D01*
X107707557Y-69720379D01*
X107518215Y-69623903D01*
X107316124Y-69558241D01*
X107250000Y-69547768D01*
X107250000Y-70595854D01*
X107183343Y-70557370D01*
X107062535Y-70525000D01*
X106937465Y-70525000D01*
X106816657Y-70557370D01*
X106750000Y-70595854D01*
X106750000Y-69547768D01*
X106749999Y-69547768D01*
X106683875Y-69558241D01*
X106481784Y-69623903D01*
X106292442Y-69720379D01*
X106120540Y-69845272D01*
X106120535Y-69845276D01*
X105970276Y-69995535D01*
X105970272Y-69995540D01*
X105850627Y-70160218D01*
X105795297Y-70202884D01*
X105725684Y-70208863D01*
X105663889Y-70176257D01*
X105649991Y-70160218D01*
X105530109Y-69995214D01*
X105530105Y-69995209D01*
X105379786Y-69844890D01*
X105207820Y-69719951D01*
X105018414Y-69623444D01*
X105018413Y-69623443D01*
X105018412Y-69623443D01*
X104816243Y-69557754D01*
X104816241Y-69557753D01*
X104816240Y-69557753D01*
X104654957Y-69532208D01*
X104606287Y-69524500D01*
X104393713Y-69524500D01*
X104345042Y-69532208D01*
X104183760Y-69557753D01*
X103981585Y-69623444D01*
X103792179Y-69719951D01*
X103620215Y-69844889D01*
X103481398Y-69983706D01*
X103420075Y-70017190D01*
X103350383Y-70012206D01*
X103294450Y-69970334D01*
X103288178Y-69961120D01*
X103192712Y-69806344D01*
X103068657Y-69682289D01*
X103068656Y-69682288D01*
X102919334Y-69590186D01*
X102752797Y-69535001D01*
X102752795Y-69535000D01*
X102650010Y-69524500D01*
X101349998Y-69524500D01*
X101349981Y-69524501D01*
X101247203Y-69535000D01*
X101247200Y-69535001D01*
X101080668Y-69590185D01*
X101080663Y-69590187D01*
X100931342Y-69682289D01*
X100807289Y-69806342D01*
X100715187Y-69955663D01*
X100715185Y-69955668D01*
X100660001Y-70122204D01*
X100660000Y-70122205D01*
X100658377Y-70138101D01*
X100631982Y-70202793D01*
X100574802Y-70242945D01*
X100535019Y-70249500D01*
X88862229Y-70249500D01*
X88795190Y-70229815D01*
X88774548Y-70213181D01*
X85218443Y-66657075D01*
X85184958Y-66595752D01*
X85189942Y-66526060D01*
X85231814Y-66470127D01*
X85286727Y-66446921D01*
X85316238Y-66442247D01*
X85316238Y-66442246D01*
X85316243Y-66442246D01*
X85518412Y-66376557D01*
X85707816Y-66280051D01*
X85740526Y-66256286D01*
X85879786Y-66155109D01*
X85879788Y-66155106D01*
X85879792Y-66155104D01*
X86030104Y-66004792D01*
X86149683Y-65840204D01*
X86205011Y-65797540D01*
X86274624Y-65791561D01*
X86336420Y-65824166D01*
X86350313Y-65840199D01*
X86469654Y-66004459D01*
X86469896Y-66004792D01*
X86620213Y-66155109D01*
X86792179Y-66280048D01*
X86792181Y-66280049D01*
X86792184Y-66280051D01*
X86981588Y-66376557D01*
X87183757Y-66442246D01*
X87393713Y-66475500D01*
X87393714Y-66475500D01*
X87606286Y-66475500D01*
X87606287Y-66475500D01*
X87816243Y-66442246D01*
X88018412Y-66376557D01*
X88207816Y-66280051D01*
X88240526Y-66256286D01*
X88379786Y-66155109D01*
X88379788Y-66155106D01*
X88379792Y-66155104D01*
X88530104Y-66004792D01*
X88649991Y-65839779D01*
X88705320Y-65797115D01*
X88774933Y-65791136D01*
X88836729Y-65823741D01*
X88850627Y-65839781D01*
X88970272Y-66004459D01*
X88970276Y-66004464D01*
X89120535Y-66154723D01*
X89120540Y-66154727D01*
X89292442Y-66279620D01*
X89481782Y-66376095D01*
X89683871Y-66441757D01*
X89750000Y-66452231D01*
X89750000Y-65404145D01*
X89816657Y-65442630D01*
X89937465Y-65475000D01*
X90062535Y-65475000D01*
X90183343Y-65442630D01*
X90250000Y-65404145D01*
X90250000Y-66452230D01*
X90316126Y-66441757D01*
X90316129Y-66441757D01*
X90518217Y-66376095D01*
X90707557Y-66279620D01*
X90879459Y-66154727D01*
X90879464Y-66154723D01*
X91029721Y-66004466D01*
X91149371Y-65839781D01*
X91204701Y-65797115D01*
X91274314Y-65791136D01*
X91336110Y-65823741D01*
X91350008Y-65839781D01*
X91469890Y-66004785D01*
X91469894Y-66004790D01*
X91620213Y-66155109D01*
X91792179Y-66280048D01*
X91792181Y-66280049D01*
X91792184Y-66280051D01*
X91981588Y-66376557D01*
X92183757Y-66442246D01*
X92393713Y-66475500D01*
X92393714Y-66475500D01*
X92606286Y-66475500D01*
X92606287Y-66475500D01*
X92816243Y-66442246D01*
X93018412Y-66376557D01*
X93207816Y-66280051D01*
X93240526Y-66256286D01*
X93379786Y-66155109D01*
X93379788Y-66155106D01*
X93379792Y-66155104D01*
X93530104Y-66004792D01*
X93530106Y-66004788D01*
X93530109Y-66004786D01*
X93655048Y-65832820D01*
X93655047Y-65832820D01*
X93655051Y-65832816D01*
X93751557Y-65643412D01*
X93817246Y-65441243D01*
X93850500Y-65231287D01*
X93850500Y-64768713D01*
X93817246Y-64558757D01*
X93751557Y-64356588D01*
X93655051Y-64167184D01*
X93655049Y-64167181D01*
X93655048Y-64167179D01*
X93530109Y-63995213D01*
X93379792Y-63844896D01*
X93327658Y-63807019D01*
X93284992Y-63751689D01*
X93279013Y-63682076D01*
X93311618Y-63620280D01*
X93372457Y-63585923D01*
X93400543Y-63582700D01*
X104154046Y-63582700D01*
X104154062Y-63582701D01*
X104161658Y-63582701D01*
X104319769Y-63582701D01*
X104319772Y-63582701D01*
X104472500Y-63541777D01*
X104522619Y-63512839D01*
X104609431Y-63462720D01*
X104721235Y-63350916D01*
X104721235Y-63350914D01*
X104731443Y-63340707D01*
X104731445Y-63340704D01*
X109506104Y-58566044D01*
X109567425Y-58532561D01*
X109637117Y-58537545D01*
X109670647Y-58557280D01*
X109670859Y-58556989D01*
X109673872Y-58559178D01*
X109674322Y-58559443D01*
X109674807Y-58559857D01*
X109829135Y-58671981D01*
X109851743Y-58688407D01*
X109979132Y-58753315D01*
X110046616Y-58787701D01*
X110046619Y-58787702D01*
X110150621Y-58821493D01*
X110254625Y-58855286D01*
X110349073Y-58870245D01*
X110470639Y-58889500D01*
X110470644Y-58889500D01*
X110689361Y-58889500D01*
X110794082Y-58872912D01*
X110905375Y-58855286D01*
X111113383Y-58787701D01*
X111308257Y-58688407D01*
X111476674Y-58566046D01*
X111485193Y-58559857D01*
X111485195Y-58559854D01*
X111485199Y-58559852D01*
X111639852Y-58405199D01*
X111749683Y-58254028D01*
X111805011Y-58211364D01*
X111874624Y-58205385D01*
X111936420Y-58237990D01*
X111950313Y-58254023D01*
X112040680Y-58378403D01*
X112060148Y-58405199D01*
X112214806Y-58559857D01*
X112380374Y-58680147D01*
X112391743Y-58688407D01*
X112519132Y-58753315D01*
X112586616Y-58787701D01*
X112586619Y-58787702D01*
X112690621Y-58821493D01*
X112794625Y-58855286D01*
X112889073Y-58870245D01*
X113010639Y-58889500D01*
X113010644Y-58889500D01*
X113229361Y-58889500D01*
X113334082Y-58872912D01*
X113445375Y-58855286D01*
X113653383Y-58787701D01*
X113848257Y-58688407D01*
X114016674Y-58566046D01*
X114025193Y-58559857D01*
X114025195Y-58559854D01*
X114025199Y-58559852D01*
X114179852Y-58405199D01*
X114289683Y-58254028D01*
X114345011Y-58211364D01*
X114414624Y-58205385D01*
X114476420Y-58237990D01*
X114490313Y-58254023D01*
X114580680Y-58378403D01*
X114600148Y-58405199D01*
X114754806Y-58559857D01*
X114920374Y-58680147D01*
X114931743Y-58688407D01*
X115059132Y-58753315D01*
X115126616Y-58787701D01*
X115126619Y-58787702D01*
X115230621Y-58821493D01*
X115334625Y-58855286D01*
X115429073Y-58870245D01*
X115550639Y-58889500D01*
X115550644Y-58889500D01*
X115769361Y-58889500D01*
X115874082Y-58872912D01*
X115985375Y-58855286D01*
X116193383Y-58787701D01*
X116388257Y-58688407D01*
X116556674Y-58566046D01*
X116565193Y-58559857D01*
X116565195Y-58559854D01*
X116565199Y-58559852D01*
X116719852Y-58405199D01*
X116829683Y-58254028D01*
X116885011Y-58211364D01*
X116954624Y-58205385D01*
X117016420Y-58237990D01*
X117030313Y-58254023D01*
X117120680Y-58378403D01*
X117140148Y-58405199D01*
X117294806Y-58559857D01*
X117460374Y-58680147D01*
X117471743Y-58688407D01*
X117599132Y-58753315D01*
X117666616Y-58787701D01*
X117666619Y-58787702D01*
X117770621Y-58821493D01*
X117874625Y-58855286D01*
X117969073Y-58870245D01*
X118090639Y-58889500D01*
X118090644Y-58889500D01*
X118309361Y-58889500D01*
X118414082Y-58872912D01*
X118525375Y-58855286D01*
X118733383Y-58787701D01*
X118928257Y-58688407D01*
X119096674Y-58566046D01*
X119105193Y-58559857D01*
X119105195Y-58559854D01*
X119105199Y-58559852D01*
X119259852Y-58405199D01*
X119369683Y-58254028D01*
X119425011Y-58211364D01*
X119494624Y-58205385D01*
X119556420Y-58237990D01*
X119570313Y-58254023D01*
X119660680Y-58378403D01*
X119680148Y-58405199D01*
X119834806Y-58559857D01*
X120000374Y-58680147D01*
X120011743Y-58688407D01*
X120139132Y-58753315D01*
X120206616Y-58787701D01*
X120206619Y-58787702D01*
X120310621Y-58821493D01*
X120414625Y-58855286D01*
X120509073Y-58870245D01*
X120630639Y-58889500D01*
X120630644Y-58889500D01*
X120849361Y-58889500D01*
X120954082Y-58872912D01*
X121065375Y-58855286D01*
X121273383Y-58787701D01*
X121468257Y-58688407D01*
X121645199Y-58559852D01*
X121709312Y-58495738D01*
X121770631Y-58462256D01*
X121840323Y-58467240D01*
X121896257Y-58509111D01*
X121913172Y-58540088D01*
X121947203Y-58631330D01*
X121947206Y-58631335D01*
X122033452Y-58746544D01*
X122033455Y-58746547D01*
X122148664Y-58832793D01*
X122148671Y-58832797D01*
X122283517Y-58883091D01*
X122283516Y-58883091D01*
X122290444Y-58883835D01*
X122343127Y-58889500D01*
X124216872Y-58889499D01*
X124276483Y-58883091D01*
X124411331Y-58832796D01*
X124526546Y-58746546D01*
X124612796Y-58631331D01*
X124663091Y-58496483D01*
X124669500Y-58436873D01*
X124669499Y-56563128D01*
X124663091Y-56503517D01*
X124646372Y-56458692D01*
X124612797Y-56368671D01*
X124612793Y-56368664D01*
X124526547Y-56253455D01*
X124526544Y-56253452D01*
X124411335Y-56167206D01*
X124411328Y-56167202D01*
X124276482Y-56116908D01*
X124276483Y-56116908D01*
X124216883Y-56110501D01*
X124216881Y-56110500D01*
X124216873Y-56110500D01*
X124216864Y-56110500D01*
X122343129Y-56110500D01*
X122343123Y-56110501D01*
X122283516Y-56116908D01*
X122148671Y-56167202D01*
X122148664Y-56167206D01*
X122033455Y-56253452D01*
X122033452Y-56253455D01*
X121947206Y-56368664D01*
X121947203Y-56368670D01*
X121913172Y-56459911D01*
X121871300Y-56515844D01*
X121805836Y-56540261D01*
X121737563Y-56525409D01*
X121709309Y-56504258D01*
X121645193Y-56440142D01*
X121468260Y-56311595D01*
X121468259Y-56311594D01*
X121468257Y-56311593D01*
X121354150Y-56253452D01*
X121273383Y-56212298D01*
X121273380Y-56212297D01*
X121065376Y-56144714D01*
X120849361Y-56110500D01*
X120849356Y-56110500D01*
X120630644Y-56110500D01*
X120630639Y-56110500D01*
X120414623Y-56144714D01*
X120206619Y-56212297D01*
X120206616Y-56212298D01*
X120011739Y-56311595D01*
X119834806Y-56440142D01*
X119680142Y-56594806D01*
X119570318Y-56745969D01*
X119514989Y-56788635D01*
X119445375Y-56794614D01*
X119383580Y-56762009D01*
X119369682Y-56745969D01*
X119259857Y-56594806D01*
X119105193Y-56440142D01*
X118928260Y-56311595D01*
X118928259Y-56311594D01*
X118928257Y-56311593D01*
X118814150Y-56253452D01*
X118733383Y-56212298D01*
X118733380Y-56212297D01*
X118525376Y-56144714D01*
X118309361Y-56110500D01*
X118309356Y-56110500D01*
X118090644Y-56110500D01*
X118090639Y-56110500D01*
X117874623Y-56144714D01*
X117666619Y-56212297D01*
X117666616Y-56212298D01*
X117471739Y-56311595D01*
X117294806Y-56440142D01*
X117140142Y-56594806D01*
X117030318Y-56745969D01*
X116974989Y-56788635D01*
X116905375Y-56794614D01*
X116843580Y-56762009D01*
X116829682Y-56745969D01*
X116719857Y-56594806D01*
X116565193Y-56440142D01*
X116388260Y-56311595D01*
X116388259Y-56311594D01*
X116388257Y-56311593D01*
X116274150Y-56253452D01*
X116193383Y-56212298D01*
X116193380Y-56212297D01*
X115985376Y-56144714D01*
X115769361Y-56110500D01*
X115769356Y-56110500D01*
X115550644Y-56110500D01*
X115550639Y-56110500D01*
X115334623Y-56144714D01*
X115126619Y-56212297D01*
X115126616Y-56212298D01*
X114931739Y-56311595D01*
X114754806Y-56440142D01*
X114600142Y-56594806D01*
X114490318Y-56745969D01*
X114434989Y-56788635D01*
X114365375Y-56794614D01*
X114303580Y-56762009D01*
X114289682Y-56745969D01*
X114179857Y-56594806D01*
X114025193Y-56440142D01*
X113848260Y-56311595D01*
X113848259Y-56311594D01*
X113848257Y-56311593D01*
X113734150Y-56253452D01*
X113653383Y-56212298D01*
X113653380Y-56212297D01*
X113445376Y-56144714D01*
X113229361Y-56110500D01*
X113229356Y-56110500D01*
X113010644Y-56110500D01*
X113010639Y-56110500D01*
X112794623Y-56144714D01*
X112586619Y-56212297D01*
X112586616Y-56212298D01*
X112391739Y-56311595D01*
X112214806Y-56440142D01*
X112060142Y-56594806D01*
X111950318Y-56745969D01*
X111894989Y-56788635D01*
X111825375Y-56794614D01*
X111763580Y-56762009D01*
X111749682Y-56745969D01*
X111639857Y-56594806D01*
X111485193Y-56440142D01*
X111308260Y-56311595D01*
X111308259Y-56311594D01*
X111308257Y-56311593D01*
X111194150Y-56253452D01*
X111113383Y-56212298D01*
X111113380Y-56212297D01*
X110905376Y-56144714D01*
X110689361Y-56110500D01*
X110689356Y-56110500D01*
X110470644Y-56110500D01*
X110470639Y-56110500D01*
X110254623Y-56144714D01*
X110046619Y-56212297D01*
X110046616Y-56212298D01*
X109851739Y-56311595D01*
X109674800Y-56440147D01*
X109674310Y-56440567D01*
X109674085Y-56440667D01*
X109670860Y-56443011D01*
X109670367Y-56442333D01*
X109610547Y-56469134D01*
X109541461Y-56458692D01*
X109506103Y-56433953D01*
X109020505Y-55948355D01*
X109020503Y-55948352D01*
X108901632Y-55829481D01*
X108901631Y-55829480D01*
X108789453Y-55764714D01*
X108789453Y-55764713D01*
X108789448Y-55764712D01*
X108767851Y-55752242D01*
X108764701Y-55750423D01*
X108707134Y-55734998D01*
X108611972Y-55709499D01*
X108453858Y-55709499D01*
X108446262Y-55709499D01*
X108446246Y-55709500D01*
X106610943Y-55709500D01*
X106458214Y-55750423D01*
X106455064Y-55752242D01*
X106433463Y-55764714D01*
X106391788Y-55788775D01*
X106321285Y-55829479D01*
X106321282Y-55829481D01*
X106209478Y-55941286D01*
X106015473Y-56135290D01*
X105954150Y-56168775D01*
X105889475Y-56165540D01*
X105825377Y-56144714D01*
X105825378Y-56144714D01*
X105609361Y-56110500D01*
X105609356Y-56110500D01*
X105390644Y-56110500D01*
X105390639Y-56110500D01*
X105174627Y-56144713D01*
X105110524Y-56165541D01*
X105040682Y-56167535D01*
X104984526Y-56135290D01*
X103650190Y-54800955D01*
X103650188Y-54800952D01*
X103531317Y-54682081D01*
X103531316Y-54682080D01*
X103444504Y-54631960D01*
X103444504Y-54631959D01*
X103444500Y-54631958D01*
X103394385Y-54603023D01*
X103241657Y-54562099D01*
X103083543Y-54562099D01*
X103075947Y-54562099D01*
X103075931Y-54562100D01*
X84424070Y-54562100D01*
X84424054Y-54562099D01*
X84416458Y-54562099D01*
X84258343Y-54562099D01*
X84181979Y-54582561D01*
X84105614Y-54603023D01*
X84105609Y-54603026D01*
X83968690Y-54682075D01*
X83968682Y-54682081D01*
X82895472Y-55755290D01*
X82834149Y-55788775D01*
X82769473Y-55785540D01*
X82705376Y-55764714D01*
X82489361Y-55730500D01*
X82489356Y-55730500D01*
X82270644Y-55730500D01*
X82270639Y-55730500D01*
X82054625Y-55764713D01*
X81990522Y-55785541D01*
X81920681Y-55787535D01*
X81864525Y-55755290D01*
X79247590Y-53138355D01*
X79240521Y-53131286D01*
X79240520Y-53131284D01*
X79176420Y-53067184D01*
X79176419Y-53067182D01*
X79161000Y-53048395D01*
X79121787Y-52989708D01*
X79010292Y-52878213D01*
X79010288Y-52878210D01*
X78879185Y-52790609D01*
X78879172Y-52790602D01*
X78733501Y-52730264D01*
X78733489Y-52730261D01*
X78578845Y-52699500D01*
X78578842Y-52699500D01*
X78421158Y-52699500D01*
X78421155Y-52699500D01*
X78266510Y-52730261D01*
X78266498Y-52730264D01*
X78120827Y-52790602D01*
X78120814Y-52790609D01*
X77989711Y-52878210D01*
X77989707Y-52878213D01*
X77878213Y-52989707D01*
X77878210Y-52989711D01*
X77790609Y-53120814D01*
X77790602Y-53120827D01*
X77730264Y-53266498D01*
X77730261Y-53266510D01*
X77699500Y-53421153D01*
X77699500Y-53578846D01*
X77730261Y-53733489D01*
X77730264Y-53733501D01*
X77790602Y-53879172D01*
X77790609Y-53879185D01*
X77878210Y-54010288D01*
X77878213Y-54010292D01*
X77989707Y-54121786D01*
X77989711Y-54121789D01*
X78120814Y-54209390D01*
X78120827Y-54209397D01*
X78219133Y-54250116D01*
X78266503Y-54269737D01*
X78407016Y-54297687D01*
X78421153Y-54300499D01*
X78421156Y-54300500D01*
X78421158Y-54300500D01*
X78578843Y-54300500D01*
X78606611Y-54294976D01*
X78624287Y-54291460D01*
X78693879Y-54297687D01*
X78736161Y-54325396D01*
X79930084Y-55519319D01*
X79963569Y-55580642D01*
X79958585Y-55650334D01*
X79916713Y-55706267D01*
X79851249Y-55730684D01*
X79842403Y-55731000D01*
X79730684Y-55731000D01*
X79514740Y-55765202D01*
X79306811Y-55832761D01*
X79306808Y-55832762D01*
X79112001Y-55932023D01*
X79050360Y-55976806D01*
X79050360Y-55976807D01*
X79710591Y-56637037D01*
X79647007Y-56654075D01*
X79532993Y-56719901D01*
X79439901Y-56812993D01*
X79374075Y-56927007D01*
X79357037Y-56990590D01*
X78725818Y-56359370D01*
X78692333Y-56298047D01*
X78689499Y-56271689D01*
X78689499Y-56183129D01*
X78689498Y-56183123D01*
X78689497Y-56183116D01*
X78683091Y-56123517D01*
X78680626Y-56116909D01*
X78632797Y-55988671D01*
X78632793Y-55988664D01*
X78546547Y-55873455D01*
X78546544Y-55873452D01*
X78431335Y-55787206D01*
X78431328Y-55787202D01*
X78296482Y-55736908D01*
X78296483Y-55736908D01*
X78236883Y-55730501D01*
X78236881Y-55730500D01*
X78236873Y-55730500D01*
X78236864Y-55730500D01*
X76363129Y-55730500D01*
X76363123Y-55730501D01*
X76321291Y-55734998D01*
X76252531Y-55722591D01*
X76220357Y-55699389D01*
X74853221Y-54332252D01*
X74853214Y-54332246D01*
X74759660Y-54269736D01*
X74759660Y-54269737D01*
X74730295Y-54250116D01*
X74730292Y-54250114D01*
X74730291Y-54250114D01*
X74593717Y-54193543D01*
X74593707Y-54193540D01*
X74448720Y-54164700D01*
X74448718Y-54164700D01*
X52280882Y-54164700D01*
X52280880Y-54164700D01*
X52135892Y-54193540D01*
X52135882Y-54193543D01*
X51999308Y-54250114D01*
X51999305Y-54250115D01*
X51999305Y-54250116D01*
X51969940Y-54269737D01*
X51969939Y-54269736D01*
X51876385Y-54332246D01*
X51876378Y-54332252D01*
X50514449Y-55694181D01*
X50453126Y-55727666D01*
X50426768Y-55730500D01*
X49213129Y-55730500D01*
X49213123Y-55730501D01*
X49153516Y-55736908D01*
X49018671Y-55787202D01*
X49018664Y-55787206D01*
X48903455Y-55873452D01*
X48903452Y-55873455D01*
X48817206Y-55988664D01*
X48817202Y-55988671D01*
X48766908Y-56123517D01*
X48762176Y-56167535D01*
X48760501Y-56183123D01*
X48760500Y-56183135D01*
X48224550Y-56183135D01*
X48153542Y-56060148D01*
X48090249Y-55950521D01*
X47948910Y-55766323D01*
X47922629Y-55732073D01*
X47922623Y-55732066D01*
X47727933Y-55537376D01*
X47727926Y-55537370D01*
X47509483Y-55369754D01*
X47509482Y-55369753D01*
X47509479Y-55369751D01*
X47414407Y-55314861D01*
X47271028Y-55232080D01*
X47271017Y-55232075D01*
X47016630Y-55126704D01*
X46883649Y-55091072D01*
X46750666Y-55055440D01*
X46750660Y-55055439D01*
X46750655Y-55055438D01*
X46477684Y-55019501D01*
X46477679Y-55019500D01*
X46477674Y-55019500D01*
X46202326Y-55019500D01*
X46202320Y-55019500D01*
X46202315Y-55019501D01*
X45929344Y-55055438D01*
X45929337Y-55055439D01*
X45929334Y-55055440D01*
X45873125Y-55070500D01*
X45663369Y-55126704D01*
X45408982Y-55232075D01*
X45408971Y-55232080D01*
X45170516Y-55369754D01*
X44952073Y-55537370D01*
X44952066Y-55537376D01*
X44757376Y-55732066D01*
X44757370Y-55732073D01*
X44589754Y-55950516D01*
X44452080Y-56188971D01*
X44452075Y-56188982D01*
X44346704Y-56443369D01*
X44275441Y-56709331D01*
X44275438Y-56709344D01*
X44239501Y-56982315D01*
X44239500Y-56982332D01*
X40500500Y-56982332D01*
X40500500Y-41742332D01*
X44239500Y-41742332D01*
X44239500Y-42017667D01*
X44239501Y-42017684D01*
X44275438Y-42290655D01*
X44275439Y-42290660D01*
X44275440Y-42290666D01*
X44311072Y-42423649D01*
X44346704Y-42556630D01*
X44452075Y-42811017D01*
X44452080Y-42811028D01*
X44534861Y-42954407D01*
X44589751Y-43049479D01*
X44589753Y-43049482D01*
X44589754Y-43049483D01*
X44757370Y-43267926D01*
X44757376Y-43267933D01*
X44952066Y-43462623D01*
X44952072Y-43462628D01*
X45170521Y-43630249D01*
X45323778Y-43718732D01*
X45408971Y-43767919D01*
X45408976Y-43767921D01*
X45408979Y-43767923D01*
X45663368Y-43873295D01*
X45929334Y-43944560D01*
X46202326Y-43980500D01*
X46202333Y-43980500D01*
X46477667Y-43980500D01*
X46477674Y-43980500D01*
X46750666Y-43944560D01*
X47016632Y-43873295D01*
X47271021Y-43767923D01*
X47509479Y-43630249D01*
X47727928Y-43462628D01*
X47922628Y-43267928D01*
X48090249Y-43049479D01*
X48104583Y-43024652D01*
X53107300Y-43024652D01*
X53107300Y-43275347D01*
X53146518Y-43522959D01*
X53223985Y-43761382D01*
X53223986Y-43761385D01*
X53317320Y-43944561D01*
X53337801Y-43984757D01*
X53485156Y-44187574D01*
X53662426Y-44364844D01*
X53865243Y-44512199D01*
X53974800Y-44568021D01*
X54088614Y-44626013D01*
X54088617Y-44626014D01*
X54200342Y-44662315D01*
X54327042Y-44703482D01*
X54574652Y-44742700D01*
X54574653Y-44742700D01*
X54825347Y-44742700D01*
X54825348Y-44742700D01*
X55072958Y-44703482D01*
X55311385Y-44626013D01*
X55534757Y-44512199D01*
X55737574Y-44364844D01*
X55914844Y-44187574D01*
X56062199Y-43984757D01*
X56176013Y-43761385D01*
X56253482Y-43522958D01*
X56292700Y-43275348D01*
X56292700Y-43024652D01*
X56607300Y-43024652D01*
X56607300Y-43275347D01*
X56646518Y-43522959D01*
X56723985Y-43761382D01*
X56723986Y-43761385D01*
X56817320Y-43944561D01*
X56837801Y-43984757D01*
X56985156Y-44187574D01*
X57162426Y-44364844D01*
X57365243Y-44512199D01*
X57474800Y-44568021D01*
X57588614Y-44626013D01*
X57588617Y-44626014D01*
X57700342Y-44662315D01*
X57827042Y-44703482D01*
X58074652Y-44742700D01*
X58074653Y-44742700D01*
X58325347Y-44742700D01*
X58325348Y-44742700D01*
X58572958Y-44703482D01*
X58811385Y-44626013D01*
X59034757Y-44512199D01*
X59237574Y-44364844D01*
X59414844Y-44187574D01*
X59562199Y-43984757D01*
X59676013Y-43761385D01*
X59753482Y-43522958D01*
X59792700Y-43275348D01*
X59792700Y-43024652D01*
X59753482Y-42777042D01*
X59681867Y-42556632D01*
X59676014Y-42538617D01*
X59676013Y-42538614D01*
X59562198Y-42315242D01*
X59544344Y-42290668D01*
X59414844Y-42112426D01*
X59237574Y-41935156D01*
X59034757Y-41787801D01*
X58963194Y-41751337D01*
X58945521Y-41742332D01*
X64559500Y-41742332D01*
X64559500Y-42017667D01*
X64559501Y-42017684D01*
X64595438Y-42290655D01*
X64595439Y-42290660D01*
X64595440Y-42290666D01*
X64631072Y-42423649D01*
X64666704Y-42556630D01*
X64772075Y-42811017D01*
X64772080Y-42811028D01*
X64854861Y-42954407D01*
X64909751Y-43049479D01*
X64909753Y-43049482D01*
X64909754Y-43049483D01*
X65077370Y-43267926D01*
X65077376Y-43267933D01*
X65272066Y-43462623D01*
X65272072Y-43462628D01*
X65490521Y-43630249D01*
X65643778Y-43718732D01*
X65728971Y-43767919D01*
X65728976Y-43767921D01*
X65728979Y-43767923D01*
X65983368Y-43873295D01*
X66249334Y-43944560D01*
X66522326Y-43980500D01*
X66522333Y-43980500D01*
X66797667Y-43980500D01*
X66797674Y-43980500D01*
X67070666Y-43944560D01*
X67336632Y-43873295D01*
X67591021Y-43767923D01*
X67829479Y-43630249D01*
X68047928Y-43462628D01*
X68242628Y-43267928D01*
X68410249Y-43049479D01*
X68547923Y-42811021D01*
X68653295Y-42556632D01*
X68724560Y-42290666D01*
X68760500Y-42017674D01*
X68760500Y-41742332D01*
X71389500Y-41742332D01*
X71389500Y-42017667D01*
X71389501Y-42017684D01*
X71425438Y-42290655D01*
X71425439Y-42290660D01*
X71425440Y-42290666D01*
X71461072Y-42423649D01*
X71496704Y-42556630D01*
X71602075Y-42811017D01*
X71602080Y-42811028D01*
X71684861Y-42954407D01*
X71739751Y-43049479D01*
X71739753Y-43049482D01*
X71739754Y-43049483D01*
X71907370Y-43267926D01*
X71907376Y-43267933D01*
X72102066Y-43462623D01*
X72102072Y-43462628D01*
X72320521Y-43630249D01*
X72473778Y-43718732D01*
X72558971Y-43767919D01*
X72558976Y-43767921D01*
X72558979Y-43767923D01*
X72813368Y-43873295D01*
X73079334Y-43944560D01*
X73352326Y-43980500D01*
X73352333Y-43980500D01*
X73627667Y-43980500D01*
X73627674Y-43980500D01*
X73900666Y-43944560D01*
X74166632Y-43873295D01*
X74421021Y-43767923D01*
X74659479Y-43630249D01*
X74877928Y-43462628D01*
X75072628Y-43267928D01*
X75240249Y-43049479D01*
X75254583Y-43024652D01*
X80257300Y-43024652D01*
X80257300Y-43275347D01*
X80296518Y-43522959D01*
X80373985Y-43761382D01*
X80373986Y-43761385D01*
X80467320Y-43944561D01*
X80487801Y-43984757D01*
X80635156Y-44187574D01*
X80812426Y-44364844D01*
X81015243Y-44512199D01*
X81124800Y-44568021D01*
X81238614Y-44626013D01*
X81238617Y-44626014D01*
X81350342Y-44662315D01*
X81477042Y-44703482D01*
X81724652Y-44742700D01*
X81724653Y-44742700D01*
X81975347Y-44742700D01*
X81975348Y-44742700D01*
X82222958Y-44703482D01*
X82461385Y-44626013D01*
X82684757Y-44512199D01*
X82887574Y-44364844D01*
X83064844Y-44187574D01*
X83212199Y-43984757D01*
X83326013Y-43761385D01*
X83403482Y-43522958D01*
X83442700Y-43275348D01*
X83442700Y-43024652D01*
X83757300Y-43024652D01*
X83757300Y-43275347D01*
X83796518Y-43522959D01*
X83873985Y-43761382D01*
X83873986Y-43761385D01*
X83967320Y-43944561D01*
X83987801Y-43984757D01*
X84135156Y-44187574D01*
X84312426Y-44364844D01*
X84515243Y-44512199D01*
X84624800Y-44568021D01*
X84738614Y-44626013D01*
X84738617Y-44626014D01*
X84850342Y-44662315D01*
X84977042Y-44703482D01*
X85224652Y-44742700D01*
X85224653Y-44742700D01*
X85475347Y-44742700D01*
X85475348Y-44742700D01*
X85722958Y-44703482D01*
X85849606Y-44662332D01*
X98319500Y-44662332D01*
X98319500Y-44937667D01*
X98319501Y-44937684D01*
X98355438Y-45210655D01*
X98355439Y-45210660D01*
X98355440Y-45210666D01*
X98355441Y-45210668D01*
X98426704Y-45476630D01*
X98532075Y-45731017D01*
X98532080Y-45731028D01*
X98614861Y-45874407D01*
X98669751Y-45969479D01*
X98669753Y-45969482D01*
X98669754Y-45969483D01*
X98837370Y-46187926D01*
X98837376Y-46187933D01*
X99032066Y-46382623D01*
X99032072Y-46382628D01*
X99250521Y-46550249D01*
X99403778Y-46638732D01*
X99488971Y-46687919D01*
X99488976Y-46687921D01*
X99488979Y-46687923D01*
X99743368Y-46793295D01*
X100009334Y-46864560D01*
X100282326Y-46900500D01*
X100282333Y-46900500D01*
X100557667Y-46900500D01*
X100557674Y-46900500D01*
X100830666Y-46864560D01*
X101096632Y-46793295D01*
X101351021Y-46687923D01*
X101589479Y-46550249D01*
X101807928Y-46382628D01*
X102002628Y-46187928D01*
X102170249Y-45969479D01*
X102307923Y-45731021D01*
X102413295Y-45476632D01*
X102484560Y-45210666D01*
X102520500Y-44937674D01*
X102520500Y-44662332D01*
X121179500Y-44662332D01*
X121179500Y-44937667D01*
X121179501Y-44937684D01*
X121215438Y-45210655D01*
X121215439Y-45210660D01*
X121215440Y-45210666D01*
X121215441Y-45210668D01*
X121286704Y-45476630D01*
X121392075Y-45731017D01*
X121392080Y-45731028D01*
X121474861Y-45874407D01*
X121529751Y-45969479D01*
X121529753Y-45969482D01*
X121529754Y-45969483D01*
X121697370Y-46187926D01*
X121697376Y-46187933D01*
X121892066Y-46382623D01*
X121892072Y-46382628D01*
X122110521Y-46550249D01*
X122263778Y-46638732D01*
X122348971Y-46687919D01*
X122348976Y-46687921D01*
X122348979Y-46687923D01*
X122603368Y-46793295D01*
X122869334Y-46864560D01*
X123142326Y-46900500D01*
X123142333Y-46900500D01*
X123417667Y-46900500D01*
X123417674Y-46900500D01*
X123690666Y-46864560D01*
X123956632Y-46793295D01*
X124211021Y-46687923D01*
X124449479Y-46550249D01*
X124667928Y-46382628D01*
X124862628Y-46187928D01*
X125030249Y-45969479D01*
X125167923Y-45731021D01*
X125273295Y-45476632D01*
X125344560Y-45210666D01*
X125380500Y-44937674D01*
X125380500Y-44662326D01*
X125344560Y-44389334D01*
X125273295Y-44123368D01*
X125167923Y-43868979D01*
X125167921Y-43868976D01*
X125167919Y-43868971D01*
X125105802Y-43761382D01*
X125030249Y-43630521D01*
X124862628Y-43412072D01*
X124862623Y-43412066D01*
X124667933Y-43217376D01*
X124667926Y-43217370D01*
X124449483Y-43049754D01*
X124449482Y-43049753D01*
X124449479Y-43049751D01*
X124354407Y-42994861D01*
X124211028Y-42912080D01*
X124211017Y-42912075D01*
X123956630Y-42806704D01*
X123823649Y-42771072D01*
X123690666Y-42735440D01*
X123690660Y-42735439D01*
X123690655Y-42735438D01*
X123417684Y-42699501D01*
X123417679Y-42699500D01*
X123417674Y-42699500D01*
X123142326Y-42699500D01*
X123142320Y-42699500D01*
X123142315Y-42699501D01*
X122869344Y-42735438D01*
X122869337Y-42735439D01*
X122869334Y-42735440D01*
X122813125Y-42750500D01*
X122603369Y-42806704D01*
X122348982Y-42912075D01*
X122348971Y-42912080D01*
X122110516Y-43049754D01*
X121892073Y-43217370D01*
X121892066Y-43217376D01*
X121697376Y-43412066D01*
X121697370Y-43412073D01*
X121529754Y-43630516D01*
X121392080Y-43868971D01*
X121392075Y-43868982D01*
X121286704Y-44123369D01*
X121215441Y-44389331D01*
X121215438Y-44389344D01*
X121179501Y-44662315D01*
X121179500Y-44662332D01*
X102520500Y-44662332D01*
X102520500Y-44662326D01*
X102484560Y-44389334D01*
X102413295Y-44123368D01*
X102307923Y-43868979D01*
X102307921Y-43868976D01*
X102307919Y-43868971D01*
X102245802Y-43761382D01*
X102170249Y-43630521D01*
X102002628Y-43412072D01*
X102002623Y-43412066D01*
X101807933Y-43217376D01*
X101807926Y-43217370D01*
X101589483Y-43049754D01*
X101589482Y-43049753D01*
X101589479Y-43049751D01*
X101494407Y-42994861D01*
X101351028Y-42912080D01*
X101351017Y-42912075D01*
X101096630Y-42806704D01*
X100963649Y-42771072D01*
X100830666Y-42735440D01*
X100830660Y-42735439D01*
X100830655Y-42735438D01*
X100557684Y-42699501D01*
X100557679Y-42699500D01*
X100557674Y-42699500D01*
X100282326Y-42699500D01*
X100282320Y-42699500D01*
X100282315Y-42699501D01*
X100009344Y-42735438D01*
X100009337Y-42735439D01*
X100009334Y-42735440D01*
X99953125Y-42750500D01*
X99743369Y-42806704D01*
X99488982Y-42912075D01*
X99488971Y-42912080D01*
X99250516Y-43049754D01*
X99032073Y-43217370D01*
X99032066Y-43217376D01*
X98837376Y-43412066D01*
X98837370Y-43412073D01*
X98669754Y-43630516D01*
X98532080Y-43868971D01*
X98532075Y-43868982D01*
X98426704Y-44123369D01*
X98355441Y-44389331D01*
X98355438Y-44389344D01*
X98319501Y-44662315D01*
X98319500Y-44662332D01*
X85849606Y-44662332D01*
X85961385Y-44626013D01*
X86184757Y-44512199D01*
X86387574Y-44364844D01*
X86564844Y-44187574D01*
X86712199Y-43984757D01*
X86826013Y-43761385D01*
X86903482Y-43522958D01*
X86942700Y-43275348D01*
X86942700Y-43024652D01*
X86903482Y-42777042D01*
X86831867Y-42556632D01*
X86826014Y-42538617D01*
X86826013Y-42538614D01*
X86712198Y-42315242D01*
X86694344Y-42290668D01*
X86564844Y-42112426D01*
X86387574Y-41935156D01*
X86184757Y-41787801D01*
X86113194Y-41751337D01*
X86095521Y-41742332D01*
X91709500Y-41742332D01*
X91709500Y-42017667D01*
X91709501Y-42017684D01*
X91745438Y-42290655D01*
X91745439Y-42290660D01*
X91745440Y-42290666D01*
X91781072Y-42423649D01*
X91816704Y-42556630D01*
X91922075Y-42811017D01*
X91922080Y-42811028D01*
X92004861Y-42954407D01*
X92059751Y-43049479D01*
X92059753Y-43049482D01*
X92059754Y-43049483D01*
X92227370Y-43267926D01*
X92227376Y-43267933D01*
X92422066Y-43462623D01*
X92422072Y-43462628D01*
X92640521Y-43630249D01*
X92793778Y-43718732D01*
X92878971Y-43767919D01*
X92878976Y-43767921D01*
X92878979Y-43767923D01*
X93133368Y-43873295D01*
X93399334Y-43944560D01*
X93672326Y-43980500D01*
X93672333Y-43980500D01*
X93947667Y-43980500D01*
X93947674Y-43980500D01*
X94220666Y-43944560D01*
X94486632Y-43873295D01*
X94741021Y-43767923D01*
X94979479Y-43630249D01*
X95197928Y-43462628D01*
X95392628Y-43267928D01*
X95560249Y-43049479D01*
X95697923Y-42811021D01*
X95803295Y-42556632D01*
X95874560Y-42290666D01*
X95910500Y-42017674D01*
X95910500Y-41742326D01*
X95874560Y-41469334D01*
X95803295Y-41203368D01*
X95697923Y-40948979D01*
X95697921Y-40948976D01*
X95697919Y-40948971D01*
X95648732Y-40863778D01*
X95560249Y-40710521D01*
X95392628Y-40492072D01*
X95392623Y-40492066D01*
X95197933Y-40297376D01*
X95197926Y-40297370D01*
X94979483Y-40129754D01*
X94979482Y-40129753D01*
X94979479Y-40129751D01*
X94884407Y-40074861D01*
X94741028Y-39992080D01*
X94741017Y-39992075D01*
X94486630Y-39886704D01*
X94353649Y-39851072D01*
X94220666Y-39815440D01*
X94220660Y-39815439D01*
X94220655Y-39815438D01*
X93947684Y-39779501D01*
X93947679Y-39779500D01*
X93947674Y-39779500D01*
X93672326Y-39779500D01*
X93672320Y-39779500D01*
X93672315Y-39779501D01*
X93399344Y-39815438D01*
X93399337Y-39815439D01*
X93399334Y-39815440D01*
X93343125Y-39830500D01*
X93133369Y-39886704D01*
X92878982Y-39992075D01*
X92878971Y-39992080D01*
X92640516Y-40129754D01*
X92422073Y-40297370D01*
X92422066Y-40297376D01*
X92227376Y-40492066D01*
X92227370Y-40492073D01*
X92059754Y-40710516D01*
X91922080Y-40948971D01*
X91922075Y-40948982D01*
X91816704Y-41203369D01*
X91745441Y-41469331D01*
X91745438Y-41469344D01*
X91709501Y-41742315D01*
X91709500Y-41742332D01*
X86095521Y-41742332D01*
X85961385Y-41673986D01*
X85961382Y-41673985D01*
X85722959Y-41596518D01*
X85599153Y-41576909D01*
X85475348Y-41557300D01*
X85224652Y-41557300D01*
X85142115Y-41570372D01*
X84977040Y-41596518D01*
X84738617Y-41673985D01*
X84738614Y-41673986D01*
X84515242Y-41787801D01*
X84312423Y-41935158D01*
X84135158Y-42112423D01*
X83987801Y-42315242D01*
X83873986Y-42538614D01*
X83873985Y-42538617D01*
X83796518Y-42777040D01*
X83757300Y-43024652D01*
X83442700Y-43024652D01*
X83403482Y-42777042D01*
X83331867Y-42556632D01*
X83326014Y-42538617D01*
X83326013Y-42538614D01*
X83212198Y-42315242D01*
X83194344Y-42290668D01*
X83064844Y-42112426D01*
X82887574Y-41935156D01*
X82684757Y-41787801D01*
X82461385Y-41673986D01*
X82461382Y-41673985D01*
X82222959Y-41596518D01*
X82099153Y-41576909D01*
X81975348Y-41557300D01*
X81724652Y-41557300D01*
X81642115Y-41570372D01*
X81477040Y-41596518D01*
X81238617Y-41673985D01*
X81238614Y-41673986D01*
X81015242Y-41787801D01*
X80812423Y-41935158D01*
X80635158Y-42112423D01*
X80487801Y-42315242D01*
X80373986Y-42538614D01*
X80373985Y-42538617D01*
X80296518Y-42777040D01*
X80257300Y-43024652D01*
X75254583Y-43024652D01*
X75377923Y-42811021D01*
X75483295Y-42556632D01*
X75554560Y-42290666D01*
X75590500Y-42017674D01*
X75590500Y-41742326D01*
X75554560Y-41469334D01*
X75483295Y-41203368D01*
X75377923Y-40948979D01*
X75377921Y-40948976D01*
X75377919Y-40948971D01*
X75328732Y-40863778D01*
X75240249Y-40710521D01*
X75072628Y-40492072D01*
X75072623Y-40492066D01*
X74877933Y-40297376D01*
X74877926Y-40297370D01*
X74659483Y-40129754D01*
X74659482Y-40129753D01*
X74659479Y-40129751D01*
X74564407Y-40074861D01*
X74421028Y-39992080D01*
X74421017Y-39992075D01*
X74166630Y-39886704D01*
X74033649Y-39851072D01*
X73900666Y-39815440D01*
X73900660Y-39815439D01*
X73900655Y-39815438D01*
X73627684Y-39779501D01*
X73627679Y-39779500D01*
X73627674Y-39779500D01*
X73352326Y-39779500D01*
X73352320Y-39779500D01*
X73352315Y-39779501D01*
X73079344Y-39815438D01*
X73079337Y-39815439D01*
X73079334Y-39815440D01*
X73023125Y-39830500D01*
X72813369Y-39886704D01*
X72558982Y-39992075D01*
X72558971Y-39992080D01*
X72320516Y-40129754D01*
X72102073Y-40297370D01*
X72102066Y-40297376D01*
X71907376Y-40492066D01*
X71907370Y-40492073D01*
X71739754Y-40710516D01*
X71602080Y-40948971D01*
X71602075Y-40948982D01*
X71496704Y-41203369D01*
X71425441Y-41469331D01*
X71425438Y-41469344D01*
X71389501Y-41742315D01*
X71389500Y-41742332D01*
X68760500Y-41742332D01*
X68760500Y-41742326D01*
X68724560Y-41469334D01*
X68653295Y-41203368D01*
X68547923Y-40948979D01*
X68547921Y-40948976D01*
X68547919Y-40948971D01*
X68498732Y-40863778D01*
X68410249Y-40710521D01*
X68242628Y-40492072D01*
X68242623Y-40492066D01*
X68047933Y-40297376D01*
X68047926Y-40297370D01*
X67829483Y-40129754D01*
X67829482Y-40129753D01*
X67829479Y-40129751D01*
X67734407Y-40074861D01*
X67591028Y-39992080D01*
X67591017Y-39992075D01*
X67336630Y-39886704D01*
X67203649Y-39851072D01*
X67070666Y-39815440D01*
X67070660Y-39815439D01*
X67070655Y-39815438D01*
X66797684Y-39779501D01*
X66797679Y-39779500D01*
X66797674Y-39779500D01*
X66522326Y-39779500D01*
X66522320Y-39779500D01*
X66522315Y-39779501D01*
X66249344Y-39815438D01*
X66249337Y-39815439D01*
X66249334Y-39815440D01*
X66193125Y-39830500D01*
X65983369Y-39886704D01*
X65728982Y-39992075D01*
X65728971Y-39992080D01*
X65490516Y-40129754D01*
X65272073Y-40297370D01*
X65272066Y-40297376D01*
X65077376Y-40492066D01*
X65077370Y-40492073D01*
X64909754Y-40710516D01*
X64772080Y-40948971D01*
X64772075Y-40948982D01*
X64666704Y-41203369D01*
X64595441Y-41469331D01*
X64595438Y-41469344D01*
X64559501Y-41742315D01*
X64559500Y-41742332D01*
X58945521Y-41742332D01*
X58811385Y-41673986D01*
X58811382Y-41673985D01*
X58572959Y-41596518D01*
X58449153Y-41576909D01*
X58325348Y-41557300D01*
X58074652Y-41557300D01*
X57992115Y-41570372D01*
X57827040Y-41596518D01*
X57588617Y-41673985D01*
X57588614Y-41673986D01*
X57365242Y-41787801D01*
X57162423Y-41935158D01*
X56985158Y-42112423D01*
X56837801Y-42315242D01*
X56723986Y-42538614D01*
X56723985Y-42538617D01*
X56646518Y-42777040D01*
X56607300Y-43024652D01*
X56292700Y-43024652D01*
X56253482Y-42777042D01*
X56181867Y-42556632D01*
X56176014Y-42538617D01*
X56176013Y-42538614D01*
X56062198Y-42315242D01*
X56044344Y-42290668D01*
X55914844Y-42112426D01*
X55737574Y-41935156D01*
X55534757Y-41787801D01*
X55311385Y-41673986D01*
X55311382Y-41673985D01*
X55072959Y-41596518D01*
X54949153Y-41576909D01*
X54825348Y-41557300D01*
X54574652Y-41557300D01*
X54492115Y-41570372D01*
X54327040Y-41596518D01*
X54088617Y-41673985D01*
X54088614Y-41673986D01*
X53865242Y-41787801D01*
X53662423Y-41935158D01*
X53485158Y-42112423D01*
X53337801Y-42315242D01*
X53223986Y-42538614D01*
X53223985Y-42538617D01*
X53146518Y-42777040D01*
X53107300Y-43024652D01*
X48104583Y-43024652D01*
X48227923Y-42811021D01*
X48333295Y-42556632D01*
X48404560Y-42290666D01*
X48440500Y-42017674D01*
X48440500Y-41742326D01*
X48404560Y-41469334D01*
X48333295Y-41203368D01*
X48227923Y-40948979D01*
X48227921Y-40948976D01*
X48227919Y-40948971D01*
X48178732Y-40863778D01*
X48090249Y-40710521D01*
X47922628Y-40492072D01*
X47922623Y-40492066D01*
X47727933Y-40297376D01*
X47727926Y-40297370D01*
X47509483Y-40129754D01*
X47509482Y-40129753D01*
X47509479Y-40129751D01*
X47414407Y-40074861D01*
X47271028Y-39992080D01*
X47271017Y-39992075D01*
X47016630Y-39886704D01*
X46883649Y-39851072D01*
X46750666Y-39815440D01*
X46750660Y-39815439D01*
X46750655Y-39815438D01*
X46477684Y-39779501D01*
X46477679Y-39779500D01*
X46477674Y-39779500D01*
X46202326Y-39779500D01*
X46202320Y-39779500D01*
X46202315Y-39779501D01*
X45929344Y-39815438D01*
X45929337Y-39815439D01*
X45929334Y-39815440D01*
X45873125Y-39830500D01*
X45663369Y-39886704D01*
X45408982Y-39992075D01*
X45408971Y-39992080D01*
X45170516Y-40129754D01*
X44952073Y-40297370D01*
X44952066Y-40297376D01*
X44757376Y-40492066D01*
X44757370Y-40492073D01*
X44589754Y-40710516D01*
X44452080Y-40948971D01*
X44452075Y-40948982D01*
X44346704Y-41203369D01*
X44275441Y-41469331D01*
X44275438Y-41469344D01*
X44239501Y-41742315D01*
X44239500Y-41742332D01*
X40500500Y-41742332D01*
X40500500Y-38003750D01*
X40500726Y-37996263D01*
X40507241Y-37888549D01*
X41299500Y-37888549D01*
X41299500Y-38111450D01*
X41299501Y-38111466D01*
X41328594Y-38332452D01*
X41328595Y-38332457D01*
X41328596Y-38332463D01*
X41386290Y-38547780D01*
X41386293Y-38547790D01*
X41471593Y-38753722D01*
X41471595Y-38753726D01*
X41583052Y-38946774D01*
X41583057Y-38946780D01*
X41583058Y-38946782D01*
X41718751Y-39123622D01*
X41718757Y-39123629D01*
X41876370Y-39281242D01*
X41876376Y-39281247D01*
X42053226Y-39416948D01*
X42246274Y-39528405D01*
X42452219Y-39613710D01*
X42667537Y-39671404D01*
X42888543Y-39700500D01*
X42888550Y-39700500D01*
X43111450Y-39700500D01*
X43111457Y-39700500D01*
X43332463Y-39671404D01*
X43547781Y-39613710D01*
X43753726Y-39528405D01*
X43946774Y-39416948D01*
X44123624Y-39281247D01*
X44281247Y-39123624D01*
X44416948Y-38946774D01*
X44528405Y-38753726D01*
X44613710Y-38547781D01*
X44671404Y-38332463D01*
X44700500Y-38111457D01*
X44700500Y-37888549D01*
X123299500Y-37888549D01*
X123299500Y-38111450D01*
X123299501Y-38111466D01*
X123328594Y-38332452D01*
X123328595Y-38332457D01*
X123328596Y-38332463D01*
X123386290Y-38547780D01*
X123386293Y-38547790D01*
X123471593Y-38753722D01*
X123471595Y-38753726D01*
X123583052Y-38946774D01*
X123583057Y-38946780D01*
X123583058Y-38946782D01*
X123718751Y-39123622D01*
X123718757Y-39123629D01*
X123876370Y-39281242D01*
X123876376Y-39281247D01*
X124053226Y-39416948D01*
X124246274Y-39528405D01*
X124452219Y-39613710D01*
X124667537Y-39671404D01*
X124888543Y-39700500D01*
X124888550Y-39700500D01*
X125111450Y-39700500D01*
X125111457Y-39700500D01*
X125332463Y-39671404D01*
X125547781Y-39613710D01*
X125753726Y-39528405D01*
X125946774Y-39416948D01*
X126123624Y-39281247D01*
X126281247Y-39123624D01*
X126416948Y-38946774D01*
X126528405Y-38753726D01*
X126613710Y-38547781D01*
X126671404Y-38332463D01*
X126700500Y-38111457D01*
X126700500Y-37888543D01*
X126671404Y-37667537D01*
X126613710Y-37452219D01*
X126528405Y-37246274D01*
X126416948Y-37053226D01*
X126281247Y-36876376D01*
X126281242Y-36876370D01*
X126123629Y-36718757D01*
X126123622Y-36718751D01*
X125946782Y-36583058D01*
X125946780Y-36583057D01*
X125946774Y-36583052D01*
X125753726Y-36471595D01*
X125753722Y-36471593D01*
X125547790Y-36386293D01*
X125547783Y-36386291D01*
X125547781Y-36386290D01*
X125332463Y-36328596D01*
X125332457Y-36328595D01*
X125332452Y-36328594D01*
X125111466Y-36299501D01*
X125111463Y-36299500D01*
X125111457Y-36299500D01*
X124888543Y-36299500D01*
X124888537Y-36299500D01*
X124888533Y-36299501D01*
X124667547Y-36328594D01*
X124667540Y-36328595D01*
X124667537Y-36328596D01*
X124452219Y-36386290D01*
X124452209Y-36386293D01*
X124246277Y-36471593D01*
X124246273Y-36471595D01*
X124053226Y-36583052D01*
X124053217Y-36583058D01*
X123876377Y-36718751D01*
X123876370Y-36718757D01*
X123718757Y-36876370D01*
X123718751Y-36876377D01*
X123583058Y-37053217D01*
X123583052Y-37053226D01*
X123471595Y-37246273D01*
X123471593Y-37246277D01*
X123386293Y-37452209D01*
X123386290Y-37452219D01*
X123328597Y-37667534D01*
X123328594Y-37667547D01*
X123299501Y-37888533D01*
X123299500Y-37888549D01*
X44700500Y-37888549D01*
X44700500Y-37888543D01*
X44671404Y-37667537D01*
X44613710Y-37452219D01*
X44528405Y-37246274D01*
X44416948Y-37053226D01*
X44281247Y-36876376D01*
X44281242Y-36876370D01*
X44123629Y-36718757D01*
X44123622Y-36718751D01*
X43946782Y-36583058D01*
X43946780Y-36583057D01*
X43946774Y-36583052D01*
X43753726Y-36471595D01*
X43753722Y-36471593D01*
X43547790Y-36386293D01*
X43547783Y-36386291D01*
X43547781Y-36386290D01*
X43332463Y-36328596D01*
X43332457Y-36328595D01*
X43332452Y-36328594D01*
X43111466Y-36299501D01*
X43111463Y-36299500D01*
X43111457Y-36299500D01*
X42888543Y-36299500D01*
X42888537Y-36299500D01*
X42888533Y-36299501D01*
X42667547Y-36328594D01*
X42667540Y-36328595D01*
X42667537Y-36328596D01*
X42452219Y-36386290D01*
X42452209Y-36386293D01*
X42246277Y-36471593D01*
X42246273Y-36471595D01*
X42053226Y-36583052D01*
X42053217Y-36583058D01*
X41876377Y-36718751D01*
X41876370Y-36718757D01*
X41718757Y-36876370D01*
X41718751Y-36876377D01*
X41583058Y-37053217D01*
X41583052Y-37053226D01*
X41471595Y-37246273D01*
X41471593Y-37246277D01*
X41386293Y-37452209D01*
X41386290Y-37452219D01*
X41328597Y-37667534D01*
X41328594Y-37667547D01*
X41299501Y-37888533D01*
X41299500Y-37888549D01*
X40507241Y-37888549D01*
X40507940Y-37876997D01*
X40518271Y-37706205D01*
X40520076Y-37691340D01*
X40523940Y-37670258D01*
X40571780Y-37409197D01*
X40575364Y-37394663D01*
X40660696Y-37120822D01*
X40665998Y-37106841D01*
X40783731Y-36845249D01*
X40790676Y-36832016D01*
X40939080Y-36586526D01*
X40947567Y-36574230D01*
X41124480Y-36348417D01*
X41134395Y-36337226D01*
X41337226Y-36134395D01*
X41348417Y-36124480D01*
X41574230Y-35947567D01*
X41586526Y-35939080D01*
X41832016Y-35790676D01*
X41845249Y-35783731D01*
X42106841Y-35665998D01*
X42120822Y-35660696D01*
X42394668Y-35575362D01*
X42409197Y-35571780D01*
X42691344Y-35520075D01*
X42706201Y-35518271D01*
X42996264Y-35500726D01*
X43003751Y-35500500D01*
X43065892Y-35500500D01*
X124934108Y-35500500D01*
X124996249Y-35500500D01*
X125003736Y-35500726D01*
G37*
%TD.AperFunction*%
%TD*%
M02*
