%TF.GenerationSoftware,KiCad,Pcbnew,9.0.7*%
%TF.CreationDate,2026-04-03T13:03:59+02:00*%
%TF.ProjectId,Untitled,556e7469-746c-4656-942e-6b696361645f,rev?*%
%TF.SameCoordinates,Original*%
%TF.FileFunction,Copper,L2,Bot*%
%TF.FilePolarity,Positive*%
%FSLAX46Y46*%
G04 Gerber Fmt 4.6, Leading zero omitted, Abs format (unit mm)*
G04 Created by KiCad (PCBNEW 9.0.7) date 2026-04-03 13:03:59*
%MOMM*%
%LPD*%
G01*
G04 APERTURE LIST*
G04 Aperture macros list*
%AMRoundRect*
0 Rectangle with rounded corners*
0 $1 Rounding radius*
0 $2 $3 $4 $5 $6 $7 $8 $9 X,Y pos of 4 corners*
0 Add a 4 corners polygon primitive as box body*
4,1,4,$2,$3,$4,$5,$6,$7,$8,$9,$2,$3,0*
0 Add four circle primitives for the rounded corners*
1,1,$1+$1,$2,$3*
1,1,$1+$1,$4,$5*
1,1,$1+$1,$6,$7*
1,1,$1+$1,$8,$9*
0 Add four rect primitives between the rounded corners*
20,1,$1+$1,$2,$3,$4,$5,0*
20,1,$1+$1,$4,$5,$6,$7,0*
20,1,$1+$1,$6,$7,$8,$9,0*
20,1,$1+$1,$8,$9,$2,$3,0*%
G04 Aperture macros list end*
%TA.AperFunction,ComponentPad*%
%ADD10R,1.778000X1.778000*%
%TD*%
%TA.AperFunction,ComponentPad*%
%ADD11C,1.778000*%
%TD*%
%TA.AperFunction,ComponentPad*%
%ADD12C,3.200000*%
%TD*%
%TA.AperFunction,ComponentPad*%
%ADD13C,2.184400*%
%TD*%
%TA.AperFunction,ComponentPad*%
%ADD14RoundRect,0.250000X-0.725000X0.600000X-0.725000X-0.600000X0.725000X-0.600000X0.725000X0.600000X0*%
%TD*%
%TA.AperFunction,ComponentPad*%
%ADD15O,1.950000X1.700000*%
%TD*%
%TA.AperFunction,ComponentPad*%
%ADD16RoundRect,0.250000X0.600000X0.725000X-0.600000X0.725000X-0.600000X-0.725000X0.600000X-0.725000X0*%
%TD*%
%TA.AperFunction,ComponentPad*%
%ADD17O,1.700000X1.950000*%
%TD*%
%TA.AperFunction,ComponentPad*%
%ADD18R,1.524000X1.524000*%
%TD*%
%TA.AperFunction,ComponentPad*%
%ADD19C,1.524000*%
%TD*%
%TA.AperFunction,ComponentPad*%
%ADD20RoundRect,0.250000X-0.600000X-0.725000X0.600000X-0.725000X0.600000X0.725000X-0.600000X0.725000X0*%
%TD*%
%TA.AperFunction,ComponentPad*%
%ADD21RoundRect,0.250000X0.725000X-0.600000X0.725000X0.600000X-0.725000X0.600000X-0.725000X-0.600000X0*%
%TD*%
%TA.AperFunction,ViaPad*%
%ADD22C,0.800000*%
%TD*%
%TA.AperFunction,ViaPad*%
%ADD23C,0.600000*%
%TD*%
%TA.AperFunction,Conductor*%
%ADD24C,0.500000*%
%TD*%
%TA.AperFunction,Conductor*%
%ADD25C,0.200000*%
%TD*%
G04 APERTURE END LIST*
D10*
%TO.P,INA2192,1,VCC*%
%TO.N,+3.3V*%
X77300000Y-57120000D03*
D11*
%TO.P,INA2192,2,GND*%
%TO.N,GND*%
X79840000Y-57120000D03*
%TO.P,INA2192,3,SCL*%
%TO.N,Net-(A1-LV2)*%
X82380000Y-57120000D03*
%TO.P,INA2192,4,SDA*%
%TO.N,Net-(A1-LV1)*%
X84920000Y-57120000D03*
%TO.P,INA2192,5,VIN-*%
%TO.N,Net-(J1-Pin_2)*%
X87460000Y-57120000D03*
%TO.P,INA2192,6,VIN+*%
%TO.N,Net-(J1-Pin_1)*%
X90000000Y-57120000D03*
D12*
%TO.P,INA2192,SH1,SHIELD*%
%TO.N,Net-(U2-SHIELD-PadSH1)*%
X73490000Y-41880000D03*
%TO.P,INA2192,SH2,SHIELD*%
X93810000Y-41880000D03*
%TO.P,INA2192,SH3,SHIELD*%
X73490000Y-57120000D03*
%TO.P,INA2192,SH4,SHIELD*%
X93810000Y-57120000D03*
D13*
%TO.P,INA2192,VIN+,VIN+*%
%TO.N,Net-(J1-Pin_1)*%
X85350000Y-43150000D03*
%TO.P,INA2192,VIN-,VIN-*%
%TO.N,Net-(J1-Pin_2)*%
X81850000Y-43150000D03*
%TD*%
D14*
%TO.P,J2,1,Pin_1*%
%TO.N,Net-(A1-LV3)*%
X51000000Y-86420000D03*
D15*
%TO.P,J2,2,Pin_2*%
%TO.N,Net-(A1-LV4)*%
X51000000Y-88920000D03*
%TO.P,J2,3,Pin_3*%
%TO.N,unconnected-(J2-Pin_3-Pad3)*%
X51000000Y-91420000D03*
%TD*%
D16*
%TO.P,J1,1,Pin_1*%
%TO.N,Net-(J1-Pin_1)*%
X73250000Y-66025000D03*
D17*
%TO.P,J1,2,Pin_2*%
%TO.N,Net-(J1-Pin_2)*%
X70750000Y-66025000D03*
%TO.P,J1,3,Pin_3*%
%TO.N,Net-(J1-Pin_3)*%
X68250000Y-66025000D03*
%TO.P,J1,4,Pin_4*%
%TO.N,Net-(J1-Pin_4)*%
X65750000Y-66025000D03*
%TD*%
D18*
%TO.P,A1,1,LV1*%
%TO.N,Net-(A1-LV1)*%
X61800000Y-89580000D03*
D19*
%TO.P,A1,2,LV2*%
%TO.N,Net-(A1-LV2)*%
X64340000Y-89580000D03*
%TO.P,A1,3,LV*%
%TO.N,+3.3V*%
X66880000Y-89580000D03*
%TO.P,A1,4,GND*%
%TO.N,GND*%
X69420000Y-89580000D03*
%TO.P,A1,5,LV3*%
%TO.N,Net-(A1-LV3)*%
X71960000Y-89580000D03*
%TO.P,A1,6,LV4*%
%TO.N,Net-(A1-LV4)*%
X74500000Y-89580000D03*
%TO.P,A1,7,HV4*%
%TO.N,Net-(A1-HV4)*%
X74500000Y-79420000D03*
%TO.P,A1,8,HV3*%
%TO.N,Net-(A1-HV3)*%
X71960000Y-79420000D03*
%TO.P,A1,9,GND*%
%TO.N,GND*%
X69420000Y-79420000D03*
%TO.P,A1,10,HV*%
%TO.N,+5V*%
X66880000Y-79420000D03*
%TO.P,A1,11,HV2*%
%TO.N,Net-(A1-HV2)*%
X64340000Y-79420000D03*
%TO.P,A1,12,HV1*%
%TO.N,Net-(A1-HV1)*%
X61800000Y-79420000D03*
%TD*%
D20*
%TO.P,J10,1,Pin_1*%
%TO.N,+3.3V*%
X102000000Y-71000000D03*
D17*
%TO.P,J10,2,Pin_2*%
%TO.N,Net-(J10-Pin_2)*%
X104500000Y-71000000D03*
%TO.P,J10,3,Pin_3*%
%TO.N,GND*%
X107000000Y-71000000D03*
%TD*%
D10*
%TO.P,INA219,1,VCC*%
%TO.N,+3.3V*%
X50150000Y-57120000D03*
D11*
%TO.P,INA219,2,GND*%
%TO.N,GND*%
X52690000Y-57120000D03*
%TO.P,INA219,3,SCL*%
%TO.N,Net-(A1-LV2)*%
X55230000Y-57120000D03*
%TO.P,INA219,4,SDA*%
%TO.N,Net-(A1-LV1)*%
X57770000Y-57120000D03*
%TO.P,INA219,5,VIN-*%
%TO.N,Net-(J1-Pin_4)*%
X60310000Y-57120000D03*
%TO.P,INA219,6,VIN+*%
%TO.N,Net-(J1-Pin_3)*%
X62850000Y-57120000D03*
D12*
%TO.P,INA219,SH1,SHIELD*%
%TO.N,Net-(U3-SHIELD-PadSH1)*%
X46340000Y-41880000D03*
%TO.P,INA219,SH2,SHIELD*%
X66660000Y-41880000D03*
%TO.P,INA219,SH3,SHIELD*%
X46340000Y-57120000D03*
%TO.P,INA219,SH4,SHIELD*%
X66660000Y-57120000D03*
D13*
%TO.P,INA219,VIN+,VIN+*%
%TO.N,Net-(J1-Pin_3)*%
X58200000Y-43150000D03*
%TO.P,INA219,VIN-,VIN-*%
%TO.N,Net-(J1-Pin_4)*%
X54700000Y-43150000D03*
%TD*%
D14*
%TO.P,J8,1,Pin_1*%
%TO.N,+5V*%
X86500000Y-77500000D03*
D15*
%TO.P,J8,2,Pin_2*%
%TO.N,Net-(A1-HV1)*%
X86500000Y-80000000D03*
%TO.P,J8,3,Pin_3*%
%TO.N,Net-(A1-HV2)*%
X86500000Y-82500000D03*
%TO.P,J8,4,Pin_4*%
%TO.N,GND*%
X86500000Y-85000000D03*
%TD*%
D20*
%TO.P,J7,1,Pin_1*%
%TO.N,+3.3V*%
X82500000Y-65000000D03*
D17*
%TO.P,J7,2,Pin_2*%
%TO.N,Net-(A1-LV1)*%
X85000000Y-65000000D03*
%TO.P,J7,3,Pin_3*%
%TO.N,Net-(A1-LV2)*%
X87500000Y-65000000D03*
%TO.P,J7,4,Pin_4*%
%TO.N,GND*%
X90000000Y-65000000D03*
%TO.P,J7,5,Pin_5*%
%TO.N,+5V*%
X92500000Y-65000000D03*
%TD*%
D20*
%TO.P,J9,1,Pin_1*%
%TO.N,+3.3V*%
X115500000Y-71000000D03*
D17*
%TO.P,J9,2,Pin_2*%
%TO.N,Net-(J9-Pin_2)*%
X118000000Y-71000000D03*
%TO.P,J9,3,Pin_3*%
%TO.N,GND*%
X120500000Y-71000000D03*
%TD*%
D10*
%TO.P,ADS1115,1,A3*%
%TO.N,unconnected-(U1-A3-Pad1)*%
X123280000Y-57500000D03*
D11*
%TO.P,ADS1115,2,A2*%
%TO.N,unconnected-(U1-A2-Pad2)*%
X120740000Y-57500000D03*
%TO.P,ADS1115,3,A1*%
%TO.N,Net-(J9-Pin_2)*%
X118200000Y-57500000D03*
%TO.P,ADS1115,4,A0*%
%TO.N,Net-(J10-Pin_2)*%
X115660000Y-57500000D03*
%TO.P,ADS1115,5,ALERT*%
%TO.N,unconnected-(U1-ALERT-Pad5)*%
X113120000Y-57500000D03*
%TO.P,ADS1115,6,ADDR*%
%TO.N,unconnected-(U1-ADDR-Pad6)*%
X110580000Y-57500000D03*
%TO.P,ADS1115,7,SDA*%
%TO.N,Net-(A1-LV1)*%
X108040000Y-57500000D03*
%TO.P,ADS1115,8,SCL*%
%TO.N,Net-(A1-LV2)*%
X105500000Y-57500000D03*
%TO.P,ADS1115,9,GND*%
%TO.N,GND*%
X102960000Y-57500000D03*
%TO.P,ADS1115,10,VDD*%
%TO.N,+3.3V*%
X100420000Y-57500000D03*
D12*
%TO.P,ADS1115,P1*%
%TO.N,N/C*%
X100420000Y-44800000D03*
%TO.P,ADS1115,P2*%
X123280000Y-44800000D03*
%TD*%
D21*
%TO.P,J6,1,Pin_1*%
%TO.N,GND*%
X50000000Y-79920000D03*
D15*
%TO.P,J6,2,Pin_2*%
%TO.N,Net-(A1-HV4)*%
X50000000Y-77420000D03*
%TO.P,J6,3,Pin_3*%
%TO.N,Net-(A1-HV3)*%
X50000000Y-74920000D03*
%TO.P,J6,4,Pin_4*%
%TO.N,+5V*%
X50000000Y-72420000D03*
%TD*%
D22*
%TO.N,+5V*%
X77500000Y-77500000D03*
X66880000Y-77500000D03*
D23*
%TO.N,Net-(A1-HV4)*%
X70448700Y-84152500D03*
%TO.N,Net-(A1-LV2)*%
X78500000Y-53500000D03*
%TD*%
D24*
%TO.N,+5V*%
X92500000Y-71500000D02*
X92500000Y-65000000D01*
X66880000Y-77500000D02*
X77500000Y-77500000D01*
X86500000Y-77500000D02*
X92500000Y-71500000D01*
D25*
%TO.N,Net-(J9-Pin_2)*%
X118200000Y-57500000D02*
X118000000Y-57700000D01*
X118000000Y-57700000D02*
X118000000Y-71000000D01*
%TO.N,Net-(J10-Pin_2)*%
X105651700Y-71000000D02*
X105651700Y-67508300D01*
X105651700Y-67508300D02*
X115660000Y-57500000D01*
X104500000Y-71000000D02*
X105651700Y-71000000D01*
%TO.N,Net-(J1-Pin_2)*%
X83003900Y-52663900D02*
X82962600Y-52663900D01*
%TO.N,Net-(J1-Pin_4)*%
X65750000Y-66025000D02*
X65750000Y-62560000D01*
X65750000Y-62560000D02*
X60310000Y-57120000D01*
%TO.N,Net-(J1-Pin_3)*%
X62850000Y-57120000D02*
X68250000Y-62520000D01*
X68250000Y-62520000D02*
X68250000Y-66025000D01*
D24*
%TO.N,+3.3V*%
X102000000Y-59080000D02*
X100420000Y-57500000D01*
X82500000Y-65000000D02*
X77300000Y-59800000D01*
X102000000Y-71000000D02*
X102000000Y-59080000D01*
X66880000Y-89580000D02*
X82500000Y-73960000D01*
X82500000Y-73960000D02*
X82500000Y-65000000D01*
X77300000Y-59800000D02*
X77300000Y-57120000D01*
D25*
%TO.N,Net-(A1-HV4)*%
X70448700Y-84152500D02*
X74500000Y-80101200D01*
X74500000Y-80101200D02*
X74500000Y-79420000D01*
%TO.N,Net-(A1-LV1)*%
X84920000Y-63643300D02*
X84920000Y-57120000D01*
X61800000Y-89580000D02*
X61800000Y-88516300D01*
X85000000Y-63723300D02*
X84920000Y-63643300D01*
X57770000Y-84486300D02*
X61800000Y-88516300D01*
X57770000Y-57120000D02*
X57770000Y-84486300D01*
X85000000Y-65000000D02*
X85000000Y-63723300D01*
%TO.N,Net-(A1-LV2)*%
X58287200Y-55870400D02*
X59040000Y-56623200D01*
X56479600Y-55870400D02*
X58287200Y-55870400D01*
X59040000Y-84280000D02*
X64340000Y-89580000D01*
X78500000Y-53500000D02*
X58912000Y-53500000D01*
X55230000Y-57120000D02*
X56479600Y-55870400D01*
X58912000Y-53500000D02*
X58875000Y-53537000D01*
X59040000Y-56623200D02*
X59040000Y-84280000D01*
X82380000Y-57120000D02*
X83595300Y-55904700D01*
X58875000Y-55282600D02*
X58287200Y-55870400D01*
X58875000Y-53537000D02*
X58875000Y-55282600D01*
%TD*%
M02*
