%TF.GenerationSoftware,KiCad,Pcbnew,9.0.7*%
%TF.CreationDate,2026-04-03T13:03:59+02:00*%
%TF.ProjectId,Untitled,556e7469-746c-4656-942e-6b696361645f,rev?*%
%TF.SameCoordinates,Original*%
%TF.FileFunction,Soldermask,Bot*%
%TF.FilePolarity,Negative*%
%FSLAX46Y46*%
G04 Gerber Fmt 4.6, Leading zero omitted, Abs format (unit mm)*
G04 Created by KiCad (PCBNEW 9.0.7) date 2026-04-03 13:03:59*
%MOMM*%
%LPD*%
G01*
G04 APERTURE LIST*
G04 Aperture macros list*
%AMRoundRect*
0 Rectangle with rounded corners*
0 $1 Rounding radius*
0 $2 $3 $4 $5 $6 $7 $8 $9 X,Y pos of 4 corners*
0 Add a 4 corners polygon primitive as box body*
4,1,4,$2,$3,$4,$5,$6,$7,$8,$9,$2,$3,0*
0 Add four circle primitives for the rounded corners*
1,1,$1+$1,$2,$3*
1,1,$1+$1,$4,$5*
1,1,$1+$1,$6,$7*
1,1,$1+$1,$8,$9*
0 Add four rect primitives between the rounded corners*
20,1,$1+$1,$2,$3,$4,$5,0*
20,1,$1+$1,$4,$5,$6,$7,0*
20,1,$1+$1,$6,$7,$8,$9,0*
20,1,$1+$1,$8,$9,$2,$3,0*%
G04 Aperture macros list end*
%ADD10RoundRect,0.102000X-0.889000X-0.889000X0.889000X-0.889000X0.889000X0.889000X-0.889000X0.889000X0*%
%ADD11C,1.982000*%
%ADD12C,3.404000*%
%ADD13C,2.388400*%
%ADD14RoundRect,0.250000X-0.725000X0.600000X-0.725000X-0.600000X0.725000X-0.600000X0.725000X0.600000X0*%
%ADD15O,1.950000X1.700000*%
%ADD16RoundRect,0.250000X0.600000X0.725000X-0.600000X0.725000X-0.600000X-0.725000X0.600000X-0.725000X0*%
%ADD17O,1.700000X1.950000*%
%ADD18R,1.524000X1.524000*%
%ADD19C,1.524000*%
%ADD20RoundRect,0.250000X-0.600000X-0.725000X0.600000X-0.725000X0.600000X0.725000X-0.600000X0.725000X0*%
%ADD21RoundRect,0.250000X0.725000X-0.600000X0.725000X0.600000X-0.725000X0.600000X-0.725000X-0.600000X0*%
G04 APERTURE END LIST*
D10*
%TO.C,INA2192*%
X77300000Y-57120000D03*
D11*
X79840000Y-57120000D03*
X82380000Y-57120000D03*
X84920000Y-57120000D03*
X87460000Y-57120000D03*
X90000000Y-57120000D03*
D12*
X73490000Y-41880000D03*
X93810000Y-41880000D03*
X73490000Y-57120000D03*
X93810000Y-57120000D03*
D13*
X85350000Y-43150000D03*
X81850000Y-43150000D03*
%TD*%
D14*
%TO.C,J2*%
X51000000Y-86420000D03*
D15*
X51000000Y-88920000D03*
X51000000Y-91420000D03*
%TD*%
D16*
%TO.C,J1*%
X73250000Y-66025000D03*
D17*
X70750000Y-66025000D03*
X68250000Y-66025000D03*
X65750000Y-66025000D03*
%TD*%
D18*
%TO.C,A1*%
X61800000Y-89580000D03*
D19*
X64340000Y-89580000D03*
X66880000Y-89580000D03*
X69420000Y-89580000D03*
X71960000Y-89580000D03*
X74500000Y-89580000D03*
X74500000Y-79420000D03*
X71960000Y-79420000D03*
X69420000Y-79420000D03*
X66880000Y-79420000D03*
X64340000Y-79420000D03*
X61800000Y-79420000D03*
%TD*%
D20*
%TO.C,J10*%
X102000000Y-71000000D03*
D17*
X104500000Y-71000000D03*
X107000000Y-71000000D03*
%TD*%
D10*
%TO.C,INA219*%
X50150000Y-57120000D03*
D11*
X52690000Y-57120000D03*
X55230000Y-57120000D03*
X57770000Y-57120000D03*
X60310000Y-57120000D03*
X62850000Y-57120000D03*
D12*
X46340000Y-41880000D03*
X66660000Y-41880000D03*
X46340000Y-57120000D03*
X66660000Y-57120000D03*
D13*
X58200000Y-43150000D03*
X54700000Y-43150000D03*
%TD*%
D14*
%TO.C,J8*%
X86500000Y-77500000D03*
D15*
X86500000Y-80000000D03*
X86500000Y-82500000D03*
X86500000Y-85000000D03*
%TD*%
D20*
%TO.C,J7*%
X82500000Y-65000000D03*
D17*
X85000000Y-65000000D03*
X87500000Y-65000000D03*
X90000000Y-65000000D03*
X92500000Y-65000000D03*
%TD*%
D20*
%TO.C,J9*%
X115500000Y-71000000D03*
D17*
X118000000Y-71000000D03*
X120500000Y-71000000D03*
%TD*%
D10*
%TO.C,ADS1115*%
X123280000Y-57500000D03*
D11*
X120740000Y-57500000D03*
X118200000Y-57500000D03*
X115660000Y-57500000D03*
X113120000Y-57500000D03*
X110580000Y-57500000D03*
X108040000Y-57500000D03*
X105500000Y-57500000D03*
X102960000Y-57500000D03*
X100420000Y-57500000D03*
D12*
X100420000Y-44800000D03*
X123280000Y-44800000D03*
%TD*%
D21*
%TO.C,J6*%
X50000000Y-79920000D03*
D15*
X50000000Y-77420000D03*
X50000000Y-74920000D03*
X50000000Y-72420000D03*
%TD*%
M02*
