<svg width="152" height="174.00000000000003" xmlns="http://www.w3.org/2000/svg" fill="none">
 <defs>
  <clipPath id="clip0_3311_2">
   <rect id="svg_1" fill="white" height="320" width="297.006"/>
  </clipPath>
 </defs>
 <g>
  <title>Layer 1</title>
  <path id="svg_5" fill="#592178" d="m112.62298,167.2395c-6.013,2.506 -9.416,3.564 -15.143,4.714c-9.311,1.868 -9.497,1.874 -55.199,2.084c-23.1975,0.106 -42.2212,0.171 -42.2787,0.144c-0.0575,-0.027 0.9811,-1.564 2.307,-3.415c1.3241,-1.851 6.0398,-8.461 10.4776,-14.691c2.6903,-3.775 5.3787,-7.55 8.069,-11.324c10.8701,-0.035 21.7411,-0.067 32.6131,-0.1c22.212,-0.069 33.546,-0.218 35.543,-0.475c8.782,-1.127 15.375,-4.279 20.03,-9.572c1.59,-1.808 4.104,-6.181 5.237,-9.109c2.638,-6.82 3.364,-11.97 3.347,-23.785c-0.015,-12.057 -1.05,-19.336 -3.616,-25.432c-3.19,-7.584 -9.624,-12.945 -18.811,-15.672c-5.578,-1.656 -6.689,-1.736 -25.971,-1.891c-6.052,-0.05 -12.103,-0.098 -18.156,-0.146c0,5.545 0,11.091 0,16.638c0,5.546 0,11.093 0,16.638c-0.406,-0.322 -0.814,-0.644 -1.221,-0.964c-1.92,-1.519 -13.955,-9.874 -21.173,-14.7c-2.1885,-1.462 -4.3768,-2.926 -6.5651,-4.39c0.023,-11.965 0.046,-23.931 0.069,-35.896c0.023,-11.9664 0.046,-23.931 0.069,-35.8955c2.9317,2.0388 5.8611,4.0776 8.7931,6.1183c4.837,3.3648 11.285,7.8984 14.329,10.0752c1.846,1.3183 3.691,2.6366 5.536,3.955c0.031,1.6172 0.061,3.2345 0.09,4.8498c0.031,1.6172 0.06,3.2342 0.09,4.8502c6.212,0 12.425,-0.002 18.637,-0.004c13.524,-0.002 19.574,0.113 22.055,0.425c24.525,3.083 42.516,15.352 52.058,35.505c4.086,8.628 6.494,17.408 7.558,27.55c0.511,4.887 0.228,18.005 -0.487,22.533c-0.617,3.897 -2.34,10.73 -3.612,14.313c-1.974,5.563 -6.308,13.387 -10.738,19.381c-0.272,0.368 -0.542,0.735 -0.814,1.101c-0.895,0.876 -1.792,1.75 -2.687,2.626c-6.067,5.924 -11.256,9.469 -20.436,13.961z"/>
  <path id="svg_7" fill="#592178" d="m4.82528,134.8825c0.1782,-0.109 2.3282,-3.008 4.7809,-6.442c2.4508,-3.434 5.0548,-6.988 5.783,-7.896c0.4426,-0.552 0.8833,-1.104 1.326,-1.656c1.9449,-0.071 3.8879,-0.144 5.8328,-0.215c6.806,-0.251 49.042,-0.295 49.042,-0.049c0,0.09 -0.841,1.299 -1.868,2.682c-1.025,1.386 -3.597,5.078 -5.712,8.209c-1.282,1.897 -2.564,3.794 -3.846,5.691c-9.276,0.054 -18.554,0.107 -27.83,0.163c-15.3084,0.088 -27.8306,0.061 -27.8306,-0.063c0,-0.123 0.1437,-0.314 0.3219,-0.424z"/>
 </g>
</svg>